<svg id="Layer_1" data-name="Layer 1" xmlns="http://www.w3.org/2000/svg" viewBox="0 0 1000 1000"><defs><style>.cls-1{fill:#174887;}.cls-2{fill:#f36f24;}.cls-3{fill:none;stroke:#f36f24;stroke-miterlimit:10;stroke-width:19px;}</style></defs><title>Artboard 1</title><path class="cls-1" d="M141.57,569.05a10.66,10.66,0,0,0-.55,1.54.4.4,0,0,1-.14.27l-1,1a32.6,32.6,0,0,0-2.79,3.62,4.83,4.83,0,0,1-2.92,2.23,42.1,42.1,0,0,0-5.44,1.68c-.93.74-1.11,1.53-.56,2.36a3.39,3.39,0,0,1,.56,2.65,16.4,16.4,0,0,0-4.46,3.49,7,7,0,0,1-5.29,2.37h-2c-.19,0-.28,0-.28-.14a.12.12,0,0,0-.14-.14h-1.81c.18-1.86.32-3.35.41-4.46a10.37,10.37,0,0,0-1.25-4.74l-.56.83a8.92,8.92,0,0,0-.55,2.51,13.59,13.59,0,0,1-3.91-.83,17.46,17.46,0,0,0-5.57-.84,7.17,7.17,0,0,0-2.37.28,3.16,3.16,0,0,0-1.11.7,9.45,9.45,0,0,1-1,.83,5.54,5.54,0,0,1-2.23.7,24.82,24.82,0,0,1-5.43.42,15.81,15.81,0,0,1-3.49-.56,11,11,0,0,1-2.37-1A19.14,19.14,0,0,0,83,582.71c.37,1.3.79,2,1.26,2.09a30.78,30.78,0,0,1,4.6,2.37,23.19,23.19,0,0,0,6.82.14c2.7-.28,4.6-.42,5.72-.42a5,5,0,0,1,2.09.84,4.81,4.81,0,0,0,2.09.83q2.22.29,2.37,1.26a2.54,2.54,0,0,1-.42,1.81q-1.39.84-4,2.23a8.64,8.64,0,0,1-5.72.83q-3.06,0-6.27-.27a12.47,12.47,0,0,1-6.27-2.51L84.16,593c-.19,0-.75,0-1.67-.14a22,22,0,0,1-3.07-.55c-1.12-.28-2.14-.56-3.07-.84a4.61,4.61,0,0,1-1.95-1q-6.14-3.06-11.15-6t-8.36-9.89c-1.49-3-2.69-5.2-3.62-6.69a20.26,20.26,0,0,1-2.09-4.32,28.58,28.58,0,0,1-1.12-5.16c-.27-2-.6-5.2-1-9.47v-2.37c0-1.4-.05-2.93-.14-4.6s-.14-3.25-.14-4.74v-2.51c1.11.38,1.3-.18.56-1.67a8.47,8.47,0,0,1-1.12-3.35,1.1,1.1,0,0,0,.28-.83,1.92,1.92,0,0,0-.56-1.4l2.23-12,4.46-.84a1.1,1.1,0,0,0-.83-1.11L50,513c-.66-.18-1.26-.37-1.82-.56a.77.77,0,0,1-.55-1.11v-7c0-2,0-4,.14-5.85s.13-3.44.13-4.74c-.19,0-.33-.6-.42-1.81s-.19-2.6-.29-4.18-.13-3.67-.13-6.27a2,2,0,0,1,.13-.84,4.09,4.09,0,0,1,1.55-.84l.56-.55c.18-.19,0-.47-.56-.84H46.51L28.42,479a1.75,1.75,0,0,0-1-1.81c-.65-.28-.88-.88-.7-1.82a1.31,1.31,0,0,1-1,.56c-.66,0-1-.93-1-2.79l.56-11.42a6.32,6.32,0,0,1,2.23-4q1.67-1.26,7.25-.7c.37,0,.92.47,1.67,1.39A3.18,3.18,0,0,0,39,459.8a2.46,2.46,0,0,0,1.67,1.39,7.27,7.27,0,0,0,1.67.84,3.4,3.4,0,0,0,2.23-.28c.37-.56.51-.88.42-1a3.91,3.91,0,0,0-.7-.42c-.37-.18-.79-.41-1.25-.69a2.89,2.89,0,0,1-1-2.09,11.81,11.81,0,0,1,3.49-.7c1.39-.09,2.27-.14,2.64-.14q2.23,0,0-1.67c.19-1.67.28-2.65.28-2.93s0-.32-.14-.14a1.32,1.32,0,0,0-.14.56c0,.19.19-.09.56-.84a11.56,11.56,0,0,0-.14-3.9c-.28-1.67-.88-2.51-1.81-2.51s-1.44-1.53-1.53-4.6a32.39,32.39,0,0,1,.69-8.22c0-.18.05-.93.14-2.23s.14-2.41.14-3.34.74-2,2.23-3.35,2.14-1.95,2-1.95H48.2a7.13,7.13,0,0,1-2.23-.28l1.12-2.5c0-.93.41-1.35,1.24-1.26a17.28,17.28,0,0,0,2.06.14c3.31,0,5.37.19,6.2.56s1.24.69,1.24,1,.09.38.27.28L61.41,418a29.22,29.22,0,0,0,4.27-.14,11,11,0,0,1,3.44,1c.73.37,1,2.32.82,5.85,0-.18-.14.28-.41,1.39a24.12,24.12,0,0,1-1,3.07c.37,1.67.65,2.51.84,2.51s.27.46.27,1.39c.19.93.37,1.35.56,1.25s.09.61-.28,2.09a19,19,0,0,1-.83,8.64,21.7,21.7,0,0,0-1.4,7.25,6.48,6.48,0,0,0,.37,2.65,5.92,5.92,0,0,0,.73,1.11,3.6,3.6,0,0,1,.61,1,5.47,5.47,0,0,1,.24,1.95,19.75,19.75,0,0,1,3.45,1.39l3.15,1.26a23.79,23.79,0,0,1,3.16,1.53,43.32,43.32,0,0,0-6-.14,8.11,8.11,0,0,0-4.88,1.53,12.09,12.09,0,0,1,2.23,3.07c.56,1.12,2,1.67,4.18,1.67,1.12,0,1.67-.18,1.67-.55a2.53,2.53,0,0,0-.42-1.26,1.64,1.64,0,0,1-.27-1.25c.09-.37.69-.56,1.81-.56a9.9,9.9,0,0,1,5.15,1.11q1.81,1.13,4.6,2.51c.74.56,1.67.47,2.79-.28s1.21-1.57.28-2.5a24.27,24.27,0,0,1-5.72-4.19,10,10,0,0,0-7.1-2.78A6.68,6.68,0,0,1,82.63,458a32.67,32.67,0,0,1,6.27,1q3.34.84,6.55,1.81a19.2,19.2,0,0,0,5.43,1c1.12,0,1.81-.19,2.09-.56a3.15,3.15,0,0,0,.56-1.25,3.05,3.05,0,0,1,.56-1.26c.27-.37,1-.56,2.09-.56,2.41,0,3.71.38,3.9,1.12a5.82,5.82,0,0,0,1.67,2.51q3.34-2.79,3.35-5.58a24.34,24.34,0,0,1,6,2.93,8.84,8.84,0,0,1,2.92,3.34,12,12,0,0,1,1,4.32c.09,1.68.14,3.54.14,5.58,0,1.49,0,3-.14,4.6s-1.91,2.37-5.44,2.37H115.1c-2,0-4.09-.1-6.14-.28-2.41-.19-5-.37-7.8-.56-.19,0-.33-.6-.42-1.81s-.33-1.81-.7-1.81a1.92,1.92,0,0,0-1.25.69c-.47.47-1,1-1.67,1.54A10.85,10.85,0,0,1,95,478.47a2.38,2.38,0,0,1-2.23,0,40,40,0,0,1-4.6.42c-2,.09-4,.14-6.13.14s-4.28,0-6.41-.14-4-.14-5.44-.14c-.56-.37-.93.23-1.11,1.81a48.86,48.86,0,0,0-.28,5.71c0,2.23,0,4.56.14,7s.23,4.37.42,5.86a22.67,22.67,0,0,0-.56,4.18,15.43,15.43,0,0,0,.42,3.48,3.07,3.07,0,0,0,1.81,2.37,15.67,15.67,0,0,1-4.18-.84c-.93-.37-1.95-.09-3.07.84a8.72,8.72,0,0,1,2.09,4q.69,2.66,4,2.65c1.12,0,1.44.65,1,1.95s-1,2.79-1.67,4.46-1.17,3.16-1.54,4.46,0,1.95,1.12,1.95c-.19,0-.24.37-.14,1.11s.18,1.58.28,2.51.18,1.77.28,2.51,0,1.12-.14,1.12a9.48,9.48,0,0,1,.55,3.48c0,1.39,0,2.83-.13,4.32s-.14,2.88-.14,4.18a5.27,5.27,0,0,0,.55,2.79c.93.37,1.3,1.35,1.12,2.92a15.42,15.42,0,0,1-.84,3.77,2.21,2.21,0,0,1,1.4.28c1.11.37,1.57.55,1.39.55.93,3.35,2.46,5.62,4.6,6.83s3.39,1.72,3.76,1.53c1.12-.74,1.95-.92,2.51-.55a13.11,13.11,0,0,0,1.39.83,1.36,1.36,0,0,1,.42,1.26,1.29,1.29,0,0,0,.42,1.25A30,30,0,0,0,100.18,572a32.85,32.85,0,0,0,13.8-4,5.75,5.75,0,0,1,2.65-1,5.87,5.87,0,0,0,2.65-1c.37-.19.09-.37-.84-.56s-1.21-.37-.84-.56a23.83,23.83,0,0,1,3.21-3.2,8.09,8.09,0,0,0,1.81-1.81c.93-1.49,1.67-2.61,2.23-3.35s1.58-.93,3.07-.56q5,2.24,6.68,3.91a25.5,25.5,0,0,0,5,3.62,6.37,6.37,0,0,1,1.95,3.06A5.58,5.58,0,0,1,141.57,569.05ZM37.89,463.42a11,11,0,0,0-2.65-2.79,4.72,4.72,0,0,0-2.37-.55c.74,1.48,1.54,2.32,2.37,2.5A17.84,17.84,0,0,1,37.89,463.42Zm14.77-8.36c0-1.49-.28-2.23-.83-2.23-.75,0-1.12,1.11-1.12,3.34,0,1.49.37,2.23,1.12,2.23C52.38,458.4,52.66,457.29,52.66,455.06Zm3.9,23.41c0-.56-.55-1-1.67-1.39a9.22,9.22,0,0,0-2.23-.56c-1.11,0-1.67.65-1.67,2,0,.56.28.74.84.56a4.42,4.42,0,0,1,1.39-.28,11.36,11.36,0,0,1,2,.28C56.1,479.21,56.56,479,56.56,478.47ZM67.44,433.6c-.38-.19-.75.32-1.12,1.53s-.74,2.56-1.11,4-.75,3-1.12,4.46A10.84,10.84,0,0,1,63,446.7c-2.79.93-3.26,1.76-1.4,2.51H62a5,5,0,0,0,1.53-.28,6.94,6.94,0,0,0,1.81-1,4.6,4.6,0,0,0,1.54-2.37c0-.18.09-.88.28-2.09s.32-2.51.41-3.9.14-2.65.14-3.76A6,6,0,0,0,67.44,433.6Zm3.9,134.06a5.48,5.48,0,0,0-.7-2.23c-.47-.93-1-1.95-1.67-3.07A26,26,0,0,1,67.3,559a8,8,0,0,1-.7-3.07c-.93,0-1.44.33-1.53,1a10.88,10.88,0,0,0,1,4,50.25,50.25,0,0,0,2.65,4.74C69.53,567,70.4,567.66,71.34,567.66Zm61.87-3.35-4.18-5c-.93-.74-1.72-1-2.37-.7a3.4,3.4,0,0,0-1.53,1.26,10.35,10.35,0,0,0-1.12,2.5,11.85,11.85,0,0,1,3.91,1A14.44,14.44,0,0,0,133.21,564.31Z"/><path class="cls-1" d="M237,586.14c-.85.29-1.11.72-.75,1.28a3,3,0,0,1,.54,1.51,14.12,14.12,0,0,0-.11,2.89,3.71,3.71,0,0,1-.32,2,2.3,2.3,0,0,1-2.14-.65,21.62,21.62,0,0,1-4.08.65c-1.71.14-3.4.28-5,.43s-3.07.21-4.29.21-1.82-.07-1.82-.21a2.32,2.32,0,0,0,.22-1.61,2.57,2.57,0,0,0-1.4-1.07,10.4,10.4,0,0,0-4-.54c-1.57.14-2.5.72-2.78,1.72s-.72,1.5-1.29,1.5c-1.43,0-2.68,0-3.75-.11s-2-.11-2.68-.11a8.79,8.79,0,0,1-2.36-.21,3.42,3.42,0,0,1-2-.43,5,5,0,0,1-.86-.86,3.59,3.59,0,0,0-1.07-.86,6,6,0,0,0-2.68-.42h-1.93c-1.15,0-2.36,0-3.65.1s-2.46.11-3.53.11h-1.83c-.14,0-.14.14,0,.43s.57.5,1.29.64c1.14,0,2.32,0,3.54.11a13.85,13.85,0,0,0,3.11-.11c1.42-.28,2.07,0,1.93.86s-.93,1-2.36.43H177.34a13.4,13.4,0,0,1-4.4.11,3.8,3.8,0,0,1-2.89-1.83l-.22,1.72h-9.22a3.22,3.22,0,0,1-2.46-1.5,4.47,4.47,0,0,1-1.18-2.58,10.55,10.55,0,0,1-.22-2.78c0-.29.29-.54.86-.75s.86-.47.86-.75-.25-.57-.75-.86-.75-.57-.75-.86v-4.5a4.1,4.1,0,0,1,2.78-2,10.77,10.77,0,0,1,3.76,0,39.89,39.89,0,0,1,4.07.86,14.7,14.7,0,0,0,3.75.53,18.28,18.28,0,0,0,3.44-.43q2.13-.42,4.5-.75c1.57-.21,3.14-.35,4.72-.43a12.26,12.26,0,0,1,3.86.33l.43-.43a6.29,6.29,0,0,1,.42-.75,4.34,4.34,0,0,0,.43-1,26.78,26.78,0,0,0-.32-4.07c-.21-1.43-.39-2.93-.53-4.51a46.88,46.88,0,0,0,3.32-9q.75-3.43-2-7.08a2.31,2.31,0,0,0,.32-2.79,3,3,0,0,1,.11-3v-7.5c0-2,0-3.76-.11-5.26s-.18-2.25-.32-2.25c-.29.14-.43,0-.43-.43V528a6.28,6.28,0,0,1,.22-1.93c-.29,0-.43-.71-.43-2.14s0-3,.11-4.72.17-4,.32-6.86c0,.14-.18-.32-.54-1.39a9.77,9.77,0,0,1-.53-3.11,8.29,8.29,0,0,1,.42-2.58,10.13,10.13,0,0,0,.43-3.21,2.32,2.32,0,0,1,.65-1.72,1.25,1.25,0,0,1,.85-.43c.29,0,.22-.18-.21-.53a2,2,0,0,0-1.72-.33c-.71.43-1.43.83-2.14,1.18a19.41,19.41,0,0,0-2.79,1.83c.72,1.14,1.21,1.6,1.5,1.39a5.12,5.12,0,0,1,2.36-.32c-1.28.43-2,.86-2.14,1.29s-.93.64-2.36.64a1.42,1.42,0,0,1-.75-.11.27.27,0,0,1-.11-.21c0-.07-.11-.14-.32-.22a5.77,5.77,0,0,0-1.39-.1h-2.15a28.09,28.09,0,0,1-4.93-.43q0,1.71-2.25.75a13,13,0,0,0-6.33-.54c-.57,0-1.22-.46-1.93-1.39a8.3,8.3,0,0,1-1.5-3.54,1.17,1.17,0,0,1,.11-1.07,1.22,1.22,0,0,0,.1-1.08.59.59,0,0,1,.43-.85,8.87,8.87,0,0,1,1.61-.33,10,10,0,0,0,1.72-.32,1,1,0,0,0,.75-1.07,24.15,24.15,0,0,1-2.79.21,13.42,13.42,0,0,1-1.82-.1c-.51-.07-.75-.32-.75-.75l.64-4.72q4.5,0,6.33-.21c1.21-.15,2,0,2.25.42a4.91,4.91,0,0,0,2,1.08,9.63,9.63,0,0,0,2.79.42,5.9,5.9,0,0,0,2.36-.42,1.53,1.53,0,0,0,1-1.5h13.08a10.34,10.34,0,0,0,1.61,1c.21.07.32,0,.32-.11v-.53c0-.22.28-.32.86-.32a14.83,14.83,0,0,0,1.93-.43c-.15,0,.21-.07,1.07-.22a1.7,1.7,0,0,1,1.07.22,1.71,1.71,0,0,0,1.07.21,11.84,11.84,0,0,1,1.29.11,11.84,11.84,0,0,0,1.29.11,14.86,14.86,0,0,0,3.53,0c1.08-.15,1.54.28,1.4,1.28a32.61,32.61,0,0,1,.1,4.4c-.07.64-.18,1-.32,1s-.36-.18-.64-.53-.57-.4-.86-.11a1.35,1.35,0,0,0-.43,1.93,10.84,10.84,0,0,0,1.72,2.14v1.18c0,.65,0,1.36-.11,2.15s-.11,1.54-.11,2.25v1.29a4,4,0,0,1-.53,1.5,1.35,1.35,0,0,1-.75.53l-.75.22q-.33.1-.54.75c-.29,1.43-.5,2.75-.64,4a41.17,41.17,0,0,0-.22,4.82c1,.29,1.64,0,1.93-.86s.65-1.85,1.08-3v6.54a10,10,0,0,1-.33,3,3.7,3.7,0,0,1-.85,1.5,9.49,9.49,0,0,0-1.4,2.26,10.68,10.68,0,0,0,1.82,2.68,3.59,3.59,0,0,1,1,3.32q-2.79,2.58-3.11,4a2.42,2.42,0,0,0,.43,2.25,3.87,3.87,0,0,0,1.82,1.18c.72.21,1.07.46,1.07.75q.21,4.29.11,5.79a9.72,9.72,0,0,1-.32,2.14,3.64,3.64,0,0,1-.54,1.08,6.19,6.19,0,0,0-.53,2.36l.64.85a6,6,0,0,1,.64,1.72,13.64,13.64,0,0,0,.43,2.14,3.68,3.68,0,0,1,.22,1.08v4.28a17,17,0,0,1-.43,1.72A5.3,5.3,0,0,1,205,566.2a6.38,6.38,0,0,1,2.36,4.07,52.9,52.9,0,0,1-.21,7.72c2.43,0,4.85-.11,7.29-.32a37,37,0,0,1,7.5.11c.29,0,.5.28.65.85a1.14,1.14,0,0,0,1.28.86,3.82,3.82,0,0,0,1.93-.64l1.08-.86c1.14-.14,2.1-.25,2.89-.32l2.25-.22c.72-.07,1.14-.1,1.29-.1a7.55,7.55,0,0,1,1.93.85,2.56,2.56,0,0,1,1.28,1.51c-.28,2.43-.21,4.07.22,4.93S237.24,586,237,586.14Zm-51.25-6.22a1.34,1.34,0,0,1-.64-.11,1,1,0,0,0-.43-.1.64.64,0,0,1-.43-.22h-.64a8.09,8.09,0,0,1-1.93-.21q-5.37,0-6.86,2.14a15.35,15.35,0,0,1,4.18-.75c1.5-.07,2.82-.11,4-.11a23.51,23.51,0,0,0,2.58-.1Q186.35,580.36,185.7,579.92Zm-4.29-78.06,2.36-1.71h-2.25c-.93,0-1.79,0-2.57.1a9.34,9.34,0,0,0-1.83.32c-.42.15-.42.29,0,.43l1.72.43A20.82,20.82,0,0,0,181.41,501.86Zm26.38-41.6a1.34,1.34,0,0,1-.75.64q-.54.23-.54,1.5v1.08q0,.86.54,1c.35.07.54.25.54.54v5a7.84,7.84,0,0,1-.43,3.11l-.43.43a1.28,1.28,0,0,1-.86.21,4.58,4.58,0,0,1-1.72-.21,1.7,1.7,0,0,1-1.07-.22l-4.07-.21a20.82,20.82,0,0,1-6.33,1.18,8.06,8.06,0,0,1-5.9-2.26c-.42.29-.82.11-1.18-.53s-.39-2.11-.1-4.4a4.71,4.71,0,0,1,.64-2.25c.43-.78.57-1.18.43-1.18-.72.29-1.07-.35-1.07-1.93v-2.14a6.93,6.93,0,0,1,.21-1.83c.14-.5.72-.6,1.72-.32h5.36c.28,0,.5.22.64.64s.36.65.65.65a26.41,26.41,0,0,0,4.71,0c.72-.29,1-.57,1-.86s0-.43.32-.43c.86,0,1.39.18,1.61.54a1,1,0,0,0,1,.53q0,.43,1.08-.21a.62.62,0,0,1,.42-.22,1.73,1.73,0,0,0,.65-.21,2.57,2.57,0,0,1,2.57.43A2.9,2.9,0,0,1,207.79,460.26Zm-13.94,51.47a2.37,2.37,0,0,0-.11-.75,6,6,0,0,0-.32-.76,4.72,4.72,0,0,1-.32-1.5c-.07-.71-.11-1.71-.11-3q-.86-1.92-1.5-1.71a9.74,9.74,0,0,0-1,4.61,4.71,4.71,0,0,0,1,3.11C192.49,512.73,193.28,512.73,193.85,511.73Zm11.37-44.18c0-.43-.4-.35-1.18.22a3.85,3.85,0,0,1-1.61.85c-1.29.86-1.36,1.5-.22,1.93l1.93.22c.72.14,1-.18,1-1A7.64,7.64,0,0,1,205.22,467.55Zm7.07,125.66c0-.71.72-1.07,2.15-1.07a5.87,5.87,0,0,1,1.82.32c.64.22,1,.47,1,.75q0,1.08-.33,1.08h-4.18C212.29,594.29,212.15,593.93,212.29,593.21Zm21-5.57h-.86a3.58,3.58,0,0,0-2.47,0,3.2,3.2,0,0,0-1.39,1.07,1.75,1.75,0,0,0-.32,1.29c.07.43.46.72,1.18.86q1.71.42,2.25,0a10.34,10.34,0,0,0,1.39-1.5,7.77,7.77,0,0,1,1.18-1.29C234.63,587.78,234.31,587.64,233.31,587.64Z"/><path class="cls-1" d="M342,575.42c0,.71-.18,1.11-.54,1.18s-.53.25-.53.53a3.24,3.24,0,0,0,.32,1c.07.07-.18.46-.75,1.18s-1.18.89-1.82.53a5.72,5.72,0,0,1-1.18-.75l-.65,1.29c-.29.86.14,1.28,1.29,1.28-1.29,1.44-2.4,2.58-3.32,3.44a13.38,13.38,0,0,1-4.19,2.35h-.43a15.42,15.42,0,0,1-4.82,3.76,43.21,43.21,0,0,1-5.68,2.68,34.85,34.85,0,0,1-8.47,1.5c-3.65.28-7.4.43-11.26.43a32.29,32.29,0,0,1-9.54-1.72,44.64,44.64,0,0,1-11-5.36,5.56,5.56,0,0,1-2.25-2c-.79-1.07-1.39-2-1.82-2.68a4.13,4.13,0,0,1-.54-1.71c.07-.14-.18-.36-.75-.65.57.29,1,.11,1.29-.53a1.64,1.64,0,0,0,0-1.61,10.37,10.37,0,0,0-1.4.64,2.2,2.2,0,0,1-1.18.22c-.42.14-.71.14-.85,0a5.25,5.25,0,0,0-1.08-.64c-.57-.57-.85-.93-.85-1.08s.1-.21.32-.21h.64c.22,0,.25-.22.11-.64L270,575.63a1.73,1.73,0,0,0-1.29-.75,14.19,14.19,0,0,0-1.72-.11,11.54,11.54,0,0,1-1.6-.1,1.09,1.09,0,0,1-1-.75,3.25,3.25,0,0,1-.43-2,3.25,3.25,0,0,0-.43-2c-.29-.43-.5-.57-.64-.43a3.64,3.64,0,0,0-.43.54,1.25,1.25,0,0,1-.43.43c-.14.07-.29-.11-.43-.54a46.71,46.71,0,0,1-4.5-11.15,39.25,39.25,0,0,1-1.5-7.72c2.71-.43,4.21-.82,4.5-1.18s.11-.71-.53-1.07a16.19,16.19,0,0,0-2.47-1.07c-1-.36-1.5-.76-1.5-1.18a68,68,0,0,1,.32-13.3,101.28,101.28,0,0,1,2.25-10.29c.14-.57.72-.89,1.72-1s2.07-.11,3.21-.11,2.18,0,3.11-.1,1.4-.39,1.4-1-.43-1.14-1.29-1.28a17.35,17.35,0,0,0-2.79-.22,9.15,9.15,0,0,1-2.57-.32c-.72-.21-.86-.89-.43-2a26.59,26.59,0,0,1,2.57-5c1.29-2.07,2.68-4.1,4.19-6.11s3-3.78,4.39-5.36a11.44,11.44,0,0,1,3.22-2.79c1.57-1.14,3.11-2.36,4.61-3.64s4.11-2.5,7.83-3.65c1.28-.43,3.43-1,6.43-1.71a45.3,45.3,0,0,1,11.58-.86q1.93,0,4.5.21c1.72.15,3.36.32,4.93.54a23.83,23.83,0,0,1,4.29,1,15.73,15.73,0,0,1,3,1.29c.43.43.64.75.64,1s.57.68,1.72,1.39c2,.86,3.1,1.07,3.32.64s.61-.5,1.18-.21a36.41,36.41,0,0,1,5.15,4,32.55,32.55,0,0,1,4.28,4.39,4.53,4.53,0,0,0,1.29,1.5,1.67,1.67,0,0,1,.64,1.5,8.68,8.68,0,0,1-.42,2.47c-.29.93-1.22,1.54-2.79,1.82,0-.43-.11-.21-.32.65a2.31,2.31,0,0,1-1.4,1.71,13.44,13.44,0,0,1-1.61,1.4c-.5.35-1,.68-1.39,1l-1.5,1.07c-.72.43-1.25.36-1.61-.21a8.25,8.25,0,0,0-1-1.29,15.81,15.81,0,0,0-1.61-2.36,27.23,27.23,0,0,0-2.9-2.57,7.43,7.43,0,0,0-4.39-1.93c-1.65-.14-2.54-.78-2.68-1.93a18.57,18.57,0,0,0-6-1.72c-2.29-.28-4.86-.57-7.72-.85a17.54,17.54,0,0,0-6.54.85,40.94,40.94,0,0,0-6.22,2.58,35.34,35.34,0,0,0-5,3.11,16.89,16.89,0,0,0-3,2.68,53.82,53.82,0,0,0-10.94,30.45c0,1.14.07,2.65.22,4.5a37.6,37.6,0,0,0,1.07,6.22,55,55,0,0,0,2.36,7.18,36.2,36.2,0,0,0,3.86,7.19c-.29,0-1.18,0-2.68.11s-2.25.25-2.25.53l.21.22c-.14-.14-.21,0-.21.43a2.31,2.31,0,0,0,1.18.32,18.77,18.77,0,0,0,2,.1h2a2,2,0,0,1,1.18.22q5.14,6.87,10.4,9.22a33.49,33.49,0,0,0,11.47,2.79,38.79,38.79,0,0,0,7.62-.43,28.73,28.73,0,0,0,8.47-2.36,29.2,29.2,0,0,0,7.07-4.61,43.63,43.63,0,0,0,6.44-6.76c0-.14.43-.21,1.28-.21a1.73,1.73,0,0,0,1.08.21c.42.43.85.9,1.28,1.4a6.58,6.58,0,0,0,1.29,1.18,5.89,5.89,0,0,0,1.29,1.07l-.43.64c-.29.72-.36,1.08-.22,1.08a1.55,1.55,0,0,0,.65-.11,1.47,1.47,0,0,1,.64-.11h.86l.85,1.07.43.43a4.39,4.39,0,0,0,.86,1C341.74,574.31,341.89,574.7,342,575.42Zm-63.9,8.15c0-1-.29-1.29-.86-.86-.29.29-.43.29-.43,0s-.29-.57-.86-.86c.43-.57.5-.46.22.32s-.43,1-.43.54a5.06,5.06,0,0,0,1,2.46c.5.65.89,1.18,1.18,1.61.29.15.43.08.43-.21a6.79,6.79,0,0,0-.11-1.07l-.21-1.29C277.94,583.78,278,583.57,278.13,583.57Zm3.21-74.63.43-1.93-.86-1.07q-3.65.65-3.64,2.68a3.47,3.47,0,0,0,1.07,2.89c.28.29.68.11,1.18-.53A22.59,22.59,0,0,1,281.34,508.94Zm43.11-4.5a3.49,3.49,0,0,0-2.58-1.51l-1.61.11c-.93.08-1,.47-.32,1.18l2.15.64a3.53,3.53,0,0,0,1.6.43C324.19,505.29,324.45,505,324.45,504.44Z"/><path class="cls-1" d="M432.52,579.28,445,591.07a5.83,5.83,0,0,1,1.07,1.5.71.71,0,0,1-.21.86,3.38,3.38,0,0,1-2.15.43,18.53,18.53,0,0,1-5.25.11,23.36,23.36,0,0,0-5.9.1c-.29-.14-.39-.28-.32-.43a.47.47,0,0,0,0-.43c-.07-.14-.32-.17-.75-.1s-1.29.25-2.57.53h-2c.21,0-.11.15-1,.43a4.08,4.08,0,0,1-3-.86,15.62,15.62,0,0,1-2.79-2.57c-.85-1-1.64-2-2.35-3A17.78,17.78,0,0,0,416,585.5c-.29-.29-.32-.54-.11-.76s.18-.46-.1-.75a1.2,1.2,0,0,0-1.08-.32,1.13,1.13,0,0,1-1.07-.32l-8.79-8.58c-.29-.28-.4-.5-.32-.64l.21-.43a1.3,1.3,0,0,0,0-.75,5.39,5.39,0,0,0-1.18-1.82,1.76,1.76,0,0,0-.64-.22.63.63,0,0,1-.43-.21,2.53,2.53,0,0,1-1.5-1.29c-.72-.43-1.22-.71-1.5-.86l-.86-.42a2.89,2.89,0,0,1-.86-.75c-.29-.36-.78-1-1.5-1.83a1.53,1.53,0,0,0-.64-1.18c-.43-.35-.9-.71-1.4-1.07s-.93-.68-1.28-1a1.13,1.13,0,0,1-.54-.85c-.14-.43.14-.68.86-.75s.57-.61-.43-1.61c-.43-.57-.79-.86-1.07-.86a3.62,3.62,0,0,0-.86.11l-.86.21c-.29.08-.71-.17-1.28-.75a9.46,9.46,0,0,1-1.72-1.5l-2.79-2.79c-1-1-1.93-2-2.78-2.89s-1.44-1.54-1.72-1.82v12.22a82.72,82.72,0,0,0,.43,9.43,18.42,18.42,0,0,0-1.4,3.22,4.86,4.86,0,0,0-.32,3.22q1.08.44,1.5,2.46a28.82,28.82,0,0,1,.33,9.33,16.32,16.32,0,0,1-.75,3.43,1.8,1.8,0,0,1-.86.75,1.86,1.86,0,0,0-.86.75,26,26,0,0,1-2.9-.1c-.5-.07-.93-.14-1.28-.22a2.75,2.75,0,0,0-1.07,0c-.36.08-1,.25-2,.54,0,.71-.61.86-1.82.43a19,19,0,0,0-3.11-.86c0-.43-.18-.64-.54-.64H364a1.67,1.67,0,0,1-1.07-.43,2.14,2.14,0,0,1-.54-1.72v-9.22c.28-.28.14-.86-.43-1.71s-.43-1.43.43-1.72V564.05c-.14-.57.14-.75.86-.54s1.21.11,1.5-.32c1-.57,1-.86,0-.86a5.31,5.31,0,0,1-2.36-.64l.21-10.08c-.28-1.42.14-2,1.29-1.82a4.58,4.58,0,0,0,3.22-.54,3.51,3.51,0,0,0,1.39-.64c.36-.28,0-.43-1-.43l-4.29-.21c-1.15-1.15-1.58-2-1.29-2.47a4.07,4.07,0,0,0,.43-2V535.1a3.84,3.84,0,0,1-.75-2.47,10.72,10.72,0,0,1,.54-2.46,23.44,23.44,0,0,1,1-2.47,5.84,5.84,0,0,0,.54-2.46,19.71,19.71,0,0,0-.54-4.61c-.36-1.51-.61-2.61-.75-3.33a52.41,52.41,0,0,1-.32-7.4c.07-2.21.18-5,.32-8.47q1.5-3,.75-4.29a4.73,4.73,0,0,1-.75-2.36V474a14.25,14.25,0,0,1,0-5,5.77,5.77,0,0,1,1.5-2.68,5.07,5.07,0,0,1,2.25-.75q1.83-.31,2-.75c0-.71-.61-1-1.82-.75a4.44,4.44,0,0,1-2.68-.11,1.58,1.58,0,0,1-1.08-1.6q0-1.19,1.08-.75a18.45,18.45,0,0,0,5.36-1c1.28-.5,3-1.18,5.14-2,0-.57.36-1,1.08-1.28l1.28-.43a33.19,33.19,0,0,0-6,1.93,9.06,9.06,0,0,1-4.08.86c-1.71,0-2.86-.43-3.43-1.29a4.16,4.16,0,0,1-.85-2.14,3.1,3.1,0,0,1,.75-2.15,6.67,6.67,0,0,0,1.18-1.93,18.14,18.14,0,0,0-1.29-2.47,4.83,4.83,0,0,1-.86-2.46,2.59,2.59,0,0,1,1.39-2.47,8.92,8.92,0,0,1,3.22-1,22.17,22.17,0,0,1,3.75-.11c1.29.07,2.29.11,3,.11h5.79a1.25,1.25,0,0,1,1.39,1.28,12.61,12.61,0,0,1-.21,3.11c-.22,1.22-.47,2.47-.75,3.76a8.6,8.6,0,0,0-.22,3.21c-.29.29-.46,1.58-.54,3.86a24.74,24.74,0,0,0,1.18,7.72,8.56,8.56,0,0,0-1.39,3,10.87,10.87,0,0,1-1.82,3.65,4.38,4.38,0,0,0,1.93,1.29,1.46,1.46,0,0,1,1.07,1.28c0,2,0,4.15.11,6.44s.14,4.64.21,7.07.11,4.83.11,7.19a42.52,42.52,0,0,1-.43,6.32,4.84,4.84,0,0,1-1.07,1.93l-.86.86a44.18,44.18,0,0,1,1.5,7.83,70.73,70.73,0,0,1,.43,7.18v2.36c0,.58-.29.83-.86.75l-1.82-.21a3.44,3.44,0,0,0-1.72.21q-.75.33-.75,1.83a5.54,5.54,0,0,0,2.47.53,7.16,7.16,0,0,1,2.68.54c.57.29.68.75.32,1.39a3.37,3.37,0,0,0-.53,1.4c.14-.43,1.1-1.43,2.89-3s3.75-3.32,5.9-5.25,4.21-3.79,6.22-5.58a45.56,45.56,0,0,0,4.07-4,2.61,2.61,0,0,1,1.61-.54,5.26,5.26,0,0,0,1.61-.32c.14-.29.18-.5.1-.65s-.32-.56-.75-1.28l1.4-1.4a7.41,7.41,0,0,1,1.82-1.39c0-.14.61-.21,1.82-.21a6.58,6.58,0,0,0,2.26-.22l3.21-.21c.57,0,.72-.14.43-.43a5.54,5.54,0,0,1-4.07-1.29c-.43-.28-.43-.64,0-1.07a8.73,8.73,0,0,1,1.18-1.61,11.72,11.72,0,0,1,1.07-1c.35-.29.82-.68,1.39-1.18l2.36-2,5.15-4.72a16.49,16.49,0,0,0,2.25-2.25c.64-.78,1.82-1.18,3.54-1.18s3.57,0,5.14.11,3.29.11,5.15.11a54.2,54.2,0,0,1,7.83.32c1.07.21,1.1,1,.11,2.25a4,4,0,0,1-1.94,2.14,2.7,2.7,0,0,0-1.82-.21c-.64.14-1.47.36-2.46.64a8.93,8.93,0,0,0,2.36-1.5c.85-.71,1.28-1.21,1.28-1.5-.29-.29-.86,0-1.71.86a14.08,14.08,0,0,0-1.5.85,4.7,4.7,0,0,1-1.51.65,5.6,5.6,0,0,1-2.46.53c-.5-.07-.83,0-1,.11a.71.71,0,0,0-.1,1c.21.35,1.1.53,2.68.53s2.5-.18,2.78-.53,1-.54,2.15-.54l-2.79,1.93c-.72,0-1.11-.07-1.18-.21a6,6,0,0,0-2.46-.22c-3.87,0-5.58,1.07-5.15,3.22,1.14-.29,2.46-.57,4-.86s2.82-.57,4-.86a3.47,3.47,0,0,1-1.61,1.29,2.63,2.63,0,0,0-1.17.64,5.83,5.83,0,0,1-1.83.22,12,12,0,0,0-2.89.43,5.36,5.36,0,0,0,1.71.53,8.13,8.13,0,0,1,1.93.54,6.08,6.08,0,0,1-3.21,1.07h-3.43c-.29.14-.26.29.1.43s.79.29,1.29.43a10.66,10.66,0,0,0,1.71.32c.65.07,1.11.11,1.4.11-.86.71-1.82,1.46-2.9,2.25a9.6,9.6,0,0,0-2.68,3.11,10.68,10.68,0,0,1-4.5,2.36,15.58,15.58,0,0,0-4.72,1.93c1.57.57,2.39,1,2.47,1.28a.9.9,0,0,1-.32.86l-2.15.64c-.14,1.29-.29,2-.43,2a11.42,11.42,0,0,0-1.28,1.18,2.69,2.69,0,0,1-1.29.65,2.37,2.37,0,0,1-.75-.11c-.22-.07-.5-.14-.86-.22a2.26,2.26,0,0,0-1.39.33c.71,1.14.93,1.89.64,2.25a2.3,2.3,0,0,1-1.29.75,7.49,7.49,0,0,0-1.5.53c-.43.22-.43.68,0,1.4l-7.72,7.72a21.54,21.54,0,0,0-3.32,3,45.25,45.25,0,0,1-3.32,3.22c-.29.14-.22.5.21,1.07a14.63,14.63,0,0,0,1.82,1.93l2.47,2.25c.86.79,1.5,1.39,1.93,1.82.14.15.53.65,1.18,1.5s.75,1.43.32,1.72l1.5.43c.71.72,1,.93.75.64s-.18-.28.11,0q3,3.43,4.72,5L410,557c1.14.72,1.6,1.26,1.39,1.61a2,2,0,0,1-1.39.75,12.68,12.68,0,0,1-3.43,0c0,.29.21.51.64.65l.64.43c1.29.14,2.36.25,3.22.32l2.36.21a2.6,2.6,0,0,1,1.28.32,33.78,33.78,0,0,0,4.19,2.9c1.35.79,2,1.32,1.82,1.61a3.32,3.32,0,0,0,.11,2.57,3.88,3.88,0,0,0,1.5,1.39c.64.36,1.32.72,2,1.08a3,3,0,0,1,1.51,1.82,2.75,2.75,0,0,0,1.17,1,22,22,0,0,1,2.15,1.4,13.53,13.53,0,0,1,2.14,1.93A4.53,4.53,0,0,1,432.52,579.28Zm-64.76-15.44,3.65-.22c2.28-.14,3.25-.35,2.89-.64a9.53,9.53,0,0,0-3.32-.86h-1.5a3.84,3.84,0,0,0-1.72.75C367.33,563.23,367.33,563.55,367.76,563.84Zm10.51-45.68L377,508.94c-.29-1.14-.5-1.47-.64-1a17.83,17.83,0,0,0-.43,2.68,66.08,66.08,0,0,1,0,7.51Q377.41,520.52,378.27,518.16Zm25.3,7.08q1.94-2.15-1.28-.43a53.63,53.63,0,0,1-5.47,4.93,39.65,39.65,0,0,0-3.11,2.47,4.66,4.66,0,0,0-1.4,1.93,10.92,10.92,0,0,0-.32,3.11q2.14-1.93,5.36-5.26C399.5,529.78,401.57,527.52,403.57,525.24Zm34.53,62.18c.43-.28-.15-1.07-1.72-2.35-1.43-1.43-2.5-2-3.21-1.72-.43.29.14,1.07,1.71,2.36S437.38,587.71,438.1,587.42Z"/><path class="cls-1" d="M546,545a6.19,6.19,0,0,1-2.89,3,14.92,14.92,0,0,1-3.65,1.18,15.9,15.9,0,0,1-3.64.21c-1.22-.07-2.11-.11-2.69-.11H508.43a8.68,8.68,0,0,1-4.71-1.71q-2.58-1.71-4.29-2.79a5,5,0,0,0-.75,2.57,4,4,0,0,0,1,1.93h-18a19.52,19.52,0,0,1-3.65-.42c-1.43-.29-2.14-.08-2.14.64a52.63,52.63,0,0,0,1.18,5.9,14.27,14.27,0,0,0,1.61,4.18h-2.26c-1.21,0-1.82.14-1.82.43.29.28.43.39.43.32s.07,0,.22.32a3.32,3.32,0,0,0,2.14.43,3.34,3.34,0,0,1,2.14.43,48.56,48.56,0,0,0,5.69,9.65,28.72,28.72,0,0,0,5.79,5.68,19.89,19.89,0,0,0,5.79,2.9,27.25,27.25,0,0,0,5.68,1.07,33.6,33.6,0,0,0,7.08-.43,25.68,25.68,0,0,0,7.93-2.36,35.6,35.6,0,0,0,6.65-4.72,37.38,37.38,0,0,0,6-6.65q0-.21,1.08-.21a1.69,1.69,0,0,0,1.07.21l2.36,2.58a5.9,5.9,0,0,0,1.28,1.07l-.43.64Q535,572,535.24,572c.14,0,.43-.22.86-.65a.61.61,0,0,0,.21-.43c1.14.72,1.72,1.43,1.72,2.15a1.56,1.56,0,0,1-.29.86,3.79,3.79,0,0,1,.07,1.92,7.79,7.79,0,0,1-1.28,1.51.35.35,0,0,1-.22.32,1.16,1.16,0,0,0-.43.53l-.43.86-.42,1.29c-.29.86,0,1.28.85,1.28a40.41,40.41,0,0,1-3,3.44,12,12,0,0,1-3.86,2.35h-.43a12.25,12.25,0,0,1-4.39,3.65c-2.08,1.15-3.9,2.07-5.47,2.79a30.11,30.11,0,0,1-7.83,1.5c-3.36.28-6.9.43-10.61.43,0-.43-.58-1.22-1.72-2.36l-5.15,1.29a2.51,2.51,0,0,0-1.5-.75c-.57-.08-1.28-.22-2.14-.43a15.43,15.43,0,0,1-3-1.18,17.68,17.68,0,0,1-3.86-2.79q1.71-2.58,3.21-1.39a13.41,13.41,0,0,0,4.29,2c.43.72,1.21,1,2.36.75a8.11,8.11,0,0,1,3.43.11,3.86,3.86,0,0,0-2.47-1.18,3.77,3.77,0,0,1-2.46-1.18l-1.93-1.29-3-1.5q-.44,0-.33-.42a3.17,3.17,0,0,0,.11-.86.75.75,0,0,0-.32-.65,2.87,2.87,0,0,0-1.61,0,2.6,2.6,0,0,1-2.36-.85,2.23,2.23,0,0,1-.85-1.08c.14.72.32,1.54.53,2.47a2.45,2.45,0,0,0,2,1.82c-.72.86-1.15,1.22-1.29,1.07s-.43.08-.86.65l-4.07-2.15a23.71,23.71,0,0,1-3.65-3.53q-1.71-2-3.21-4a37.07,37.07,0,0,1-2.36-3.33,14.29,14.29,0,0,0-1.07-1.6,26.7,26.7,0,0,1-3.33-6,69.74,69.74,0,0,1-2.36-6.75q-1-3.33-1.5-6a21.93,21.93,0,0,1-.53-3.75,8.07,8.07,0,0,0,2.57-2,1.07,1.07,0,0,0,0-1.28,2.36,2.36,0,0,0-1.29-.76,6.55,6.55,0,0,1-1.28-.42,67.7,67.7,0,0,1,.21-9.33A85.23,85.23,0,0,1,461,527a80.8,80.8,0,0,1,2.79-10.08,52,52,0,0,1,4.07-9q-.21.42.54.42a16.11,16.11,0,0,0,1.72-.1,5.13,5.13,0,0,0,1.93-.65,2.37,2.37,0,0,0,1.18-1.17,1.75,1.75,0,0,0-1.29-.43,4.56,4.56,0,0,1-1.5-.22c-.43-.14-.65-.32-.65-.53s.43-.68,1.29-1.4a12.29,12.29,0,0,0,3.32-3.86,7,7,0,0,1,2.9-3q2.36-1.71,4.29-3.32c1.29-1.08,3.64-2.18,7.08-3.33q1.71-.64,5.89-1.71a39.58,39.58,0,0,1,10.83-.86,28.62,28.62,0,0,1,8.58,1.5c3.14,1,5.29,2,6.43,3a1,1,0,0,1,.11,1.4c-.36.5,0,1.1,1.18,1.82a11.06,11.06,0,0,0,2.14.75,1.32,1.32,0,0,0,1-.11,4.39,4.39,0,0,1,.54-.32c.14-.07.35,0,.64.11a61.06,61.06,0,0,1,5,4.61,32,32,0,0,1,4.18,4.82q.64,1.08,1.5.75c.57-.21.86,0,.86.75a3.21,3.21,0,0,0,.43,1.29,18.52,18.52,0,0,0,1,1.72,4.35,4.35,0,0,1,.65,1.6.78.78,0,0,1-.54,1q1.5,3.43,2.36,5.58a40.15,40.15,0,0,1,1.39,4.07,4.74,4.74,0,0,1,.32,2.36c0,.29,0,.75.11,1.39s.14,1.33.22,2a15.82,15.82,0,0,0,.32,2c.14.64.35,1,.64,1.18a1.53,1.53,0,0,1,.86,1.5c0,.71-.36.93-1.07.64a11.16,11.16,0,0,0-5.37,1.93,30.22,30.22,0,0,1-5.14,2.79,1.71,1.71,0,0,0,.43,1.28.58.58,0,0,0,.43.22c2.19-.57,3.66-1.47,4.43-2.68a3.49,3.49,0,0,1,3.07-1.82,3.19,3.19,0,0,1,2.9,1.18,3.84,3.84,0,0,1,.75,1.82,3,3,0,0,1-.65,2,8,8,0,0,0-1.07,1.6,4.3,4.3,0,0,0,1.4,1.83C546.07,543.86,546.25,544.4,546,545Zm-16.3-20.15c-.57-.72-1.14-.79-1.71-.22s-1,.51-1.29-.21a13.52,13.52,0,0,1-1-4.4,4.12,4.12,0,0,0-1.18-3.11,3.76,3.76,0,0,1-1-2.36c.07-.57-.61-1.5-2-2.78a17.07,17.07,0,0,0-3.85-2.9c-1.44-.78-2.15-1.75-2.15-2.89-1.72-.86-3.5-1.65-5.36-2.36a26.83,26.83,0,0,0-6.86-1.5,15.37,15.37,0,0,0-6.11.85,35.5,35.5,0,0,0-5.79,2.58,29.93,29.93,0,0,0-4.72,3.21c-1.36,1.15-2.33,2-2.9,2.58a29.86,29.86,0,0,0-2.89,4.61,49.8,49.8,0,0,0-2.47,5.57,43.73,43.73,0,0,0-1.71,5.79,23,23,0,0,0-.65,4.83q.21,1.71,2.58,1.71a9.89,9.89,0,0,0,3.43-.43,38.24,38.24,0,0,1,6.86-.21q3.21.21,7.51.21h4.18c2.07,0,4.29,0,6.64-.1s4.58-.11,6.65-.11h4.18a21.79,21.79,0,0,1,5.69.54c1.21.36,2.25-.18,3.11-1.61a.49.49,0,0,1,.53-.11,1,1,0,0,0,.65,0c.21-.07.35-.35.42-.86a5.75,5.75,0,0,0-.53-2.46,3.64,3.64,0,0,0,.64-1.61A6.2,6.2,0,0,1,529.66,524.81Zm-34.52-23.59,3.86-.65-3.22-.85a22.61,22.61,0,0,0-6,1.93q-2.58,1.28-1.5,2.36c.28.28,1.1-.11,2.46-1.18A6.91,6.91,0,0,1,495.14,501.22Zm3.86-12c-1.29.29-2.79.57-4.5.86a11.59,11.59,0,0,0-4.29,1.5q-1.08,0-.54.75a1.85,1.85,0,0,0,1.61.75,20.87,20.87,0,0,1,3.86-2,31,31,0,0,1,3.43-1,8.7,8.7,0,0,0,2.79-.65c.57-.14.75-.28.53-.42A7.24,7.24,0,0,0,499,489.21Zm13.51,47c-1.72,0-4.43,0-8.15.11s-6.86.25-9.44.54c-1,.14-1.6.39-1.82.75s.18.61,1.18.75a35.48,35.48,0,0,1,7,.21q2.69.44,4.5.54a10.15,10.15,0,0,0,3.33-.32A8.27,8.27,0,0,0,512.51,536.17Zm14.15.65-3,.21c-1.86.14-2.65.36-2.36.64a6.65,6.65,0,0,0,2.79.86l1.29-.21a3.59,3.59,0,0,0,1.39-.65C527.12,537.39,527.09,537.1,526.66,536.82Zm11.8,40.31a9.55,9.55,0,0,1,.21,1,7.18,7.18,0,0,1-.64,1.18c-.78,1-1.42,1.43-1.93,1.28-.29-.28.16-1.14,1.35-2.57C538,577.28,538.31,577,538.46,577.13Z"/><path class="cls-1" d="M651.89,574.77a9.38,9.38,0,0,0-.42,1.18.31.31,0,0,1-.11.22l-.75.75a24.53,24.53,0,0,0-2.15,2.79,3.72,3.72,0,0,1-2.25,1.71,30.68,30.68,0,0,0-4.18,1.29c-.72.57-.86,1.18-.43,1.82a2.63,2.63,0,0,1,.43,2,12.41,12.41,0,0,0-3.43,2.68,5.44,5.44,0,0,1-4.08,1.82H633c-.14,0-.21,0-.21-.11s0-.1-.11-.1h-1.39c.14-1.43.25-2.58.32-3.44a8.13,8.13,0,0,0-1-3.64l-.43.64a6.68,6.68,0,0,0-.43,1.93,10.25,10.25,0,0,1-3-.64,13.4,13.4,0,0,0-4.28-.64,5.59,5.59,0,0,0-1.83.21,2.44,2.44,0,0,0-.86.54,6.24,6.24,0,0,1-.75.64,4.27,4.27,0,0,1-1.71.54,19.34,19.34,0,0,1-4.18.32,12.51,12.51,0,0,1-2.68-.43,8.79,8.79,0,0,1-1.83-.75,14.31,14.31,0,0,0-1.82-.86c.29,1,.61,1.54,1,1.61a23.34,23.34,0,0,1,3.53,1.82,17.92,17.92,0,0,0,5.26.11c2.07-.22,3.54-.32,4.39-.32a3.8,3.8,0,0,1,1.61.64,3.67,3.67,0,0,0,1.61.64c1.14.15,1.75.47,1.82,1a1.92,1.92,0,0,1-.32,1.39c-.71.43-1.75,1-3.11,1.72a6.62,6.62,0,0,1-4.39.64q-2.37,0-4.83-.21a9.67,9.67,0,0,1-4.82-1.93l-.86.85c-.14,0-.57,0-1.29-.1a17.28,17.28,0,0,1-2.36-.43c-.85-.22-1.64-.43-2.36-.64a3.84,3.84,0,0,1-1.5-.75c-3.14-1.58-6-3.11-8.57-4.62a16.84,16.84,0,0,1-6.44-7.61c-1.14-2.28-2.07-4-2.78-5.14a15.31,15.31,0,0,1-1.61-3.33,21.49,21.49,0,0,1-.86-4q-.33-2.36-.75-7.29v-1.82c0-1.07,0-2.25-.11-3.54s-.11-2.5-.11-3.64V548.4c.86.28,1-.15.43-1.29a6.61,6.61,0,0,1-.86-2.57.85.85,0,0,0,.22-.65,1.44,1.44,0,0,0-.43-1.07l1.72-9.22,3.43-.64a.84.84,0,0,0-.65-.86c-.42-.14-.89-.29-1.39-.43s-1-.29-1.39-.43a.6.6,0,0,1-.43-.86V525c0-1.57,0-3.07.1-4.5s.11-2.64.11-3.65c-.15,0-.25-.46-.33-1.39s-.14-2-.22-3.22-.1-2.82-.1-4.82a1.58,1.58,0,0,1,.1-.65,3.16,3.16,0,0,1,1.19-.64l.43-.43c.14-.14,0-.35-.43-.64h-1.73l-13.92.43a1.36,1.36,0,0,0-.75-1.4c-.5-.21-.68-.67-.54-1.39a1,1,0,0,1-.75.43c-.5,0-.75-.72-.75-2.15l.43-8.79a4.94,4.94,0,0,1,1.72-3.11q1.27-1,5.57-.53c.29,0,.72.35,1.29,1.07a2.43,2.43,0,0,0,1.93,1.07,1.89,1.89,0,0,0,1.29,1.07,5,5,0,0,0,1.28.65,2.59,2.59,0,0,0,1.72-.22c.28-.43.39-.68.32-.75a2.36,2.36,0,0,0-.54-.32c-.28-.14-.61-.32-1-.54a2.21,2.21,0,0,1-.75-1.6,8.68,8.68,0,0,1,2.68-.54c1.07-.07,1.75-.11,2-.11q1.71,0,0-1.29.21-1.92.21-2.25c0-.21,0-.24-.11-.1a.92.92,0,0,0-.1.42c0,.15.14-.07.42-.64a8.69,8.69,0,0,0-.1-3c-.22-1.29-.68-1.93-1.4-1.93s-1.1-1.18-1.18-3.54a24.91,24.91,0,0,1,.54-6.33c0-.14,0-.71.11-1.71s.1-1.86.1-2.57.57-1.58,1.72-2.58,1.64-1.5,1.5-1.5h-1.71a5.7,5.7,0,0,1-1.72-.21l.86-1.93c0-.72.31-1,.95-1a13,13,0,0,0,1.59.11,15.32,15.32,0,0,1,4.77.43c.63.29,1,.53,1,.75s.07.29.21.21l2.54-1.18a24.6,24.6,0,0,0,3.29-.1,8.61,8.61,0,0,1,2.65.75q.84.44.63,4.5c0-.14-.11.21-.32,1.07a16.8,16.8,0,0,1-.75,2.36c.29,1.29.5,1.93.64,1.93s.22.36.22,1.07.28,1,.43,1,.07.46-.22,1.61a14.48,14.48,0,0,1-.64,6.64,16.61,16.61,0,0,0-1.07,5.58,4.94,4.94,0,0,0,.28,2,4.58,4.58,0,0,0,.56.86,2.81,2.81,0,0,1,.47.75,4.22,4.22,0,0,1,.19,1.5,14.82,14.82,0,0,1,2.65,1.07l2.42,1a18.32,18.32,0,0,1,2.43,1.18,33,33,0,0,0-4.61-.1,6.13,6.13,0,0,0-3.75,1.18,9.22,9.22,0,0,1,1.72,2.35c.42.86,1.5,1.29,3.21,1.29.86,0,1.29-.14,1.29-.43a2,2,0,0,0-.32-1,1.27,1.27,0,0,1-.22-1c.07-.28.54-.43,1.4-.43a7.61,7.61,0,0,1,4,.86c.93.57,2.11,1.22,3.54,1.93.57.43,1.29.36,2.15-.21s.93-1.22.21-1.93a18.87,18.87,0,0,1-4.4-3.22,7.62,7.62,0,0,0-5.46-2.14,5.15,5.15,0,0,1,3.75-1.18,24.54,24.54,0,0,1,4.82.75q2.58.65,5,1.39a14.87,14.87,0,0,0,4.19.75c.85,0,1.39-.14,1.6-.43a2.21,2.21,0,0,0,.43-1,2.43,2.43,0,0,1,.43-1c.22-.28.75-.43,1.61-.43,1.86,0,2.86.29,3,.86a4.43,4.43,0,0,0,1.29,1.93c1.72-1.43,2.57-2.86,2.57-4.29a18.82,18.82,0,0,1,4.61,2.25,6.7,6.7,0,0,1,2.25,2.58,9,9,0,0,1,.75,3.32c.08,1.29.11,2.72.11,4.29,0,1.15,0,2.33-.11,3.54s-1.46,1.82-4.18,1.82h-3.43c-1.57,0-3.14-.07-4.72-.21-1.85-.14-3.86-.29-6-.43-.14,0-.25-.46-.32-1.4s-.25-1.39-.54-1.39a1.44,1.44,0,0,0-1,.54c-.36.36-.79.75-1.29,1.18a8,8,0,0,1-1.61,1.07,1.79,1.79,0,0,1-1.71,0,32.51,32.51,0,0,1-3.54.32c-1.5.07-3.08.11-4.72.11s-3.29,0-4.93-.11-3-.11-4.18-.11c-.43-.28-.72.18-.86,1.4a38.82,38.82,0,0,0-.22,4.39c0,1.72,0,3.51.11,5.36s.18,3.36.32,4.51a18.67,18.67,0,0,0-.43,3.21,11.55,11.55,0,0,0,.33,2.68,2.34,2.34,0,0,0,1.39,1.83,12.28,12.28,0,0,1-3.22-.65,2.31,2.31,0,0,0-2.36.65,6.68,6.68,0,0,1,1.61,3.11c.36,1.36,1.4,2,3.11,2,.86,0,1.11.51.75,1.51s-.78,2.14-1.28,3.43a34.55,34.55,0,0,0-1.18,3.43c-.29,1,0,1.5.85,1.5-.14,0-.18.29-.1.86s.14,1.21.21,1.93.14,1.36.22,1.93,0,.85-.11.85a7.41,7.41,0,0,1,.43,2.68c0,1.08,0,2.19-.11,3.33s-.11,2.22-.11,3.22a4,4,0,0,0,.43,2.14c.72.29,1,1,.86,2.25a11.91,11.91,0,0,1-.64,2.9,1.74,1.74,0,0,1,1.07.21c.86.29,1.21.43,1.07.43.72,2.57,1.89,4.33,3.54,5.25s2.61,1.33,2.89,1.18c.86-.57,1.51-.71,1.93-.43a9.28,9.28,0,0,0,1.08.65,1,1,0,0,1,.32,1,1,1,0,0,0,.32,1,23.14,23.14,0,0,0,10.83,2,25.28,25.28,0,0,0,10.62-3.1,4.28,4.28,0,0,1,2-.75,4.47,4.47,0,0,0,2-.76c.28-.14.07-.28-.64-.42s-.94-.29-.65-.43a17.77,17.77,0,0,1,2.47-2.47,6.3,6.3,0,0,0,1.39-1.39c.72-1.15,1.29-2,1.72-2.58s1.21-.71,2.36-.43a18.43,18.43,0,0,1,5.14,3,19.47,19.47,0,0,0,3.86,2.78,5,5,0,0,1,1.5,2.36A4.18,4.18,0,0,1,651.89,574.77ZM572.12,493.5a8.67,8.67,0,0,0-2-2.15,3.66,3.66,0,0,0-1.82-.43c.57,1.15,1.18,1.79,1.82,1.93A13.63,13.63,0,0,1,572.12,493.5Zm11.37-6.44c0-1.14-.22-1.71-.65-1.71s-.85.86-.85,2.57c0,1.15.28,1.72.85,1.72S583.49,488.78,583.49,487.06Zm3,18c0-.43-.43-.79-1.29-1.07a6.91,6.91,0,0,0-1.71-.43q-1.29,0-1.29,1.5c0,.43.22.57.64.43a3.68,3.68,0,0,1,1.08-.22,9.75,9.75,0,0,1,1.5.22C586.13,505.65,586.49,505.51,586.49,505.08Zm8.36-34.53c-.29-.14-.57.25-.85,1.18s-.58,2-.86,3.11-.58,2.29-.86,3.43a8.23,8.23,0,0,1-.86,2.36q-3.21,1.08-1.07,1.93h.32a3.82,3.82,0,0,0,1.18-.21,5.18,5.18,0,0,0,1.39-.75,3.52,3.52,0,0,0,1.18-1.83c0-.14.07-.67.22-1.6s.25-1.93.32-3,.11-2,.11-2.89A4.52,4.52,0,0,0,594.85,470.55Zm3,103.15a4.2,4.2,0,0,0-.53-1.71c-.36-.72-.79-1.51-1.29-2.36a20.6,20.6,0,0,1-1.28-2.58,6.1,6.1,0,0,1-.54-2.36c-.72,0-1.11.26-1.18.75a8.51,8.51,0,0,0,.75,3.11,36.86,36.86,0,0,0,2,3.65C596.46,573.2,597.14,573.7,597.85,573.7Zm47.61-2.57-3.22-3.86c-.71-.57-1.32-.75-1.82-.54a2.69,2.69,0,0,0-1.18,1,8.37,8.37,0,0,0-.86,1.93,9.06,9.06,0,0,1,3,.75A11.1,11.1,0,0,0,645.46,571.13Z"/><path class="cls-2" d="M882.07,545a6.25,6.25,0,0,1-2.9,3,14.72,14.72,0,0,1-3.64,1.18,16,16,0,0,1-3.65.21c-1.22-.07-2.11-.11-2.68-.11H844.54a8.74,8.74,0,0,1-4.72-1.71c-1.71-1.14-3.15-2.07-4.29-2.79a5.15,5.15,0,0,0-.75,2.57,3.93,3.93,0,0,0,1,1.93h-18a19.34,19.34,0,0,1-3.64-.42c-1.43-.29-2.15-.08-2.15.64a55,55,0,0,0,1.18,5.9,14.56,14.56,0,0,0,1.61,4.18h-2.25c-1.22,0-1.82.14-1.82.43.28.28.42.39.42.32s.08,0,.22.32a3.34,3.34,0,0,0,2.14.43,3.38,3.38,0,0,1,2.15.43,48.57,48.57,0,0,0,5.68,9.65,28.72,28.72,0,0,0,5.79,5.68,19.89,19.89,0,0,0,5.79,2.9,27.25,27.25,0,0,0,5.68,1.07,33.57,33.57,0,0,0,7.08-.43,25.6,25.6,0,0,0,7.93-2.36,35.28,35.28,0,0,0,6.65-4.72,37.44,37.44,0,0,0,6-6.65c0-.14.35-.21,1.07-.21a1.71,1.71,0,0,0,1.07.21l2.36,2.58a5.89,5.89,0,0,0,1.29,1.07l-.43.64c-.29.72-.36,1.08-.22,1.08s.43-.22.86-.65a.62.62,0,0,0,.22-.43c1.14.72,1.71,1.43,1.71,2.15a1.62,1.62,0,0,1-.28.86,3.91,3.91,0,0,1,.07,1.92,8.4,8.4,0,0,1-1.29,1.51.34.34,0,0,1-.21.32,1.1,1.1,0,0,0-.43.53l-.43.86-.43,1.29c-.29.86,0,1.28.86,1.28a44.31,44.31,0,0,1-3,3.44,12.09,12.09,0,0,1-3.86,2.35h-.43a12.29,12.29,0,0,1-4.4,3.65c-2.07,1.15-3.9,2.07-5.47,2.79a30.11,30.11,0,0,1-7.83,1.5c-3.36.28-6.89.43-10.61.43,0-.43-.57-1.22-1.72-2.36l-5.14,1.29A2.51,2.51,0,0,0,828,594a21.87,21.87,0,0,1-2.15-.43,15.43,15.43,0,0,1-3-1.18,17.92,17.92,0,0,1-3.86-2.79q1.71-2.58,3.22-1.39a13.41,13.41,0,0,0,4.29,2c.42.72,1.21,1,2.35.75a8.15,8.15,0,0,1,3.44.11,3.86,3.86,0,0,0-2.47-1.18,3.81,3.81,0,0,1-2.47-1.18l-1.93-1.29-3-1.5c-.29,0-.39-.14-.32-.42a3.62,3.62,0,0,0,.11-.86.75.75,0,0,0-.32-.65,2.88,2.88,0,0,0-1.61,0,2.6,2.6,0,0,1-2.36-.85,2.29,2.29,0,0,1-.86-1.08c.14.72.32,1.54.54,2.47a2.44,2.44,0,0,0,2,1.82c-.71.86-1.14,1.22-1.28,1.07s-.43.08-.86.65l-4.08-2.15a23.66,23.66,0,0,1-3.64-3.53q-1.72-2-3.22-4a37.07,37.07,0,0,1-2.36-3.33,14.29,14.29,0,0,0-1.07-1.6,26.29,26.29,0,0,1-3.32-6,67.15,67.15,0,0,1-2.36-6.75c-.64-2.22-1.15-4.22-1.5-6a22.25,22.25,0,0,1-.54-3.75,7.83,7.83,0,0,0,2.57-2,1,1,0,0,0,0-1.28,2.3,2.3,0,0,0-1.28-.76,6.69,6.69,0,0,1-1.29-.42,69.4,69.4,0,0,1,.22-9.33,83.25,83.25,0,0,1,1.5-10.19,80.76,80.76,0,0,1,2.78-10.08,52,52,0,0,1,4.08-9c-.15.28,0,.42.53.42a16,16,0,0,0,1.72-.1,5.08,5.08,0,0,0,1.93-.65,2.33,2.33,0,0,0,1.18-1.17,1.75,1.75,0,0,0-1.29-.43,4.56,4.56,0,0,1-1.5-.22c-.43-.14-.64-.32-.64-.53s.43-.68,1.29-1.4a12.29,12.29,0,0,0,3.32-3.86,7,7,0,0,1,2.89-3q2.37-1.71,4.29-3.32c1.29-1.08,3.65-2.18,7.08-3.33q1.71-.64,5.9-1.71a39.54,39.54,0,0,1,10.83-.86,28.51,28.51,0,0,1,8.57,1.5c3.15,1,5.29,2,6.44,3a1,1,0,0,1,.1,1.4c-.35.5,0,1.1,1.18,1.82a10.86,10.86,0,0,0,2.15.75,1.3,1.3,0,0,0,1-.11c.22-.14.4-.25.54-.32s.35,0,.64.11a58,58,0,0,1,5,4.61,31.39,31.39,0,0,1,4.18,4.82q.64,1.08,1.5.75c.58-.21.86,0,.86.75a3.21,3.21,0,0,0,.43,1.29c.29.57.61,1.15,1,1.72a4.32,4.32,0,0,1,.64,1.6.78.78,0,0,1-.54,1q1.5,3.43,2.36,5.58A40.33,40.33,0,0,1,879,522a4.87,4.87,0,0,1,.32,2.36,12,12,0,0,0,.11,1.39q.11,1,.21,2a17.77,17.77,0,0,0,.32,2c.14.64.36,1,.65,1.18a1.54,1.54,0,0,1,.85,1.5c0,.71-.36.93-1.07.64A11.12,11.12,0,0,0,875,535.1a30.3,30.3,0,0,1-5.15,2.79,1.71,1.71,0,0,0,.43,1.28.6.6,0,0,0,.43.22c2.19-.57,3.67-1.47,4.43-2.68a3.5,3.5,0,0,1,3.08-1.82,3.17,3.17,0,0,1,2.89,1.18,3.84,3.84,0,0,1,.75,1.82,3,3,0,0,1-.64,2,7.58,7.58,0,0,0-1.07,1.6,4.27,4.27,0,0,0,1.39,1.83C882.17,543.86,882.35,544.4,882.07,545Zm-16.3-20.15c-.57-.72-1.15-.79-1.72-.22s-1,.51-1.28-.21a13.28,13.28,0,0,1-1-4.4,4.05,4.05,0,0,0-1.18-3.11,3.73,3.73,0,0,1-1-2.36c.07-.57-.61-1.5-2-2.78a17.12,17.12,0,0,0-3.86-2.9c-1.43-.78-2.14-1.75-2.14-2.89q-2.58-1.29-5.37-2.36a26.74,26.74,0,0,0-6.86-1.5,15.39,15.39,0,0,0-6.11.85,36.28,36.28,0,0,0-5.79,2.58,30.4,30.4,0,0,0-4.72,3.21c-1.36,1.15-2.32,2-2.89,2.58a29.86,29.86,0,0,0-2.9,4.61,48,48,0,0,0-2.46,5.57,43.79,43.79,0,0,0-1.72,5.79,22.93,22.93,0,0,0-.64,4.83c.14,1.14,1,1.71,2.57,1.71a9.85,9.85,0,0,0,3.43-.43,38.24,38.24,0,0,1,6.86-.21q3.22.21,7.51.21h4.18q3.1,0,6.65-.1c2.36-.07,4.57-.11,6.65-.11h4.18a21.7,21.7,0,0,1,5.68.54c1.21.36,2.25-.18,3.11-1.61a.5.5,0,0,1,.54-.11,1,1,0,0,0,.64,0c.22-.07.36-.35.43-.86a5.81,5.81,0,0,0-.54-2.46,3.69,3.69,0,0,0,.65-1.61A6,6,0,0,1,865.77,524.81Zm-34.53-23.59,3.86-.65-3.21-.85a22.81,22.81,0,0,0-6,1.93c-1.71.85-2.22,1.64-1.5,2.36.29.28,1.11-.11,2.47-1.18A6.89,6.89,0,0,1,831.24,501.22Zm3.86-12c-1.28.29-2.78.57-4.5.86a11.59,11.59,0,0,0-4.29,1.5c-.72,0-.89.25-.54.75a1.86,1.86,0,0,0,1.61.75,20.87,20.87,0,0,1,3.86-2,31.67,31.67,0,0,1,3.43-1,8.63,8.63,0,0,0,2.79-.65q.85-.21.54-.42A7.29,7.29,0,0,0,835.1,489.21Zm13.51,47q-2.57,0-8.15.11c-3.71.07-6.86.25-9.43.54-1,.14-1.61.39-1.82.75s.17.61,1.18.75a35.37,35.37,0,0,1,7,.21,45.24,45.24,0,0,0,4.51.54,10.12,10.12,0,0,0,3.32-.32A8.21,8.21,0,0,0,848.61,536.17Zm14.16.65-3,.21c-1.86.14-2.64.36-2.35.64a6.59,6.59,0,0,0,2.78.86l1.29-.21a3.52,3.52,0,0,0,1.39-.65C863.23,537.39,863.2,537.1,862.77,536.82Zm11.79,40.31c.14.58.22.9.22,1a7.82,7.82,0,0,1-.65,1.18c-.77,1-1.42,1.43-1.93,1.28-.29-.28.17-1.14,1.35-2.57C874.08,577.28,874.42,577,874.56,577.13Z"/><path class="cls-2" d="M978.78,488.57h8.79c.86,0,1.36.28,1.5.85a4,4,0,0,1-.11,2,26.48,26.48,0,0,1-.85,2.57,24.41,24.41,0,0,1-1,2.26q-2.57,6.85-6,16t-7.72,19.41a3.24,3.24,0,0,0-.43,1.82c0,.79-.65,1.26-1.93,1.4s-2.29.78-2.58,1.5-.57,1.5-.85,2.36a3.32,3.32,0,0,1,0,1.71c-.15.86-.29,1.65-.43,2.36a9.16,9.16,0,0,0-2.15,2.9q-1.06,2,0,2.25c.72-2.43,1.43-3.57,2.15-3.43s.93.57.64,1.28q-1.5,4.29-3.45,9.22t-4.33,9.87a2.41,2.41,0,0,1-.86.86,2.35,2.35,0,0,0-.87.85,1.42,1.42,0,0,0-.22,1.29,1.45,1.45,0,0,1-.21,1.29c-.87,1.71-1.74,3.36-2.61,4.93a31.1,31.1,0,0,1-3,4.5q0-.86-4.77.65a7.17,7.17,0,0,0,2.81.85c1.16.15,1.67.72,1.53,1.72a3,3,0,0,1-1.63,1.39,6.11,6.11,0,0,1-2,.33h-1.62a.57.57,0,0,0-.65.64c.3,1,1,1.32,2.24,1a10.87,10.87,0,0,1,2.9-.53l-2.49,6.65.22-.43a35.2,35.2,0,0,0-1.47,4.71,11.09,11.09,0,0,0-.12,1.51c0-.58-.17-.4-.52.53a14.37,14.37,0,0,1-1.36,2.68c-.14,0-.28.29-.42.86a14,14,0,0,0-.32,1.82,10.64,10.64,0,0,1-.31,1.72q-.21.75-.42.75-1.89,0-1.89.75a2.67,2.67,0,0,0,.52,1.5,5,5,0,0,1,.74,1.5q.21.75-1,.75a54.16,54.16,0,0,0-2.2,5.15q-.94,2.56-1.79,4.5a4.7,4.7,0,0,1-.73,1.4,11,11,0,0,0-1.16,1.82,1.15,1.15,0,0,0,0,1,2.29,2.29,0,0,1-.2,1.61c-.43.86-.88,1.86-1.37,3s-.94,2.29-1.36,3.44c-.7,1.28-1.16,2.07-1.36,2.35a9.39,9.39,0,0,1-2,1.5l-2.95,1.08-.65-.43-.64-.65-1.07.65-1.72.43H916c-1.86,0-3-.32-3.44-1s-.28-1.82.43-3.54a37.2,37.2,0,0,1,3.22-6.21q2.15-3.43,3-5.15,2.15-5.37,3.65-8.69c1-2.21,1.93-4.36,2.79-6.43s1.74-4.43,2.66-7.08,2.14-6.11,3.68-10.4a5,5,0,0,0,.31-2.89,4.88,4.88,0,0,0-.83-1.61,4.58,4.58,0,0,1-.74-1.18c-.14-.35.14-.89.84-1.61a7.17,7.17,0,0,0-1.47-1.5c-.7-.57-.7-.86,0-.86a3.66,3.66,0,0,1,2.94-.1,3.11,3.11,0,0,0,2.94-.33c.41-.14.45-.28.1-.42a8.73,8.73,0,0,0-1.47-.43l-2.83-.65A2.53,2.53,0,0,1,929,576c-.7-.78-1-.89-1-.32l-12.17-29-1.74-6.22c-1.45-.57-2.14-1-2.07-1.18a1.59,1.59,0,0,0-.11-1c-.72-1.86-.72-2.93,0-3.22l-4.07-6.86-15-35.6a12.9,12.9,0,0,1-1-3.22c-.07-.71.82-.92,2.68-.64h6a2.25,2.25,0,0,0,1.28-.21,10,10,0,0,1,1.4.43q.52.21,1,.42a9.23,9.23,0,0,0,2.36.86c.14,0,.18-.28.11-.86s.32-.85,1.18-.85a8.63,8.63,0,0,1,3.43.85l2,.86a2.78,2.78,0,0,0,.29,1.07,2.82,2.82,0,0,1,.29,1.08,14.5,14.5,0,0,0,.67,3.11,6.18,6.18,0,0,1,.45.75q1.79,6,3.8,11t2.24,5c.15,0-.07-.07-.67-.21s-.89-.15-.89,0a8.72,8.72,0,0,0,1.22,1.5c.67.71,1,1.21,1,1.5a10.47,10.47,0,0,0,1.46,3.21,20.59,20.59,0,0,1,2.08,5.15,3.28,3.28,0,0,1,1.39,2.36c.22,1.15,0,1.71-.75,1.71-.72-.42-1.15-.6-1.29-.53s-.18.29-.1.64a5.07,5.07,0,0,1,.1,1,.38.38,0,0,1-.43.43,3.89,3.89,0,0,1,2.08.64,5.72,5.72,0,0,1,1.65,1.5l1.24,1.29a4.28,4.28,0,0,1,1,1.5c.14.29,0,.43-.33.43s-.46.14-.31.43q1.26,3.65,2.52,6.54t2.5,6.54l1.67,4.72c-.28-.29-.42.07-.42,1.07a8.59,8.59,0,0,0,1,3.64q.4-.21,1.05.54a8.45,8.45,0,0,1,1.06,1.61c.14.43.39,1.14.75,2.14a15.14,15.14,0,0,1,.75,3,3.88,3.88,0,0,1-.32,2.47q-.54,1-2.25.54c.43,1.14,1.15,1.5,2.16,1.07s1.58-.43,1.73,0q1.08-4.08,2.8-9.44t3.68-10.72q2.37-6.21,4-9.65c1.08-2.28,1.77-3.79,2.05-4.5a39.8,39.8,0,0,0,1.41-4.72,12.6,12.6,0,0,0,.11-1.5c0,.57.17.36.54-.65a9.15,9.15,0,0,1,1.4-2.57c.14,0,.29-.25.43-.75a11.81,11.81,0,0,0,.33-1.71,14.21,14.21,0,0,1,.32-1.83c.14-.57.29-.85.43-.85,1.16,0,1.73-.25,1.73-.76a3.56,3.56,0,0,0-.43-1.6,8.9,8.9,0,0,1-.65-1.61q-.21-.75,1.08-.75c.57-1.29,1-2.43,1.4-3.43s.69-2,1-3.11a23.85,23.85,0,0,1,1.18-3.33,31.59,31.59,0,0,1,2.27-4.07,8.52,8.52,0,0,0,.65-3.22c.14-1.71.22-3.07.22-4.07a14.71,14.71,0,0,1,.75-3.22,3.68,3.68,0,0,1,2.68-2.14h3.64l1.51-.65.85-.43a1.68,1.68,0,0,1,.65-.21.87.87,0,0,0,.21.64A.84.84,0,0,0,978.78,488.57Zm-62,17.58-2.57-5.58c-.72-1.42-1.25-2.14-1.61-2.14a1.29,1.29,0,0,0-1,.43l3.86,6.43c.14,1,.28,1.43.43,1.29A2.33,2.33,0,0,1,916.8,506.15Zm-3,32.38,3.86,1.72-2.79-4.72-1.5,1.29Zm5.36,88.35-.86,1.72-1.5,4.07a4.62,4.62,0,0,0,1.4-.75,4.76,4.76,0,0,0,.75-1.39Q920.24,629.24,919.16,626.88Zm2.79-3.21,1.29-1.72a4.86,4.86,0,0,0,.75-2.14,3.48,3.48,0,0,0-1.18-1.29l-3,6.43C920.66,625.52,921.38,625.09,922,623.67Zm6.65-58.12-.23-.64c-.44-1.29-1-2.79-1.78-4.5a3.72,3.72,0,0,0-3.57-2.58l3.13,6.22Q928.15,568.34,928.6,565.55Zm-.86-28.95-.45-2.14-3.62-3.65,1.58,5.79a3,3,0,0,0,1.36,1.07C927.06,537.82,927.44,537.46,927.74,536.6Zm5.58,51L932,591.5v1.29l-1,4.29a8.2,8.2,0,0,0,1.83-4.51A35.65,35.65,0,0,1,933.32,587.64Zm3.3,29.81c-.57-.29-1-.29-1.18,0l-1.61,2.14-2.57,3.65c.86.28,1.71-.15,2.57-1.29a7,7,0,0,0,1.93-1.82A10.69,10.69,0,0,0,936.62,617.45Zm17.71-72.91,1.93-5.79a2.75,2.75,0,0,0-2.57,1.93q-2.37,4.07-2.47,5c-.07.64.39.61,1.4-.11Zm-.86,28.3,2.36-4.07a6.45,6.45,0,0,0-1.28.43,3.5,3.5,0,0,0-1.08,1.5l-1.93,3.43Zm4.72-10.29,1.29-2.79v-2.57l-.86-1.5Zm11.15-56.83,2.58-3.64a2,2,0,0,0-1.29,0,7.53,7.53,0,0,0-1.5,1.28,9.65,9.65,0,0,0-1.72,1.72,9.13,9.13,0,0,0-.86,2.79c.57.28,1,.28,1.18,0Zm1.93,30.45c.29,0,.22.65-.21,1.93l-.86,2.15c-.72,0-1.07-1-1.07-3C969.27,536.68,970,536.32,971.27,536.17Zm9.22-29.59,3-6.22c-.86-.57-1.58-.14-2.15,1.29l-1.29,1.5a4.82,4.82,0,0,0-.75,2.25C979.38,505.76,979.78,506.15,980.49,506.58Zm4.51-9.87,1.5-4.07a10.37,10.37,0,0,0-1.4.64,3.3,3.3,0,0,0-.75,1.29c-.85,1-.93,2.29-.21,3.86Z"/><path class="cls-2" d="M762.91,574.91l16.16,15.33a7.52,7.52,0,0,1,1.4,2,.91.91,0,0,1-.28,1.11c-.38.38-1.3.56-2.79.56a23.66,23.66,0,0,1-6.83.14,30.3,30.3,0,0,0-7.66.14c-.38-.19-.52-.37-.42-.56a.61.61,0,0,0,0-.56c-.1-.18-.42-.23-1-.14s-1.67.33-3.34.7h-2.65c.28,0-.14.19-1.25.56a5.32,5.32,0,0,1-3.9-1.12,20.3,20.3,0,0,1-3.63-3.34c-1.11-1.3-2.14-2.6-3.06-3.9a25,25,0,0,0-2.23-2.79c-.38-.37-.42-.7-.14-1s.23-.6-.14-1a1.54,1.54,0,0,0-1.4-.42,1.49,1.49,0,0,1-1.39-.42L727,569.05c-.37-.37-.51-.65-.41-.83l.27-.56a1.56,1.56,0,0,0,0-1,7.15,7.15,0,0,0-1.53-2.37,2.19,2.19,0,0,0-.83-.27.82.82,0,0,1-.56-.28,3.26,3.26,0,0,1-1.95-1.68c-.94-.55-1.58-.92-2-1.11l-1.12-.56a3.45,3.45,0,0,1-1.11-1l-2-2.37a2,2,0,0,0-.84-1.53c-.56-.47-1.16-.93-1.81-1.4s-1.21-.88-1.67-1.25a1.49,1.49,0,0,1-.7-1.12c-.19-.56.18-.88,1.11-1s.74-.79-.55-2.09c-.56-.74-1-1.12-1.4-1.12a4.69,4.69,0,0,0-1.11.14l-1.12.28c-.37.1-.93-.23-1.67-1a12.49,12.49,0,0,1-2.23-1.95l-3.62-3.62q-2-2-3.63-3.76c-1.11-1.21-1.86-2-2.23-2.37v15.88a109.36,109.36,0,0,0,.56,12.27,23.64,23.64,0,0,0-1.81,4.18c-.65,1.86-.79,3.25-.42,4.18.93.37,1.58,1.44,2,3.2a37.2,37.2,0,0,1,.7,5.86,35.17,35.17,0,0,1-.28,6.27,20.7,20.7,0,0,1-1,4.46,2.34,2.34,0,0,1-1.12,1,2.32,2.32,0,0,0-1.11,1,30.91,30.91,0,0,1-3.77-.14c-.65-.09-1.21-.18-1.67-.28a3.61,3.61,0,0,0-1.39,0c-.47.1-1.35.33-2.65.7,0,.93-.79,1.11-2.37.56a25.16,25.16,0,0,0-4-1.12c0-.56-.24-.84-.7-.84h-1.39a2.25,2.25,0,0,1-1.4-.55,2.8,2.8,0,0,1-.69-2.23v-12c.37-.37.18-1.11-.56-2.23s-.56-1.85.56-2.23V555.12c-.19-.74.18-1,1.11-.7s1.58.14,2-.42q1.95-1.11,0-1.11a6.87,6.87,0,0,1-3.06-.84l.28-13.1c-.38-1.85.18-2.65,1.67-2.37a6,6,0,0,0,4.18-.69,4.75,4.75,0,0,0,1.81-.84c.46-.37,0-.56-1.25-.56l-5.58-.28c-1.49-1.48-2-2.55-1.67-3.2a5.35,5.35,0,0,0,.56-2.65V517.49a4.93,4.93,0,0,1-1-3.2,14.29,14.29,0,0,1,.7-3.21,32.74,32.74,0,0,1,1.25-3.2,7.61,7.61,0,0,0,.7-3.21,25.49,25.49,0,0,0-.7-6c-.46-1.95-.79-3.39-1-4.32a68.4,68.4,0,0,1-.42-9.62q.14-4.32.42-11,2-3.9,1-5.57a6.2,6.2,0,0,1-1-3.07v-27a18.35,18.35,0,0,1,0-6.55,7.55,7.55,0,0,1,2-3.49,6.41,6.41,0,0,1,2.93-1c1.57-.28,2.46-.6,2.64-1,0-.93-.79-1.25-2.37-1a5.87,5.87,0,0,1-3.48-.14,2.06,2.06,0,0,1-1.39-2.09c0-1,.46-1.35,1.39-1a23.9,23.9,0,0,0,7-1.25c1.67-.65,3.9-1.54,6.69-2.65,0-.74.46-1.3,1.39-1.67l1.67-.56a42.61,42.61,0,0,0-7.8,2.51,11.77,11.77,0,0,1-5.3,1.11c-2.23,0-3.72-.55-4.46-1.67a5.4,5.4,0,0,1-1.11-2.79,4.06,4.06,0,0,1,1-2.78,8.83,8.83,0,0,0,1.54-2.51,22.82,22.82,0,0,0-1.67-3.21,6.24,6.24,0,0,1-1.12-3.2A3.37,3.37,0,0,1,673,400a11.69,11.69,0,0,1,4.18-1.25,28.17,28.17,0,0,1,4.88-.14c1.67.09,3,.14,3.9.14h7.53a1.63,1.63,0,0,1,1.81,1.67,16.14,16.14,0,0,1-.28,4c-.28,1.58-.6,3.21-1,4.88a11,11,0,0,0-.28,4.18c-.38.37-.61,2.05-.7,5a31.7,31.7,0,0,0,1.53,10,10.9,10.9,0,0,0-1.81,3.9,14,14,0,0,1-2.37,4.74,5.82,5.82,0,0,0,2.51,1.67,1.91,1.91,0,0,1,1.39,1.67q0,3.92.14,8.37c.1,3,.19,6,.28,9.19s.14,6.28.14,9.34a54.55,54.55,0,0,1-.56,8.22,6.29,6.29,0,0,1-1.39,2.51l-1.11,1.12a58,58,0,0,1,1.95,10.17c.37,3.62.55,6.74.55,9.34v3.06c0,.75-.37,1.07-1.11,1l-2.37-.28a4.37,4.37,0,0,0-2.23.28c-.65.28-1,1.07-1,2.37a7,7,0,0,0,3.2.69,9.59,9.59,0,0,1,3.48.7c.74.38.88,1,.42,1.81a4.56,4.56,0,0,0-.69,1.81q.27-.83,3.76-3.9t7.66-6.83q4.18-3.76,8.09-7.24a56.82,56.82,0,0,0,5.29-5.16,3.48,3.48,0,0,1,2.09-.7,6.79,6.79,0,0,0,2.09-.41,1,1,0,0,0,.14-.84c-.09-.18-.42-.74-1-1.67l1.81-1.81a9.41,9.41,0,0,1,2.37-1.82c0-.18.78-.28,2.37-.28a9.06,9.06,0,0,0,2.92-.27l4.18-.28c.74,0,.93-.19.56-.56-2.42,0-4.18-.56-5.3-1.67-.55-.37-.55-.84,0-1.4a11.42,11.42,0,0,1,1.54-2.09,15.83,15.83,0,0,1,1.39-1.25c.46-.37,1.07-.88,1.81-1.53s1.77-1.54,3.07-2.65l6.69-6.13a21.82,21.82,0,0,0,2.92-2.93q1.26-1.53,4.6-1.53c2.42,0,4.64,0,6.69.14s4.27.14,6.69.14a73.32,73.32,0,0,1,10.17.41c1.4.28,1.44,1.26.14,2.93a5.12,5.12,0,0,1-2.51,2.79,3.49,3.49,0,0,0-2.36-.28q-1.26.29-3.21.84a11.66,11.66,0,0,0,3.07-2c1.11-.92,1.67-1.57,1.67-1.95-.37-.37-1.12,0-2.23,1.12a17.82,17.82,0,0,0-1.95,1.11,5.94,5.94,0,0,1-2,.84,7.6,7.6,0,0,1-3.21.7c-.65-.1-1.07-.05-1.25.14a.92.92,0,0,0-.14,1.25c.28.47,1.44.7,3.48.7s3.25-.23,3.63-.7,1.29-.7,2.78-.7L769,467.32c-.93,0-1.44-.09-1.53-.28s-1.17-.28-3.21-.28c-5,0-7.25,1.4-6.69,4.18q2.24-.56,5.16-1.11t5.15-1.11a4.57,4.57,0,0,1-2.09,1.67,3.4,3.4,0,0,0-1.53.83,7.72,7.72,0,0,1-2.37.28,16.12,16.12,0,0,0-3.76.56,6.86,6.86,0,0,0,2.23.7,10.27,10.27,0,0,1,2.51.69,7.9,7.9,0,0,1-4.18,1.4h-4.46c-.38.18-.33.37.14.55a14.73,14.73,0,0,0,1.67.56,12.85,12.85,0,0,0,2.23.42,16.65,16.65,0,0,0,1.81.14c-1.11.93-2.37,1.91-3.76,2.93a12.21,12.21,0,0,0-3.49,4,13.7,13.7,0,0,1-5.85,3.06,20.57,20.57,0,0,0-6.13,2.51c2,.75,3.11,1.3,3.2,1.67a1.14,1.14,0,0,1-.41,1.12l-2.79.83c-.19,1.68-.38,2.56-.56,2.65a13.76,13.76,0,0,0-1.67,1.54,3.41,3.41,0,0,1-1.67.83,2.9,2.9,0,0,1-1-.14c-.28-.09-.65-.18-1.11-.28a3,3,0,0,0-1.81.42c.92,1.49,1.2,2.47.83,2.93a3,3,0,0,1-1.67,1,9.61,9.61,0,0,0-2,.7c-.56.28-.56.88,0,1.81l-10,10a28.36,28.36,0,0,0-4.32,3.9,54.83,54.83,0,0,1-4.31,4.18c-.38.19-.28.65.27,1.39a18.7,18.7,0,0,0,2.37,2.51l3.21,2.93c1.11,1,1.95,1.81,2.51,2.37q.27.27,1.53,2c.84,1.11,1,1.86.42,2.23l1.95.55c.93.94,1.25,1.22,1,.84s-.23-.37.14,0q3.9,4.46,6.13,6.55c1.49,1.39,2.33,2.19,2.51,2.37,1.49.93,2.09,1.63,1.82,2.09a2.61,2.61,0,0,1-1.82,1,17.84,17.84,0,0,1-4.46,0c0,.37.28.65.84.83l.84.56c1.67.19,3.06.33,4.18.42s2.13.18,3.06.28a3.41,3.41,0,0,1,1.67.41,43.58,43.58,0,0,0,5.44,3.77c1.76,1,2.55,1.72,2.37,2.09a4.29,4.29,0,0,0,.14,3.34,5.09,5.09,0,0,0,1.95,1.81c.83.47,1.71.93,2.65,1.4a3.91,3.91,0,0,1,1.95,2.37,3.64,3.64,0,0,0,1.53,1.25,29.83,29.83,0,0,1,2.79,1.81,18.52,18.52,0,0,1,2.79,2.51A6.08,6.08,0,0,1,762.91,574.91Zm-84.17-20.07,4.73-.28c3-.18,4.23-.46,3.77-.84s-1.91-.74-4.32-1.11H681a4.94,4.94,0,0,0-2.23,1Q677.9,554.28,678.74,554.84Zm13.65-59.37-1.67-12q-.56-2.24-.84-1.26a25,25,0,0,0-.55,3.49,86.62,86.62,0,0,1,0,9.75Q691.28,498.54,692.39,495.47Zm32.89,9.2c1.67-1.86,1.12-2-1.67-.56a68.14,68.14,0,0,1-7.11,6.41c-1.77,1.3-3.11,2.37-4,3.21a6,6,0,0,0-1.81,2.51,13.88,13.88,0,0,0-.42,4q2.79-2.5,7-6.83T725.28,504.67Zm44.87,80.83c.56-.37-.18-1.4-2.23-3.07-1.85-1.85-3.25-2.6-4.18-2.23-.55.38.19,1.39,2.23,3.07Q768.76,586.06,770.15,585.5Z"/><ellipse class="cls-3" cx="681.91" cy="366.67" rx="40.8" ry="25.5"/></svg>