<svg id="Layer_1" data-name="Layer 1" xmlns="http://www.w3.org/2000/svg" viewBox="0 0 1000 1000"><defs><style>.cls-1{fill:#fff;}.cls-2{fill:#f36f24;}.cls-3{fill:none;stroke:#f36f24;stroke-miterlimit:10;stroke-width:19px;}</style></defs><title>Artboard 3</title><path class="cls-1" d="M134.6,556.64a10.68,10.68,0,0,0-.56,1.53.4.4,0,0,1-.14.28l-1,1a32,32,0,0,0-2.79,3.63,4.93,4.93,0,0,1-2.93,2.23,40.45,40.45,0,0,0-5.43,1.67c-.93.75-1.12,1.53-.56,2.37a3.43,3.43,0,0,1,.56,2.65,16.2,16.2,0,0,0-4.46,3.48,7,7,0,0,1-5.3,2.37h-2c-.18,0-.28,0-.28-.14a.12.12,0,0,0-.14-.14h-1.81c.19-1.85.32-3.34.42-4.46a10.67,10.67,0,0,0-1.25-4.74l-.56.84a8.54,8.54,0,0,0-.56,2.51,13.28,13.28,0,0,1-3.9-.84,17.46,17.46,0,0,0-5.57-.83,7.23,7.23,0,0,0-2.37.27,3.3,3.3,0,0,0-1.12.7,9.31,9.31,0,0,1-1,.84,5.63,5.63,0,0,1-2.23.69,23.71,23.71,0,0,1-5.44.42,15.71,15.71,0,0,1-3.48-.56,11,11,0,0,1-2.37-1,21.45,21.45,0,0,0-2.37-1.12c.37,1.31.79,2,1.25,2.09a31.37,31.37,0,0,1,4.6,2.37,22.93,22.93,0,0,0,6.83.14c2.69-.27,4.6-.41,5.71-.41a4.81,4.81,0,0,1,2.09.83,4.86,4.86,0,0,0,2.09.84c1.49.19,2.28.6,2.37,1.25a2.47,2.47,0,0,1-.41,1.81c-.94.56-2.28,1.31-4,2.23a8.62,8.62,0,0,1-5.71.84c-2,0-4.14-.1-6.27-.28a12.43,12.43,0,0,1-6.27-2.51l-1.12,1.12c-.18,0-.74-.05-1.67-.14a20.85,20.85,0,0,1-3.06-.56c-1.12-.28-2.14-.56-3.07-.84a4.62,4.62,0,0,1-1.95-1q-6.14-3.06-11.15-6t-8.36-9.9q-2.23-4.46-3.62-6.69a19.36,19.36,0,0,1-2.09-4.32,28.45,28.45,0,0,1-1.12-5.15c-.28-2-.6-5.2-1-9.48V534.2c0-1.39,0-2.93-.14-4.6s-.14-3.25-.14-4.74v-2.5c1.11.37,1.29-.19.55-1.68a8.55,8.55,0,0,1-1.11-3.34,1.15,1.15,0,0,0,.28-.84,1.9,1.9,0,0,0-.56-1.39l2.23-12,4.46-.83a1.1,1.1,0,0,0-.84-1.12c-.55-.18-1.16-.37-1.81-.55s-1.25-.37-1.81-.56a.78.78,0,0,1-.56-1.12v-7c0-2.05,0-4,.14-5.86s.14-3.43.14-4.74c-.19,0-.33-.6-.43-1.81s-.18-2.6-.28-4.18-.14-3.66-.14-6.27a2,2,0,0,1,.14-.84,4,4,0,0,1,1.55-.83l.55-.56c.19-.18,0-.46-.55-.83H39.54l-18.1.55a1.77,1.77,0,0,0-1-1.81c-.66-.28-.89-.88-.7-1.81a1.36,1.36,0,0,1-1,.56c-.65,0-1-.93-1-2.79l.56-11.43a6.41,6.41,0,0,1,2.22-4c1.12-.84,3.53-1.07,7.25-.7.37,0,.93.47,1.67,1.4A3.18,3.18,0,0,0,32,447.38a2.46,2.46,0,0,0,1.67,1.39,6.6,6.6,0,0,0,1.68.84,3.28,3.28,0,0,0,2.23-.28c.37-.56.51-.88.41-1a3.36,3.36,0,0,0-.69-.42c-.38-.18-.79-.42-1.26-.7a2.91,2.91,0,0,1-1-2.09,11.8,11.8,0,0,1,3.48-.7c1.4-.09,2.28-.13,2.65-.13q2.22,0,0-1.68c.18-1.67.28-2.64.28-2.92s0-.33-.14-.14a1.12,1.12,0,0,0-.14.55c0,.19.18-.09.56-.83a11.56,11.56,0,0,0-.14-3.9c-.28-1.68-.89-2.51-1.81-2.51s-1.45-1.53-1.54-4.6a32.28,32.28,0,0,1,.7-8.22c0-.19,0-.93.14-2.23s.14-2.42.14-3.35.74-2,2.23-3.34,2.13-1.95,2-1.95H41.23a7.13,7.13,0,0,1-2.23-.28l1.12-2.51c0-.93.4-1.35,1.23-1.25a20,20,0,0,0,2.07.14c3.3,0,5.37.18,6.19.55s1.24.7,1.24,1,.1.37.28.28l3.3-1.54a29.22,29.22,0,0,0,4.27-.14,11.24,11.24,0,0,1,3.44,1c.74.37,1,2.33.83,5.85,0-.18-.14.28-.42,1.4a24.5,24.5,0,0,1-1,3.06c.37,1.68.64,2.51.83,2.51s.28.47.28,1.39c.18.94.37,1.35.56,1.26s.09.6-.28,2.09a18.86,18.86,0,0,1-.84,8.64,21.62,21.62,0,0,0-1.39,7.25,6.25,6.25,0,0,0,.37,2.64,5.3,5.3,0,0,0,.73,1.12,4.1,4.1,0,0,1,.61,1,5.55,5.55,0,0,1,.24,2,20.32,20.32,0,0,1,3.45,1.4l3.15,1.25a25.11,25.11,0,0,1,3.16,1.54,41.92,41.92,0,0,0-6-.14,8,8,0,0,0-4.87,1.53,12,12,0,0,1,2.23,3.07c.55,1.11,2,1.67,4.18,1.67,1.11,0,1.67-.19,1.67-.56a2.47,2.47,0,0,0-.42-1.25,1.68,1.68,0,0,1-.28-1.26c.09-.37.7-.56,1.81-.56a9.93,9.93,0,0,1,5.16,1.12q1.81,1.11,4.6,2.51c.74.56,1.67.46,2.79-.28s1.2-1.58.27-2.51a24,24,0,0,1-5.71-4.18,9.92,9.92,0,0,0-7.11-2.79,6.75,6.75,0,0,1,4.88-1.53,33.41,33.41,0,0,1,6.27,1q3.35.84,6.55,1.82a19.26,19.26,0,0,0,5.44,1c1.11,0,1.81-.18,2.09-.56a2.94,2.94,0,0,0,.55-1.25,3.15,3.15,0,0,1,.56-1.25c.28-.37,1-.56,2.09-.56q3.63,0,3.9,1.11a5.8,5.8,0,0,0,1.68,2.51q3.34-2.77,3.34-5.57a24.35,24.35,0,0,1,6,2.92A8.89,8.89,0,0,1,117,450a12,12,0,0,1,1,4.32c.09,1.67.14,3.53.14,5.57,0,1.49,0,3-.14,4.6s-1.91,2.37-5.44,2.37h-4.46q-3.08,0-6.13-.28c-2.42-.18-5-.37-7.8-.55-.19,0-.33-.61-.42-1.82s-.33-1.81-.7-1.81a1.94,1.94,0,0,0-1.25.7q-.7.69-1.68,1.53a10.18,10.18,0,0,1-2.09,1.4,2.38,2.38,0,0,1-2.23,0,42.31,42.31,0,0,1-4.59.41c-2,.1-4,.14-6.14.14s-4.27,0-6.41-.14-4-.14-5.43-.14c-.56-.37-.93.24-1.12,1.82a51.16,51.16,0,0,0-.28,5.71q0,3.34.14,7c.1,2.41.23,4.36.42,5.85a23.7,23.7,0,0,0-.56,4.18,15.3,15.3,0,0,0,.42,3.48,3.05,3.05,0,0,0,1.81,2.37,16.15,16.15,0,0,1-4.18-.83,3,3,0,0,0-3.06.83,8.87,8.87,0,0,1,2.09,4q.69,2.65,4,2.65c1.11,0,1.44.66,1,2s-1,2.79-1.68,4.46-1.16,3.17-1.53,4.46,0,2,1.11,2c-.18,0-.23.38-.13,1.12s.18,1.58.27,2.51.19,1.77.28,2.51,0,1.11-.14,1.11a9.46,9.46,0,0,1,.56,3.48c0,1.4,0,2.84-.14,4.32s-.14,2.89-.14,4.19a5.21,5.21,0,0,0,.56,2.78c.93.38,1.3,1.35,1.11,2.93a15,15,0,0,1-.83,3.76,2.25,2.25,0,0,1,1.39.28c1.12.38,1.58.56,1.4.56.92,3.34,2.46,5.62,4.59,6.83s3.39,1.72,3.77,1.53c1.11-.74,1.95-.93,2.51-.56a10.44,10.44,0,0,0,1.39.84,1.33,1.33,0,0,1,.42,1.25,1.3,1.3,0,0,0,.42,1.26,30.14,30.14,0,0,0,14.07,2.64,32.57,32.57,0,0,0,13.8-4,5.77,5.77,0,0,1,2.64-1,5.63,5.63,0,0,0,2.65-1c.37-.18.09-.37-.83-.56s-1.21-.37-.84-.55a23.72,23.72,0,0,1,3.2-3.21,8.08,8.08,0,0,0,1.82-1.81c.92-1.48,1.67-2.6,2.23-3.34s1.57-.93,3.06-.56q5,2.24,6.69,3.9a25.09,25.09,0,0,0,5,3.62,6.55,6.55,0,0,1,1.95,3.07A5.88,5.88,0,0,1,134.6,556.64ZM30.92,451a11.08,11.08,0,0,0-2.65-2.78,4.72,4.72,0,0,0-2.37-.56c.74,1.49,1.53,2.33,2.37,2.51A17.75,17.75,0,0,1,30.92,451Zm14.77-8.36c0-1.48-.28-2.23-.84-2.23-.74,0-1.11,1.12-1.11,3.35,0,1.49.37,2.23,1.11,2.23C45.41,446,45.69,444.87,45.69,442.64Zm3.9,23.42c0-.56-.56-1-1.67-1.4a9.33,9.33,0,0,0-2.23-.56c-1.12,0-1.67.66-1.67,2,0,.55.28.74.83.55a4.78,4.78,0,0,1,1.4-.28,12.5,12.5,0,0,1,2,.28C49.13,466.8,49.59,466.61,49.59,466.06Zm10.87-44.88q-.55-.27-1.11,1.53c-.38,1.22-.75,2.56-1.12,4.05l-1.11,4.46A11,11,0,0,1,56,434.28q-4.19,1.39-1.39,2.51H55a4.79,4.79,0,0,0,1.53-.28,6.88,6.88,0,0,0,1.81-1,4.62,4.62,0,0,0,1.53-2.37c0-.19.09-.88.28-2.09s.32-2.51.42-3.91.14-2.64.14-3.76A6,6,0,0,0,60.46,421.18Zm3.9,134.06a5.52,5.52,0,0,0-.69-2.23c-.47-.92-1-2-1.68-3.06a27.49,27.49,0,0,1-1.67-3.35,8.09,8.09,0,0,1-.7-3.06c-.93,0-1.44.33-1.53,1a10.94,10.94,0,0,0,1,4,45.89,45.89,0,0,0,2.65,4.74C62.55,554.6,63.43,555.24,64.36,555.24Zm61.88-3.34-4.18-5c-.94-.74-1.72-1-2.37-.69a3.26,3.26,0,0,0-1.53,1.25A10.45,10.45,0,0,0,117,550a11.93,11.93,0,0,1,3.9,1A14.29,14.29,0,0,0,126.24,551.9Z"/><path class="cls-1" d="M230,573.72q-1.29.43-.75,1.29a3,3,0,0,1,.54,1.5,12.91,12.91,0,0,0-.11,2.9,3.78,3.78,0,0,1-.32,2,2.34,2.34,0,0,1-2.15-.64,21.61,21.61,0,0,1-4.07.64l-5,.43c-1.65.14-3.08.22-4.29.22S212,582,212,581.87a2.36,2.36,0,0,0,.21-1.61,2.63,2.63,0,0,0-1.39-1.07,10.65,10.65,0,0,0-4-.53q-2.35.21-2.79,1.71c-.29,1-.71,1.5-1.28,1.5-1.43,0-2.68,0-3.76-.11s-2-.1-2.68-.1a8.72,8.72,0,0,1-2.36-.22,3.37,3.37,0,0,1-2-.43,4.33,4.33,0,0,1-.86-.85,3.56,3.56,0,0,0-1.07-.86,5.86,5.86,0,0,0-2.68-.43h-1.93c-1.15,0-2.36,0-3.65.11s-2.47.11-3.54.11h-1.82q-.23,0,0,.42c.14.29.57.51,1.29.65,1.14,0,2.32,0,3.53.1a13.86,13.86,0,0,0,3.11-.1c1.43-.29,2.07,0,1.93.85s-.93,1-2.36.43H170.36a13.07,13.07,0,0,1-4.39.11,3.78,3.78,0,0,1-2.9-1.82l-.21,1.71h-9.22a3.25,3.25,0,0,1-2.47-1.5,4.45,4.45,0,0,1-1.18-2.57,11.35,11.35,0,0,1-.21-2.79c0-.28.28-.54.86-.75s.85-.46.85-.75-.25-.57-.75-.86-.75-.57-.75-.86v-4.5a4.18,4.18,0,0,1,2.79-2,11.22,11.22,0,0,1,3.75,0c1.36.22,2.72.51,4.08.86a14.62,14.62,0,0,0,3.75.54,18.1,18.1,0,0,0,3.43-.43q2.15-.43,4.5-.75c1.58-.22,3.15-.36,4.72-.43a12.57,12.57,0,0,1,3.86.32l.43-.43a8.34,8.34,0,0,1,.43-.75,4.48,4.48,0,0,0,.43-1,28.15,28.15,0,0,0-.32-4.08c-.22-1.42-.4-2.93-.54-4.5a47.33,47.33,0,0,0,3.33-9q.74-3.42-2-7.07a2.33,2.33,0,0,0,.32-2.79,3,3,0,0,1,.11-3v-7.51c0-2,0-3.75-.11-5.25s-.18-2.26-.32-2.26c-.29.15-.43,0-.43-.42v-1.29a6.63,6.63,0,0,1,.21-1.93c-.28,0-.43-.72-.43-2.15s0-3,.11-4.71.18-4,.32-6.87c0,.15-.18-.32-.53-1.39a9.75,9.75,0,0,1-.54-3.11,8,8,0,0,1,.43-2.57,10.5,10.5,0,0,0,.43-3.22,2.29,2.29,0,0,1,.64-1.71,1.23,1.23,0,0,1,.86-.43c.29,0,.21-.18-.21-.54a2,2,0,0,0-1.72-.32c-.72.43-1.43.82-2.14,1.18a19.19,19.19,0,0,0-2.79,1.82c.71,1.15,1.21,1.61,1.5,1.39a5.06,5.06,0,0,1,2.36-.32c-1.29.43-2,.86-2.15,1.29s-.93.64-2.36.64a1.49,1.49,0,0,1-.75-.1.3.3,0,0,1-.1-.22c0-.07-.11-.14-.32-.21a5.64,5.64,0,0,0-1.4-.11h-2.14a27.27,27.27,0,0,1-4.94-.43q0,1.73-2.25.75a13,13,0,0,0-6.32-.53c-.58,0-1.22-.47-1.93-1.4a8.3,8.3,0,0,1-1.5-3.54,1.17,1.17,0,0,1,.1-1.07,1.17,1.17,0,0,0,.11-1.07.6.6,0,0,1,.43-.86,8,8,0,0,1,1.61-.32,10.66,10.66,0,0,0,1.71-.32,1,1,0,0,0,.75-1.07,23.85,23.85,0,0,1-2.78.21,12,12,0,0,1-1.83-.11q-.75-.11-.75-.75l.65-4.72q4.5,0,6.32-.21c1.21-.14,2,0,2.25.43a4.84,4.84,0,0,0,2,1.07,9.32,9.32,0,0,0,2.79.43,5.75,5.75,0,0,0,2.36-.43,1.51,1.51,0,0,0,1-1.5H184.3a10.86,10.86,0,0,0,1.61,1c.22.08.32,0,.32-.1v-.54c0-.21.29-.32.86-.32a14.18,14.18,0,0,0,1.93-.43c-.14,0,.22-.07,1.07-.21a1.77,1.77,0,0,1,1.08.21,1.68,1.68,0,0,0,1.07.22,11.31,11.31,0,0,1,1.28.1,9.73,9.73,0,0,0,1.29.11,14.94,14.94,0,0,0,3.54,0c1.07-.14,1.53.29,1.39,1.29a35.1,35.1,0,0,1,.11,4.39c-.07.65-.18,1-.32,1s-.36-.18-.64-.54-.58-.39-.86-.11a1.35,1.35,0,0,0-.43,1.93,11.49,11.49,0,0,0,1.71,2.15v1.18c0,.64,0,1.36-.1,2.14a22.25,22.25,0,0,0-.11,2.25v1.29a3.7,3.7,0,0,1-.54,1.5,1.3,1.3,0,0,1-.75.54l-.75.21c-.21.08-.39.32-.53.75-.29,1.43-.51,2.76-.65,4a44.23,44.23,0,0,0-.21,4.83c1,.28,1.64,0,1.93-.86s.64-1.86,1.07-3V508a10.38,10.38,0,0,1-.32,3,3.73,3.73,0,0,1-.86,1.5,9.64,9.64,0,0,0-1.39,2.25,10.09,10.09,0,0,0,1.82,2.68,3.6,3.6,0,0,1,1,3.33q-2.79,2.57-3.11,4a2.37,2.37,0,0,0,.43,2.25,3.68,3.68,0,0,0,1.82,1.18c.71.22,1.07.47,1.07.75q.21,4.3.11,5.79a10.5,10.5,0,0,1-.32,2.15,4,4,0,0,1-.54,1.07,6.18,6.18,0,0,0-.54,2.36l.65.86a6.08,6.08,0,0,1,.64,1.71,13.58,13.58,0,0,0,.43,2.15,3.62,3.62,0,0,1,.21,1.07v4.29a12.33,12.33,0,0,1-.43,1.71,5.13,5.13,0,0,1-1.28,1.72,6.47,6.47,0,0,1,2.36,4.07,51.85,51.85,0,0,1-.22,7.72c2.43,0,4.86-.1,7.29-.32a38.62,38.62,0,0,1,7.51.11c.28,0,.5.29.64.86a1.15,1.15,0,0,0,1.29.86,3.87,3.87,0,0,0,1.93-.65l1.07-.86c1.14-.14,2.11-.24,2.9-.32l2.25-.21c.71-.07,1.14-.11,1.28-.11a7.47,7.47,0,0,1,1.93.86,2.53,2.53,0,0,1,1.29,1.5c-.29,2.43-.21,4.07.22,4.93S230.26,573.58,230,573.72Zm-51.25-6.22a1.58,1.58,0,0,1-.65-.1.94.94,0,0,0-.42-.11.61.61,0,0,1-.43-.21h-.65a8.13,8.13,0,0,1-1.93-.22q-5.35,0-6.86,2.15a15.82,15.82,0,0,1,4.18-.76c1.5-.07,2.82-.1,4-.1a22.77,22.77,0,0,0,2.57-.11C179.08,568,179.16,567.79,178.73,567.5Zm-4.29-78.05,2.36-1.72h-2.25c-.93,0-1.79,0-2.58.11a8.65,8.65,0,0,0-1.82.32c-.43.14-.43.29,0,.43l1.72.43A20.21,20.21,0,0,0,174.44,489.45Zm26.38-41.61a1.39,1.39,0,0,1-.75.65q-.54.21-.54,1.5v1.07c0,.57.18.9.54,1s.53.25.53.53v5a7.66,7.66,0,0,1-.43,3.11l-.43.43a1.25,1.25,0,0,1-.85.21,4.55,4.55,0,0,1-1.72-.21,1.71,1.71,0,0,1-1.07-.21l-4.08-.22a20.46,20.46,0,0,1-6.32,1.18,8.09,8.09,0,0,1-5.9-2.25c-.43.29-.82.11-1.18-.54s-.39-2.1-.11-4.39a4.67,4.67,0,0,1,.65-2.25c.43-.79.57-1.18.43-1.18-.72.28-1.08-.36-1.08-1.93V447.2a6.43,6.43,0,0,1,.22-1.82c.14-.5.71-.61,1.71-.32h5.36c.29,0,.5.21.65.64s.35.64.64.64a24.76,24.76,0,0,0,4.72,0c.71-.28,1-.57,1-.85s0-.43.33-.43c.85,0,1.39.18,1.6.53a1.06,1.06,0,0,0,1,.54c0,.29.35.21,1.07-.22a.63.63,0,0,1,.43-.21,1.64,1.64,0,0,0,.64-.21,2.57,2.57,0,0,1,2.58.42A3,3,0,0,1,200.82,447.84Zm-13.94,51.47a2.47,2.47,0,0,0-.11-.75,6.67,6.67,0,0,0-.32-.75,4.46,4.46,0,0,1-.32-1.5,29.21,29.21,0,0,1-.11-3c-.57-1.29-1.07-1.86-1.5-1.72a9.91,9.91,0,0,0-1,4.61,4.7,4.7,0,0,0,1,3.11C185.52,500.31,186.3,500.31,186.88,499.31Zm11.36-44.17c0-.43-.39-.36-1.18.21a3.81,3.81,0,0,1-1.61.86c-1.28.86-1.36,1.5-.21,1.93l1.93.21c.71.15,1-.18,1-1A7.61,7.61,0,0,1,198.24,455.14Zm7.08,125.66c0-.71.71-1.07,2.14-1.07a6,6,0,0,1,1.83.32c.64.21,1,.47,1,.75,0,.71-.11,1.07-.32,1.07h-4.18C205.32,581.87,205.18,581.51,205.32,580.8Zm21-5.58h-.85a3.69,3.69,0,0,0-2.47,0,3.16,3.16,0,0,0-1.39,1.08,1.68,1.68,0,0,0-.32,1.28c.07.43.46.72,1.17.86,1.15.29,1.9.29,2.26,0a9.85,9.85,0,0,0,1.39-1.5,7.36,7.36,0,0,1,1.18-1.29C227.65,575.37,227.33,575.22,226.33,575.22Z"/><path class="cls-1" d="M335.06,563c0,.72-.19,1.11-.54,1.18s-.54.25-.54.54a2.84,2.84,0,0,0,.33,1c.07.08-.19.47-.76,1.18s-1.17.9-1.82.54a7.25,7.25,0,0,1-1.18-.75l-.64,1.28q-.44,1.29,1.29,1.29-1.93,2.14-3.33,3.43a13,13,0,0,1-4.18,2.36h-.43a15.39,15.39,0,0,1-4.82,3.75,41.44,41.44,0,0,1-5.69,2.68,33.73,33.73,0,0,1-8.47,1.5c-3.64.29-7.4.43-11.26.43a32.68,32.68,0,0,1-9.54-1.71,44.58,44.58,0,0,1-11-5.36,5.71,5.71,0,0,1-2.25-2c-.79-1.07-1.4-2-1.83-2.68-.43-1-.61-1.57-.53-1.72s-.18-.35-.75-.64c.57.29,1,.11,1.28-.54a1.57,1.57,0,0,0,0-1.6,8.94,8.94,0,0,0-1.39.64,2.32,2.32,0,0,1-1.18.21c-.43.15-.72.15-.86,0a5.25,5.25,0,0,0-1.07-.64c-.57-.57-.86-.93-.86-1.07s.11-.22.32-.22H264c.21,0,.25-.21.11-.64L263,563.22a1.75,1.75,0,0,0-1.28-.76,14.29,14.29,0,0,0-1.72-.1,11.64,11.64,0,0,1-1.61-.11,1.07,1.07,0,0,1-1-.75,3.18,3.18,0,0,1-.43-2,3.23,3.23,0,0,0-.43-2c-.29-.43-.5-.57-.64-.43a3,3,0,0,0-.43.53,1.24,1.24,0,0,1-.43.43c-.15.08-.29-.11-.43-.53a46.54,46.54,0,0,1-4.5-11.16,38.35,38.35,0,0,1-1.5-7.72c2.71-.42,4.21-.82,4.5-1.17s.11-.72-.54-1.08a18.26,18.26,0,0,0-2.46-1.07c-1-.35-1.5-.75-1.5-1.18a67.12,67.12,0,0,1,.32-13.29,100.85,100.85,0,0,1,2.25-10.3q.21-.85,1.71-1c1-.07,2.07-.11,3.22-.11s2.18,0,3.11-.11,1.39-.39,1.39-1-.43-1.15-1.28-1.29a17.39,17.39,0,0,0-2.79-.21,9.15,9.15,0,0,1-2.57-.32c-.72-.22-.86-.9-.43-2a25.45,25.45,0,0,1,2.57-5q1.94-3.1,4.18-6.11t4.4-5.36a11.41,11.41,0,0,1,3.21-2.79c1.58-1.14,3.11-2.36,4.62-3.65s4.1-2.5,7.82-3.64c1.29-.43,3.43-1,6.44-1.72a45.76,45.76,0,0,1,11.58-.86c1.28,0,2.78.08,4.5.22s3.36.32,4.93.53a24.2,24.2,0,0,1,4.29,1,15.33,15.33,0,0,1,3,1.29c.43.42.65.75.65,1s.57.68,1.71,1.39c2,.86,3.11,1.08,3.33.65s.6-.5,1.17-.22a35.85,35.85,0,0,1,5.15,4,33.35,33.35,0,0,1,4.29,4.4,4.75,4.75,0,0,0,1.29,1.5,1.67,1.67,0,0,1,.64,1.5,8.39,8.39,0,0,1-.43,2.47c-.29.93-1.21,1.53-2.79,1.82,0-.43-.1-.22-.32.64a2.32,2.32,0,0,1-1.39,1.72,13.15,13.15,0,0,1-1.61,1.39c-.5.36-1,.68-1.39,1l-1.51,1.07c-.71.43-1.25.36-1.6-.22a7.11,7.11,0,0,0-1-1.28,14.62,14.62,0,0,0-1.61-2.36,25.67,25.67,0,0,0-2.89-2.58,7.54,7.54,0,0,0-4.4-1.93c-1.64-.14-2.54-.78-2.68-1.93a18.76,18.76,0,0,0-6-1.71c-2.29-.29-4.86-.57-7.72-.86a17.52,17.52,0,0,0-6.54.86,40.91,40.91,0,0,0-6.22,2.57,36.27,36.27,0,0,0-5,3.11,17.3,17.3,0,0,0-3,2.68,49.58,49.58,0,0,0-7.62,13.83,50.63,50.63,0,0,0-3.32,16.62c0,1.15.07,2.65.21,4.51a36.85,36.85,0,0,0,1.08,6.22,55.92,55.92,0,0,0,2.35,7.18,36.65,36.65,0,0,0,3.86,7.18c-.28,0-1.17,0-2.68.11s-2.25.25-2.25.54c.29.28.36.36.22.21s-.22,0-.22.43A2.35,2.35,0,0,0,268,556a16.64,16.64,0,0,0,2,.11h2a2,2,0,0,1,1.18.21q5.15,6.87,10.4,9.22a33,33,0,0,0,11.47,2.79,37.89,37.89,0,0,0,7.61-.43,28.33,28.33,0,0,0,15.55-7,43.94,43.94,0,0,0,6.43-6.75c0-.14.43-.22,1.29-.22.14.15.5.22,1.07.22.43.43.86.89,1.29,1.39a6.22,6.22,0,0,0,1.28,1.18,5.6,5.6,0,0,0,1.29,1.07l-.43.65c-.29.71-.36,1.07-.21,1.07a1.36,1.36,0,0,0,.64-.11,1.53,1.53,0,0,1,.64-.1h.86l.86,1.07.43.43a4,4,0,0,0,.86,1C334.77,561.9,334.91,562.29,335.06,563Zm-63.91,8.15c0-1-.29-1.29-.86-.86-.28.29-.43.29-.43,0s-.28-.57-.85-.86c.43-.56.5-.46.21.33s-.43,1-.43.53a5.1,5.1,0,0,0,1,2.47c.5.64.89,1.18,1.18,1.61.28.14.43.07.43-.22a7,7,0,0,0-.11-1.07c-.08-.43-.15-.86-.22-1.29S271,571.15,271.15,571.15Zm3.22-74.63.43-1.93-.86-1.07q-3.65.64-3.65,2.68a3.49,3.49,0,0,0,1.08,2.9c.28.28.67.1,1.18-.54A21,21,0,0,1,274.37,496.52Zm43.1-4.5a3.41,3.41,0,0,0-2.57-1.5c-.15,0-.68,0-1.61.11s-1,.46-.32,1.18l2.14.64a3.57,3.57,0,0,0,1.61.43C317.22,492.88,317.47,492.59,317.47,492Z"/><path class="cls-1" d="M425.55,566.86,438,578.66a5.83,5.83,0,0,1,1.07,1.5.69.69,0,0,1-.22.85,3.34,3.34,0,0,1-2.14.43,18.16,18.16,0,0,1-5.25.11,23.37,23.37,0,0,0-5.9.11c-.29-.15-.4-.29-.32-.43a.47.47,0,0,0,0-.43c-.08-.14-.32-.18-.75-.11s-1.29.25-2.58.54h-2c.21,0-.11.14-1,.43a4.11,4.11,0,0,1-3-.86,15.62,15.62,0,0,1-2.79-2.57c-.86-1-1.64-2-2.36-3a18.61,18.61,0,0,0-1.71-2.14c-.29-.29-.32-.54-.11-.75s.18-.46-.11-.75a1.15,1.15,0,0,0-1.07-.32,1.17,1.17,0,0,1-1.07-.32l-8.79-8.58c-.29-.29-.4-.5-.33-.65s.14-.28.22-.42a1.31,1.31,0,0,0,0-.75,5.75,5.75,0,0,0-1.18-1.83,1.7,1.7,0,0,0-.64-.21.58.58,0,0,1-.43-.22A2.49,2.49,0,0,1,394,557c-.72-.43-1.22-.72-1.51-.86l-.85-.43a2.53,2.53,0,0,1-.86-.75c-.29-.36-.79-1-1.5-1.82a1.54,1.54,0,0,0-.65-1.18c-.42-.36-.89-.72-1.39-1.08s-.93-.67-1.29-1a1.16,1.16,0,0,1-.53-.86c-.15-.43.14-.67.86-.75s.57-.6-.43-1.61c-.43-.57-.79-.85-1.08-.85a3.53,3.53,0,0,0-.85.1l-.86.22q-.43.11-1.29-.75a9.62,9.62,0,0,1-1.71-1.5l-2.79-2.79c-1-1-1.93-2-2.79-2.9s-1.43-1.53-1.71-1.82v12.22a85.67,85.67,0,0,0,.42,9.44,19.34,19.34,0,0,0-1.39,3.22,4.83,4.83,0,0,0-.32,3.21c.71.29,1.21,1.11,1.5,2.47a28.31,28.31,0,0,1,.54,4.5,26.62,26.62,0,0,1-.22,4.83,15.4,15.4,0,0,1-.75,3.43,1.81,1.81,0,0,1-.86.75,1.73,1.73,0,0,0-.85.75,23,23,0,0,1-2.9-.11q-.75-.11-1.29-.21a2.75,2.75,0,0,0-1.07,0c-.36.07-1,.25-2,.53,0,.72-.61.86-1.83.43a19.51,19.51,0,0,0-3.11-.86c0-.42-.18-.64-.53-.64H357a1.71,1.71,0,0,1-1.07-.43,2.1,2.1,0,0,1-.53-1.71V569c.28-.29.14-.86-.43-1.72s-.43-1.43.43-1.72V551.64c-.15-.57.14-.76.85-.54s1.22.11,1.5-.32c1-.57,1-.86,0-.86a5.27,5.27,0,0,1-2.35-.64l.21-10.08c-.29-1.43.14-2,1.29-1.82a4.61,4.61,0,0,0,3.21-.54,3.71,3.71,0,0,0,1.4-.64c.35-.29,0-.43-1-.43l-4.29-.22c-1.14-1.14-1.57-2-1.28-2.46a4.18,4.18,0,0,0,.43-2v-8.36a3.73,3.73,0,0,1-.75-2.47,10.75,10.75,0,0,1,.53-2.47,25.68,25.68,0,0,1,1-2.46,6,6,0,0,0,.53-2.47,20.24,20.24,0,0,0-.53-4.61c-.36-1.5-.61-2.61-.75-3.32a54.13,54.13,0,0,1-.33-7.4q.11-3.33.33-8.47c1-2,1.25-3.43.75-4.29a4.66,4.66,0,0,1-.75-2.36v-20.8a14.23,14.23,0,0,1,0-5,5.77,5.77,0,0,1,1.5-2.68,4.73,4.73,0,0,1,2.25-.75c1.21-.22,1.89-.46,2-.75q0-1.08-1.83-.75a4.53,4.53,0,0,1-2.68-.11,1.59,1.59,0,0,1-1.07-1.61c0-.78.36-1,1.07-.75a18.36,18.36,0,0,0,5.36-1q1.94-.75,5.15-2c0-.57.36-1,1.07-1.29l1.29-.43a33.19,33.19,0,0,0-6,1.93,9,9,0,0,1-4.08.86c-1.72,0-2.86-.43-3.43-1.29a4.16,4.16,0,0,1-.86-2.14,3.12,3.12,0,0,1,.75-2.14,6.81,6.81,0,0,0,1.18-1.93,17,17,0,0,0-1.29-2.47,4.86,4.86,0,0,1-.85-2.47,2.58,2.58,0,0,1,1.39-2.46,9.07,9.07,0,0,1,3.22-1,21.16,21.16,0,0,1,3.75-.1c1.29.07,2.29.1,3,.1h5.79a1.26,1.26,0,0,1,1.4,1.29,12.2,12.2,0,0,1-.22,3.11q-.31,1.81-.75,3.75a8.43,8.43,0,0,0-.21,3.22c-.29.29-.47,1.57-.54,3.86a24.45,24.45,0,0,0,1.18,7.72,8.22,8.22,0,0,0-1.39,3,11,11,0,0,1-1.83,3.65,4.54,4.54,0,0,0,1.93,1.28,1.51,1.51,0,0,1,1.08,1.29c0,2,0,4.15.1,6.43s.14,4.65.22,7.08.1,4.82.1,7.18a42.85,42.85,0,0,1-.42,6.33,4.92,4.92,0,0,1-1.08,1.93l-.85.86a44.24,44.24,0,0,1,1.5,7.82c.28,2.79.43,5.19.43,7.19v2.36c0,.57-.29.82-.86.75l-1.82-.22a3.32,3.32,0,0,0-1.72.22c-.5.21-.75.82-.75,1.82a5.38,5.38,0,0,0,2.47.54,7.45,7.45,0,0,1,2.68.53c.57.29.67.75.32,1.4a3.46,3.46,0,0,0-.54,1.39c.14-.43,1.11-1.43,2.9-3s3.75-3.33,5.89-5.26l6.22-5.57a45.79,45.79,0,0,0,4.08-4,2.65,2.65,0,0,1,1.61-.53,4.76,4.76,0,0,0,1.6-.33.77.77,0,0,0,.11-.64q-.11-.21-.75-1.29l1.39-1.39a7.19,7.19,0,0,1,1.83-1.39c0-.15.6-.22,1.82-.22a6.94,6.94,0,0,0,2.25-.21l3.22-.22c.57,0,.71-.14.43-.43a5.62,5.62,0,0,1-4.08-1.28q-.64-.44,0-1.08a8.27,8.27,0,0,1,1.18-1.6c.36-.36.72-.68,1.07-1s.83-.68,1.4-1.18,1.35-1.18,2.36-2l5.14-4.71a17.23,17.23,0,0,0,2.26-2.26c.64-.78,1.82-1.17,3.53-1.17s3.58,0,5.15.1,3.29.11,5.15.11a55.73,55.73,0,0,1,7.82.32c1.08.22,1.11,1,.11,2.25a4,4,0,0,1-1.93,2.15,2.66,2.66,0,0,0-1.82-.22c-.64.15-1.47.36-2.47.65a9.3,9.3,0,0,0,2.36-1.5c.86-.72,1.29-1.22,1.29-1.51-.29-.28-.86,0-1.72.86a14.28,14.28,0,0,0-1.5.86,4.63,4.63,0,0,1-1.5.64,5.87,5.87,0,0,1-2.47.54c-.5-.07-.82,0-1,.11a.71.71,0,0,0-.11,1c.22.36,1.11.54,2.68.54s2.5-.18,2.79-.54,1-.53,2.14-.53l-2.78,1.93c-.72,0-1.11-.07-1.18-.22a6.25,6.25,0,0,0-2.47-.21c-3.86,0-5.57,1.07-5.15,3.21,1.15-.28,2.47-.57,4-.85s2.82-.57,4-.86a3.5,3.5,0,0,1-1.61,1.28,2.73,2.73,0,0,0-1.18.65,6.16,6.16,0,0,1-1.82.21,12.69,12.69,0,0,0-2.9.43,5.2,5.2,0,0,0,1.72.54,8.19,8.19,0,0,1,1.93.53,6.14,6.14,0,0,1-3.22,1.08H418.9c-.29.14-.25.28.11.42a10.2,10.2,0,0,0,1.29.43,9.49,9.49,0,0,0,1.71.32,12.14,12.14,0,0,0,1.39.11c-.85.72-1.82,1.47-2.89,2.25a9.59,9.59,0,0,0-2.68,3.11,10.56,10.56,0,0,1-4.5,2.36,15.63,15.63,0,0,0-4.72,1.93q2.36.85,2.46,1.29a.89.89,0,0,1-.32.86l-2.14.64c-.15,1.29-.29,2-.43,2a9.3,9.3,0,0,0-1.29,1.18,2.58,2.58,0,0,1-1.28.64,2.12,2.12,0,0,1-.75-.11,8.38,8.38,0,0,0-.86-.21,2.27,2.27,0,0,0-1.4.32c.72,1.15.93,1.9.65,2.25a2.3,2.3,0,0,1-1.29.75,7.48,7.48,0,0,0-1.5.54c-.43.21-.43.68,0,1.39l-7.72,7.72a22.16,22.16,0,0,0-3.32,3,41.28,41.28,0,0,1-3.33,3.22c-.29.15-.21.5.22,1.07a12.94,12.94,0,0,0,1.82,1.93l2.46,2.26c.86.78,1.51,1.39,1.93,1.82a17.88,17.88,0,0,1,1.18,1.5c.65.86.75,1.43.33,1.71l1.5.43c.71.72,1,.93.75.65s-.18-.29.1,0c2,2.29,3.58,4,4.72,5l1.93,1.82c1.15.72,1.61,1.25,1.4,1.61a2,2,0,0,1-1.4.75,13.57,13.57,0,0,1-3.43,0c0,.29.22.5.64.64l.65.43c1.28.14,2.36.25,3.21.32l2.36.22a2.61,2.61,0,0,1,1.29.32,33.58,33.58,0,0,0,4.18,2.89c1.36.79,2,1.33,1.82,1.61a3.37,3.37,0,0,0,.11,2.57,4.05,4.05,0,0,0,1.5,1.4c.65.36,1.32.72,2,1.07a3,3,0,0,1,1.5,1.82,2.87,2.87,0,0,0,1.18,1,22.92,22.92,0,0,1,2.15,1.39,14.58,14.58,0,0,1,2.14,1.93A4.64,4.64,0,0,1,425.55,566.86Zm-64.76-15.44,3.64-.21c2.29-.14,3.25-.36,2.9-.65a9.63,9.63,0,0,0-3.33-.85h-1.5a3.74,3.74,0,0,0-1.71.75C360.36,550.81,360.36,551.14,360.79,551.42Zm10.5-45.68L370,496.52c-.29-1.14-.5-1.46-.65-1a19.15,19.15,0,0,0-.42,2.68,65.9,65.9,0,0,1,0,7.5C369.93,507.32,370.72,507.32,371.29,505.74Zm25.31,7.08q1.93-2.15-1.29-.43a51.43,51.43,0,0,1-5.47,4.93c-1.36,1-2.39,1.83-3.11,2.47a4.78,4.78,0,0,0-1.39,1.93,10.92,10.92,0,0,0-.32,3.11q2.14-1.94,5.36-5.25T396.6,512.82ZM431.12,575c.43-.28-.14-1.07-1.71-2.36s-2.5-2-3.22-1.71c-.43.28.14,1.07,1.72,2.35C429.34,574.73,430.41,575.3,431.12,575Z"/><path class="cls-1" d="M539,532.55a6.23,6.23,0,0,1-2.9,3,13.93,13.93,0,0,1-3.64,1.18,15.48,15.48,0,0,1-3.65.22c-1.21-.07-2.11-.11-2.68-.11H501.46a8.68,8.68,0,0,1-4.72-1.72q-2.57-1.71-4.29-2.78a5.13,5.13,0,0,0-.75,2.57,4.07,4.07,0,0,0,1,1.93h-18a18.73,18.73,0,0,1-3.64-.43c-1.43-.28-2.15-.07-2.15.64A54.49,54.49,0,0,0,470,543a14.56,14.56,0,0,0,1.61,4.18H469.4c-1.22,0-1.82.15-1.82.43.28.29.43.4.43.32s.07,0,.21.32a3.38,3.38,0,0,0,2.15.43,3.43,3.43,0,0,1,2.14.43,48.28,48.28,0,0,0,5.68,9.65A28.79,28.79,0,0,0,484,564.4a19.85,19.85,0,0,0,5.79,2.89,27.34,27.34,0,0,0,5.69,1.07,32.85,32.85,0,0,0,7.07-.43,25.75,25.75,0,0,0,7.94-2.36,36,36,0,0,0,6.65-4.71,38.12,38.12,0,0,0,6-6.65c0-.14.35-.22,1.07-.22.14.15.5.22,1.07.22l2.36,2.57a5.6,5.6,0,0,0,1.29,1.07l-.43.65c-.29.71-.36,1.07-.21,1.07s.42-.21.85-.64a.64.64,0,0,0,.22-.43c1.14.71,1.71,1.43,1.71,2.14a1.54,1.54,0,0,1-.28.86,3.83,3.83,0,0,1,.07,1.93,7.35,7.35,0,0,1-1.29,1.5.33.33,0,0,1-.21.32,1.14,1.14,0,0,0-.43.54l-.43.86-.43,1.28c-.29.86,0,1.29.86,1.29q-1.73,2.14-3,3.43a11.91,11.91,0,0,1-3.86,2.36h-.43a12.39,12.39,0,0,1-4.4,3.65q-3.11,1.71-5.47,2.78a29.29,29.29,0,0,1-7.82,1.5q-5,.43-10.62.43c0-.43-.57-1.21-1.71-2.36l-5.15,1.29a2.51,2.51,0,0,0-1.5-.75,17.58,17.58,0,0,1-2.15-.43,14.46,14.46,0,0,1-3-1.18,18.16,18.16,0,0,1-3.86-2.79c1.14-1.71,2.22-2.17,3.22-1.39a13.2,13.2,0,0,0,4.29,2,2,2,0,0,0,2.36.75,7.8,7.8,0,0,1,3.43.11,3.81,3.81,0,0,0-2.47-1.18,3.86,3.86,0,0,1-2.47-1.18L482.37,575l-3-1.5c-.29,0-.39-.14-.32-.43a3.62,3.62,0,0,0,.11-.86.73.73,0,0,0-.32-.64,2.87,2.87,0,0,0-1.61,0,2.6,2.6,0,0,1-2.36-.86,2.31,2.31,0,0,1-.86-1.07c.14.72.32,1.54.54,2.47a2.45,2.45,0,0,0,2,1.82c-.71.86-1.14,1.21-1.28,1.07s-.43.07-.86.64l-4.07-2.14a23.81,23.81,0,0,1-3.65-3.54q-1.73-2-3.22-4a37.11,37.11,0,0,1-2.36-3.32,13.86,13.86,0,0,0-1.07-1.61,26.77,26.77,0,0,1-3.32-6,68.19,68.19,0,0,1-2.36-6.76c-.64-2.21-1.15-4.21-1.5-6a22.46,22.46,0,0,1-.54-3.76,7.91,7.91,0,0,0,2.58-2,1.09,1.09,0,0,0,0-1.29,2.35,2.35,0,0,0-1.29-.75,6.17,6.17,0,0,1-1.29-.43,69.4,69.4,0,0,1,.22-9.33,83.38,83.38,0,0,1,1.5-10.18,79.11,79.11,0,0,1,2.79-10.08,52.09,52.09,0,0,1,4.07-9c-.14.29,0,.43.54.43a13.77,13.77,0,0,0,1.71-.11,5,5,0,0,0,1.93-.64,2.3,2.3,0,0,0,1.18-1.18,1.79,1.79,0,0,0-1.29-.43,4.85,4.85,0,0,1-1.5-.21c-.42-.14-.64-.32-.64-.54s.43-.68,1.29-1.39a12.4,12.4,0,0,0,3.32-3.86,6.9,6.9,0,0,1,2.9-3q2.36-1.71,4.28-3.32t7.08-3.32q1.71-.64,5.9-1.72a40,40,0,0,1,10.83-.86,28.94,28.94,0,0,1,8.58,1.5q4.71,1.51,6.43,3a1,1,0,0,1,.11,1.39c-.36.5,0,1.11,1.18,1.82a10.62,10.62,0,0,0,2.14.75,1.34,1.34,0,0,0,1-.1,5.31,5.31,0,0,1,.53-.32c.14-.08.36,0,.64.1a58,58,0,0,1,5,4.61,32,32,0,0,1,4.19,4.83q.63,1.06,1.5.75c.57-.22.85,0,.85.75a3.38,3.38,0,0,0,.43,1.29c.29.57.61,1.14,1,1.71a4.29,4.29,0,0,1,.64,1.61.78.78,0,0,1-.53,1c1,2.29,1.78,4.15,2.35,5.58a41.2,41.2,0,0,1,1.4,4.07,4.88,4.88,0,0,1,.32,2.36,12.28,12.28,0,0,0,.11,1.4c.07.64.14,1.32.21,2a17.43,17.43,0,0,0,.32,2c.14.65.36,1,.65,1.18a1.54,1.54,0,0,1,.85,1.5c0,.72-.35.93-1.07.65a11,11,0,0,0-5.36,1.93,29.85,29.85,0,0,1-5.15,2.78,1.76,1.76,0,0,0,.43,1.29.63.63,0,0,0,.43.21q3.28-.86,4.43-2.68a3.51,3.51,0,0,1,3.08-1.82,3.18,3.18,0,0,1,2.89,1.18,3.88,3.88,0,0,1,.75,1.82,3,3,0,0,1-.64,2,7.64,7.64,0,0,0-1.07,1.61,4.24,4.24,0,0,0,1.39,1.82C539.1,531.44,539.27,532,539,532.55Zm-16.3-20.16c-.57-.71-1.15-.78-1.72-.21s-1,.5-1.28-.22a13.42,13.42,0,0,1-1-4.39,4,4,0,0,0-1.18-3.11,3.75,3.75,0,0,1-1-2.36q.1-.86-2-2.79a16.86,16.86,0,0,0-3.86-2.89c-1.43-.79-2.14-1.75-2.14-2.9-1.72-.86-3.51-1.64-5.36-2.36a27.69,27.69,0,0,0-6.87-1.5,15.4,15.4,0,0,0-6.11.86,36.26,36.26,0,0,0-5.79,2.57,30.43,30.43,0,0,0-4.72,3.22c-1.36,1.15-2.32,2-2.89,2.57a30.86,30.86,0,0,0-2.9,4.61,48.13,48.13,0,0,0-2.46,5.58,43.79,43.79,0,0,0-1.72,5.79,22.93,22.93,0,0,0-.64,4.82c.14,1.15,1,1.72,2.57,1.72a9.85,9.85,0,0,0,3.43-.43,38.33,38.33,0,0,1,6.87-.21q3.21.21,7.5.21h4.18c2.07,0,4.29,0,6.65-.11s4.57-.1,6.65-.1h4.18a22.25,22.25,0,0,1,5.68.53c1.22.36,2.25-.18,3.11-1.61a.5.5,0,0,1,.54-.1,1,1,0,0,0,.64,0c.22-.07.36-.36.43-.86a5.87,5.87,0,0,0-.54-2.47,3.64,3.64,0,0,0,.65-1.61A6.17,6.17,0,0,1,522.69,512.39ZM488.16,488.8l3.86-.64-3.21-.86a22.81,22.81,0,0,0-6,1.93c-1.71.86-2.21,1.65-1.5,2.36.29.29,1.11-.11,2.47-1.18A7,7,0,0,1,488.16,488.8Zm3.86-12c-1.28.29-2.78.58-4.5.86a11.9,11.9,0,0,0-4.29,1.5c-.71,0-.89.25-.53.75a1.81,1.81,0,0,0,1.6.75,21.68,21.68,0,0,1,3.86-2,29.09,29.09,0,0,1,3.44-1,8.68,8.68,0,0,0,2.78-.64c.57-.14.75-.29.54-.43A7.75,7.75,0,0,0,492,476.79Zm13.51,47c-1.71,0-4.43,0-8.14.11s-6.87.25-9.44.53c-1,.14-1.61.4-1.82.75s.18.61,1.18.75a34.64,34.64,0,0,1,7,.22c1.78.28,3.28.46,4.5.53a9.61,9.61,0,0,0,3.32-.32A8.08,8.08,0,0,0,505.53,523.76Zm14.16.64-3,.22c-1.86.14-2.65.35-2.36.64a6.75,6.75,0,0,0,2.79.86l1.28-.22a3.45,3.45,0,0,0,1.39-.64C520.15,525,520.12,524.69,519.69,524.4Zm11.79,40.32c.14.57.22.89.22,1a6.86,6.86,0,0,1-.65,1.18c-.77,1-1.41,1.43-1.93,1.29q-.42-.43,1.35-2.58C531,564.86,531.34,564.58,531.48,564.72Z"/><path class="cls-1" d="M644.92,562.36a8.65,8.65,0,0,0-.43,1.18.31.31,0,0,1-.11.21l-.75.75a24.84,24.84,0,0,0-2.14,2.79,3.8,3.8,0,0,1-2.25,1.72,31.72,31.72,0,0,0-4.18,1.28c-.72.58-.86,1.18-.43,1.83a2.62,2.62,0,0,1,.43,2,12.79,12.79,0,0,0-3.44,2.68,5.39,5.39,0,0,1-4.07,1.83h-1.5c-.14,0-.22,0-.22-.11s0-.11-.1-.11h-1.4c.14-1.43.25-2.57.33-3.43a8.21,8.21,0,0,0-1-3.65l-.43.65a6.68,6.68,0,0,0-.43,1.93,10.35,10.35,0,0,1-3-.65,13.8,13.8,0,0,0-4.29-.64,5.16,5.16,0,0,0-1.82.22,2.57,2.57,0,0,0-.86.53,5.44,5.44,0,0,1-.75.64,4.23,4.23,0,0,1-1.71.54,18.19,18.19,0,0,1-4.19.32,12,12,0,0,1-2.68-.43,8.38,8.38,0,0,1-1.82-.75,15.08,15.08,0,0,0-1.82-.85c.28,1,.6,1.53,1,1.6a23.26,23.26,0,0,1,3.54,1.83,17.56,17.56,0,0,0,5.25.1c2.08-.21,3.54-.32,4.4-.32a3.85,3.85,0,0,1,1.61.65,3.74,3.74,0,0,0,1.61.64c1.14.14,1.75.47,1.82,1a2,2,0,0,1-.32,1.4c-.72.43-1.75,1-3.11,1.71a6.65,6.65,0,0,1-4.4.65c-1.57,0-3.18-.08-4.82-.22a9.48,9.48,0,0,1-4.83-1.93l-.86.86c-.14,0-.57,0-1.28-.11a15.64,15.64,0,0,1-2.36-.43c-.86-.21-1.65-.42-2.36-.64a3.46,3.46,0,0,1-1.5-.75c-3.15-1.57-6-3.11-8.58-4.61a16.88,16.88,0,0,1-6.43-7.61c-1.15-2.29-2.07-4-2.79-5.15a15.49,15.49,0,0,1-1.61-3.32,22.75,22.75,0,0,1-.86-4q-.32-2.36-.75-7.29v-1.83c0-1.07,0-2.25-.1-3.53s-.11-2.5-.11-3.65V536c.86.29,1-.14.43-1.29a6.61,6.61,0,0,1-.86-2.57.87.87,0,0,0,.22-.64,1.46,1.46,0,0,0-.43-1.07l1.71-9.23,3.43-.64a.84.84,0,0,0-.64-.86l-1.39-.43c-.51-.14-1-.28-1.4-.42a.6.6,0,0,1-.43-.86v-5.36c0-1.57,0-3.08.11-4.51s.11-2.64.11-3.64c-.15,0-.26-.46-.33-1.4s-.14-2-.22-3.21-.11-2.82-.11-4.83a1.5,1.5,0,0,1,.11-.64,3,3,0,0,1,1.19-.64l.43-.43c.14-.14,0-.36-.43-.65h-1.73l-13.92.43a1.35,1.35,0,0,0-.75-1.39c-.51-.22-.68-.68-.54-1.4a1,1,0,0,1-.75.43c-.5,0-.75-.71-.75-2.14l.43-8.79a4.9,4.9,0,0,1,1.71-3.11c.86-.65,2.72-.82,5.58-.54.28,0,.71.36,1.29,1.07A2.44,2.44,0,0,0,566,478.3a1.89,1.89,0,0,0,1.28,1.07,5.16,5.16,0,0,0,1.29.64,2.61,2.61,0,0,0,1.71-.21q.44-.65.33-.75a3,3,0,0,0-.54-.33c-.29-.14-.61-.32-1-.53a2.24,2.24,0,0,1-.76-1.61A9,9,0,0,1,571,476c1.08-.07,1.75-.1,2-.1q1.71,0,0-1.29c.14-1.29.22-2,.22-2.25s0-.25-.11-.11a1,1,0,0,0-.11.43c0,.14.14-.07.43-.64a8.8,8.8,0,0,0-.11-3c-.21-1.28-.68-1.93-1.39-1.93s-1.11-1.18-1.18-3.53a24.91,24.91,0,0,1,.54-6.33c0-.14,0-.71.1-1.72s.11-1.85.11-2.57.57-1.57,1.72-2.57,1.64-1.5,1.5-1.5h-1.72a5.34,5.34,0,0,1-1.71-.22l.85-1.93q0-1.06,1-1a14.64,14.64,0,0,0,1.59.1,15.53,15.53,0,0,1,4.76.43q1,.44,1,.75c0,.22.07.29.21.22l2.54-1.18a21.9,21.9,0,0,0,3.29-.11,8.52,8.52,0,0,1,2.64.75c.57.29.78,1.79.64,4.51,0-.15-.11.21-.32,1.07a20.52,20.52,0,0,1-.75,2.36c.28,1.28.5,1.93.64,1.93s.21.36.21,1.07.29,1,.43,1,.07.47-.21,1.61a14.66,14.66,0,0,1-.64,6.65,16.55,16.55,0,0,0-1.08,5.58,5,5,0,0,0,.28,2,4.26,4.26,0,0,0,.57.86,3.3,3.3,0,0,1,.47.75,4.35,4.35,0,0,1,.18,1.5,15.31,15.31,0,0,1,2.65,1.07l2.43,1a18.94,18.94,0,0,1,2.43,1.18,33,33,0,0,0-4.61-.11,6.21,6.21,0,0,0-3.75,1.18,9.22,9.22,0,0,1,1.71,2.36c.43.86,1.5,1.29,3.22,1.29.86,0,1.28-.14,1.28-.43a1.88,1.88,0,0,0-.32-1,1.27,1.27,0,0,1-.21-1c.07-.29.53-.43,1.39-.43a7.62,7.62,0,0,1,4,.86c.93.57,2.11,1.21,3.54,1.93.57.43,1.29.35,2.14-.22s.93-1.21.22-1.93a18.32,18.32,0,0,1-4.4-3.21,7.63,7.63,0,0,0-5.47-2.15,5.18,5.18,0,0,1,3.76-1.18,25.31,25.31,0,0,1,4.82.75c1.72.43,3.39.9,5,1.4a14.81,14.81,0,0,0,4.18.75c.86,0,1.4-.14,1.61-.43a2.43,2.43,0,0,0,.43-1,2.32,2.32,0,0,1,.43-1c.21-.29.75-.43,1.61-.43,1.85,0,2.85.29,3,.86A4.49,4.49,0,0,0,622,479.8q2.57-2.15,2.57-4.29a18.46,18.46,0,0,1,4.61,2.25,6.85,6.85,0,0,1,2.25,2.57,9.07,9.07,0,0,1,.75,3.33c.07,1.28.11,2.71.11,4.29,0,1.14,0,2.32-.11,3.53s-1.47,1.83-4.18,1.83h-3.43c-1.58,0-3.15-.07-4.72-.22l-6-.43c-.15,0-.25-.46-.33-1.39s-.25-1.39-.53-1.39a1.51,1.51,0,0,0-1,.53c-.35.36-.78.75-1.28,1.18a7.91,7.91,0,0,1-1.61,1.07,1.81,1.81,0,0,1-1.72,0,29.58,29.58,0,0,1-3.54.33c-1.5.07-3.07.1-4.71.1s-3.29,0-4.94-.1-3-.11-4.18-.11c-.43-.29-.71.18-.85,1.39a36.79,36.79,0,0,0-.22,4.4c0,1.71,0,3.5.11,5.36s.18,3.36.32,4.5a17.79,17.79,0,0,0-.43,3.22,12.16,12.16,0,0,0,.32,2.68,2.36,2.36,0,0,0,1.4,1.82,12.25,12.25,0,0,1-3.22-.64,2.29,2.29,0,0,0-2.36.64,6.82,6.82,0,0,1,1.61,3.11c.35,1.36,1.39,2,3.11,2,.86,0,1.1.5.75,1.5s-.79,2.14-1.29,3.43-.89,2.43-1.18,3.43,0,1.5.86,1.5c-.14,0-.18.29-.11.86s.14,1.22.22,1.93.14,1.36.21,1.93,0,.86-.1.86a7.43,7.43,0,0,1,.42,2.68c0,1.07,0,2.18-.1,3.32s-.11,2.22-.11,3.22a3.94,3.94,0,0,0,.43,2.14c.71.29,1,1,.86,2.26a11.76,11.76,0,0,1-.65,2.89,1.69,1.69,0,0,1,1.08.22c.85.28,1.21.42,1.07.42q1.07,3.87,3.54,5.26c1.64.93,2.6,1.32,2.89,1.18.86-.57,1.5-.72,1.93-.43a9.87,9.87,0,0,0,1.07.64,1,1,0,0,1,.32,1,1,1,0,0,0,.33,1,23.15,23.15,0,0,0,10.83,2,25.11,25.11,0,0,0,10.61-3.11,4.38,4.38,0,0,1,2-.75,4.38,4.38,0,0,0,2-.75c.28-.14.07-.29-.65-.43s-.93-.28-.64-.43a18.42,18.42,0,0,1,2.47-2.47,6.08,6.08,0,0,0,1.39-1.39c.71-1.14,1.28-2,1.71-2.57s1.22-.72,2.36-.43a18.31,18.31,0,0,1,5.15,3,19.16,19.16,0,0,0,3.86,2.79,4.91,4.91,0,0,1,1.5,2.36A4.47,4.47,0,0,1,644.92,562.36Zm-79.77-81.28a8.58,8.58,0,0,0-2-2.14,3.58,3.58,0,0,0-1.82-.43c.57,1.15,1.18,1.79,1.82,1.93A13.9,13.9,0,0,1,565.15,481.08Zm11.36-6.43c0-1.14-.21-1.72-.64-1.72s-.86.86-.86,2.58c0,1.14.29,1.71.86,1.71S576.51,476.37,576.51,474.65Zm3,18c0-.43-.43-.78-1.29-1.07a7.34,7.34,0,0,0-1.72-.43c-.85,0-1.28.51-1.28,1.5,0,.43.21.58.64.43a3.56,3.56,0,0,1,1.07-.21,9.08,9.08,0,0,1,1.5.21C579.16,493.24,579.52,493.09,579.52,492.66Zm8.36-34.52c-.29-.14-.57.25-.86,1.18s-.57,2-.86,3.11-.57,2.28-.85,3.43a8.69,8.69,0,0,1-.86,2.36c-2.15.71-2.51,1.36-1.07,1.93h.32a3.63,3.63,0,0,0,1.18-.22,5.18,5.18,0,0,0,1.39-.75,3.5,3.5,0,0,0,1.18-1.82c0-.14.07-.68.21-1.61s.25-1.93.33-3,.1-2,.1-2.9A4.56,4.56,0,0,0,587.88,458.14Zm3,103.15a4.16,4.16,0,0,0-.54-1.72c-.35-.71-.78-1.5-1.28-2.36a22,22,0,0,1-1.29-2.57,6.12,6.12,0,0,1-.53-2.36c-.72,0-1.11.25-1.18.75a8.13,8.13,0,0,0,.75,3.11,37.62,37.62,0,0,0,2,3.64C589.49,560.79,590.16,561.29,590.88,561.29Zm47.61-2.58-3.22-3.86c-.72-.57-1.32-.75-1.82-.53a2.55,2.55,0,0,0-1.18,1,8.37,8.37,0,0,0-.86,1.93,9,9,0,0,1,3,.75A11.19,11.19,0,0,0,638.49,558.71Z"/><path class="cls-2" d="M875.09,532.55a6.21,6.21,0,0,1-2.89,3,14.11,14.11,0,0,1-3.65,1.18,15.37,15.37,0,0,1-3.64.22c-1.22-.07-2.11-.11-2.68-.11H837.56a8.62,8.62,0,0,1-4.71-1.72q-2.58-1.71-4.29-2.78a5,5,0,0,0-.75,2.57,4,4,0,0,0,1,1.93h-18a18.82,18.82,0,0,1-3.65-.43c-1.43-.28-2.14-.07-2.14.64a52.19,52.19,0,0,0,1.18,5.9,14.27,14.27,0,0,0,1.61,4.18h-2.25c-1.22,0-1.83.15-1.83.43.29.29.43.4.43.32s.07,0,.22.32a3.32,3.32,0,0,0,2.14.43,3.47,3.47,0,0,1,2.15.43,47.81,47.81,0,0,0,5.68,9.65,28.79,28.79,0,0,0,5.79,5.69,19.85,19.85,0,0,0,5.79,2.89,27.25,27.25,0,0,0,5.68,1.07,32.93,32.93,0,0,0,7.08-.43,25.68,25.68,0,0,0,7.93-2.36,35.66,35.66,0,0,0,6.65-4.71,37.73,37.73,0,0,0,6-6.65c0-.14.36-.22,1.08-.22.14.15.49.22,1.07.22l2.36,2.57a5.84,5.84,0,0,0,1.28,1.07l-.43.65c-.28.71-.35,1.07-.21,1.07s.43-.21.86-.64a.63.63,0,0,0,.21-.43c1.14.71,1.72,1.43,1.72,2.14a1.56,1.56,0,0,1-.29.86,3.83,3.83,0,0,1,.07,1.93,7.53,7.53,0,0,1-1.28,1.5.34.34,0,0,1-.22.32,1.2,1.2,0,0,0-.43.54l-.43.86-.42,1.28c-.29.86,0,1.29.85,1.29a41.68,41.68,0,0,1-3,3.43,11.8,11.8,0,0,1-3.86,2.36h-.43a12.26,12.26,0,0,1-4.39,3.65q-3.12,1.71-5.47,2.78a29.29,29.29,0,0,1-7.83,1.5q-5,.43-10.61.43c0-.43-.58-1.21-1.72-2.36l-5.15,1.29a2.51,2.51,0,0,0-1.5-.75,17.47,17.47,0,0,1-2.14-.43,14.25,14.25,0,0,1-3-1.18,17.68,17.68,0,0,1-3.86-2.79q1.71-2.56,3.21-1.39a13.2,13.2,0,0,0,4.29,2,2,2,0,0,0,2.36.75,7.8,7.8,0,0,1,3.43.11,3.81,3.81,0,0,0-2.46-1.18,3.82,3.82,0,0,1-2.47-1.18L818.48,575l-3-1.5c-.29,0-.4-.14-.32-.43a3.61,3.61,0,0,0,.1-.86.71.71,0,0,0-.32-.64,2.87,2.87,0,0,0-1.61,0,2.61,2.61,0,0,1-2.36-.86,2.3,2.3,0,0,1-.85-1.07c.14.72.32,1.54.53,2.47a2.47,2.47,0,0,0,2,1.82c-.72.86-1.15,1.21-1.29,1.07s-.43.07-.86.64l-4.07-2.14a23.75,23.75,0,0,1-3.64-3.54q-1.73-2-3.22-4a37.11,37.11,0,0,1-2.36-3.32,13.86,13.86,0,0,0-1.07-1.61,26.4,26.4,0,0,1-3.33-6,70.85,70.85,0,0,1-2.36-6.76q-1-3.31-1.5-6a22.13,22.13,0,0,1-.53-3.76,8,8,0,0,0,2.57-2,1.06,1.06,0,0,0,0-1.29,2.35,2.35,0,0,0-1.29-.75,5.85,5.85,0,0,1-1.28-.43,67.7,67.7,0,0,1,.21-9.33,87.46,87.46,0,0,1,1.5-10.18A80.8,80.8,0,0,1,793,504.46a52.09,52.09,0,0,1,4.07-9c-.14.29,0,.43.54.43a14,14,0,0,0,1.72-.11,5.11,5.11,0,0,0,1.93-.64A2.38,2.38,0,0,0,802.4,494a1.79,1.79,0,0,0-1.29-.43,4.85,4.85,0,0,1-1.5-.21c-.43-.14-.65-.32-.65-.54s.43-.68,1.29-1.39a12.58,12.58,0,0,0,3.33-3.86,6.88,6.88,0,0,1,2.89-3q2.35-1.71,4.29-3.32t7.08-3.32c1.14-.43,3.11-1,5.89-1.72a40,40,0,0,1,10.83-.86,28.89,28.89,0,0,1,8.58,1.5c3.14,1,5.29,2,6.43,3a1,1,0,0,1,.11,1.39c-.36.5,0,1.11,1.18,1.82a11.06,11.06,0,0,0,2.14.75,1.33,1.33,0,0,0,1-.1,4.39,4.39,0,0,1,.54-.32c.14-.08.35,0,.64.1a59.47,59.47,0,0,1,5,4.61,32.43,32.43,0,0,1,4.18,4.83q.64,1.06,1.5.75c.57-.22.86,0,.86.75a3.21,3.21,0,0,0,.43,1.29,18.39,18.39,0,0,0,1,1.71,4.33,4.33,0,0,1,.65,1.61.77.77,0,0,1-.54,1q1.5,3.44,2.36,5.58A41,41,0,0,1,872,509.6a4.62,4.62,0,0,1,.32,2.36c0,.29,0,.75.11,1.4s.14,1.32.22,2a15.55,15.55,0,0,0,.32,2c.14.65.35,1,.64,1.18a1.55,1.55,0,0,1,.86,1.5c0,.72-.36.93-1.07.65a11,11,0,0,0-5.36,1.93,30.6,30.6,0,0,1-5.15,2.78,1.72,1.72,0,0,0,.43,1.29.61.61,0,0,0,.43.21c2.19-.57,3.66-1.46,4.43-2.68a3.49,3.49,0,0,1,3.07-1.82,3.21,3.21,0,0,1,2.9,1.18,3.88,3.88,0,0,1,.75,1.82,3,3,0,0,1-.65,2,8.5,8.5,0,0,0-1.07,1.61,4.27,4.27,0,0,0,1.4,1.82C875.2,531.44,875.38,532,875.09,532.55Zm-16.3-20.16q-.85-1.06-1.71-.21c-.57.57-1,.5-1.29-.22a13.41,13.41,0,0,1-1-4.39,4.11,4.11,0,0,0-1.18-3.11,3.78,3.78,0,0,1-1-2.36c.07-.57-.61-1.5-2-2.79a17.31,17.31,0,0,0-3.86-2.89c-1.43-.79-2.15-1.75-2.15-2.9-1.71-.86-3.5-1.64-5.36-2.36a27.71,27.71,0,0,0-6.86-1.5,15.38,15.38,0,0,0-6.11.86,35.48,35.48,0,0,0-5.79,2.57,30.43,30.43,0,0,0-4.72,3.22c-1.36,1.15-2.33,2-2.9,2.57a30.86,30.86,0,0,0-2.89,4.61,50,50,0,0,0-2.47,5.58,45.29,45.29,0,0,0-1.71,5.79,23,23,0,0,0-.65,4.82c.14,1.15,1,1.72,2.58,1.72a9.89,9.89,0,0,0,3.43-.43,38.24,38.24,0,0,1,6.86-.21c2.15.14,4.64.21,7.51.21h4.18c2.07,0,4.29,0,6.65-.11s4.57-.1,6.64-.1h4.18a22.34,22.34,0,0,1,5.69.53c1.21.36,2.25-.18,3.11-1.61a.48.48,0,0,1,.53-.1,1,1,0,0,0,.65,0c.21-.07.35-.36.43-.86a5.87,5.87,0,0,0-.54-2.47,3.59,3.59,0,0,0,.64-1.61A6.35,6.35,0,0,1,858.79,512.39ZM824.27,488.8l3.86-.64-3.22-.86a22.61,22.61,0,0,0-6,1.93q-2.58,1.29-1.5,2.36c.28.29,1.1-.11,2.46-1.18A7,7,0,0,1,824.27,488.8Zm3.86-12c-1.29.29-2.79.58-4.5.86a11.77,11.77,0,0,0-4.29,1.5q-1.08,0-.54.75a1.82,1.82,0,0,0,1.61.75,21.34,21.34,0,0,1,3.86-2,28.9,28.9,0,0,1,3.43-1,8.75,8.75,0,0,0,2.79-.64c.57-.14.75-.29.53-.43A7.69,7.69,0,0,0,828.13,476.79Zm13.51,47c-1.72,0-4.43,0-8.15.11s-6.86.25-9.44.53c-1,.14-1.6.4-1.82.75s.18.61,1.18.75a34.61,34.61,0,0,1,7,.22c1.79.28,3.29.46,4.5.53a9.64,9.64,0,0,0,3.33-.32A8.14,8.14,0,0,0,841.64,523.76Zm14.15.64-3,.22c-1.86.14-2.65.35-2.36.64a6.81,6.81,0,0,0,2.79.86l1.29-.22a3.51,3.51,0,0,0,1.39-.64C856.25,525,856.22,524.69,855.79,524.4Zm11.8,40.32a9.08,9.08,0,0,1,.21,1,6.37,6.37,0,0,1-.64,1.18c-.78,1-1.42,1.43-1.93,1.29q-.43-.43,1.35-2.58C867.11,564.86,867.44,564.58,867.59,564.72Z"/><path class="cls-2" d="M971.8,476.15h8.8c.85,0,1.35.29,1.5.86a4.15,4.15,0,0,1-.11,2,25.81,25.81,0,0,1-.86,2.57q-.54,1.39-1,2.25l-6,16q-3.43,9.12-7.72,19.4a3.34,3.34,0,0,0-.43,1.83c0,.78-.64,1.25-1.93,1.39s-2.28.79-2.57,1.5-.57,1.5-.86,2.36a3.36,3.36,0,0,1,0,1.72c-.14.85-.28,1.64-.43,2.36a9.1,9.1,0,0,0-2.14,2.89q-1.08,2,0,2.25c.71-2.43,1.43-3.57,2.14-3.43s.93.57.65,1.29q-1.5,4.29-3.45,9.22t-4.33,9.86a2.29,2.29,0,0,1-.87.86,2.41,2.41,0,0,0-.86.86,1.4,1.4,0,0,0-.22,1.29,1.41,1.41,0,0,1-.22,1.28c-.87,1.72-1.73,3.36-2.6,4.93a30.46,30.46,0,0,1-3,4.51q0-.86-4.77.64a7.22,7.22,0,0,0,2.82.86c1.16.14,1.66.72,1.52,1.71a3,3,0,0,1-1.63,1.4,6.32,6.32,0,0,1-2,.32h-1.63a.57.57,0,0,0-.65.64c.3,1,1,1.33,2.24,1a10.62,10.62,0,0,1,2.91-.54l-2.5,6.65.23-.43a37.67,37.67,0,0,0-1.48,4.72,12.6,12.6,0,0,0-.11,1.5c0-.57-.18-.4-.53.54a13.52,13.52,0,0,1-1.36,2.68c-.14,0-.28.28-.42.85a13.94,13.94,0,0,0-.31,1.83,10.66,10.66,0,0,1-.32,1.71q-.21.75-.42.75c-1.26,0-1.88.25-1.88.75a2.65,2.65,0,0,0,.52,1.51,4.73,4.73,0,0,1,.73,1.5q.21.75-1,.75c-.83,1.71-1.57,3.43-2.2,5.14s-1.22,3.22-1.78,4.51a4.61,4.61,0,0,1-.73,1.39,11.46,11.46,0,0,0-1.16,1.82,1.17,1.17,0,0,0,0,1,2.37,2.37,0,0,1-.21,1.61c-.42.85-.87,1.85-1.36,3s-.95,2.28-1.36,3.43c-.7,1.29-1.16,2.07-1.37,2.36a9.65,9.65,0,0,1-2,1.5l-3,1.07-.64-.43-.64-.64-1.08.64-1.71.43H909c-1.86,0-3-.32-3.43-1s-.29-1.83.43-3.54a36.89,36.89,0,0,1,3.22-6.22c1.42-2.29,2.43-4,3-5.15q2.14-5.36,3.64-8.68c1-2.22,1.93-4.36,2.79-6.44s1.74-4.43,2.66-7.07,2.15-6.11,3.69-10.4a5.11,5.11,0,0,0,.31-2.9,5,5,0,0,0-.84-1.61,4.48,4.48,0,0,1-.73-1.17c-.14-.36.14-.9.84-1.61a7.44,7.44,0,0,0-1.47-1.5c-.7-.57-.7-.86,0-.86a3.67,3.67,0,0,1,2.93-.11,3.11,3.11,0,0,0,2.94-.32c.42-.14.45-.29.11-.43a11.14,11.14,0,0,0-1.47-.43l-2.83-.64a2.53,2.53,0,0,1-2.73-.75c-.7-.79-1-.89-1-.32l-12.17-29-1.74-6.22c-1.45-.57-2.14-1-2.07-1.18a1.59,1.59,0,0,0-.1-1c-.72-1.85-.72-2.93,0-3.21l-4.08-6.87-15-35.59a13.22,13.22,0,0,1-1-3.22c-.08-.72.82-.93,2.68-.64h6a2.26,2.26,0,0,0,1.29-.22,11.26,11.26,0,0,1,1.39.43c.36.14.68.29,1,.43a9.54,9.54,0,0,0,2.36.86c.14,0,.17-.29.1-.86s.33-.86,1.18-.86a8.63,8.63,0,0,1,3.43.86l2,.86a2.65,2.65,0,0,0,.29,1.07,2.82,2.82,0,0,1,.29,1.07,14.32,14.32,0,0,0,.67,3.11,8.25,8.25,0,0,1,.45.75q1.78,6,3.8,11.05c1.34,3.36,2.09,5,2.24,5s-.08-.07-.67-.21-.9-.14-.9,0a8.67,8.67,0,0,0,1.23,1.5c.67.72,1,1.22,1,1.5a10.49,10.49,0,0,0,1.45,3.22,20.05,20.05,0,0,1,2.08,5.15,3.25,3.25,0,0,1,1.4,2.35c.21,1.15,0,1.72-.75,1.72q-1.08-.64-1.29-.54c-.14.08-.18.29-.11.65a5.14,5.14,0,0,1,.11,1,.38.38,0,0,1-.43.43,4,4,0,0,1,2.07.64,5.93,5.93,0,0,1,1.66,1.51l1.24,1.28a4.52,4.52,0,0,1,1,1.5c.13.29,0,.43-.33.43s-.46.15-.32.43q1.28,3.64,2.52,6.54c.84,1.93,1.67,4.11,2.51,6.54l1.67,4.72c-.28-.28-.42.07-.42,1.07a8.78,8.78,0,0,0,1,3.65c.28-.14.63,0,1.05.53a8.83,8.83,0,0,1,1.07,1.61c.14.43.39,1.15.75,2.15a16.46,16.46,0,0,1,.75,3,4,4,0,0,1-.32,2.47c-.36.64-1.11.82-2.25.53.42,1.15,1.14,1.5,2.15,1.07s1.59-.43,1.73,0q1.08-4.07,2.81-9.43t3.67-10.72q2.37-6.23,4-9.65c1.07-2.29,1.76-3.79,2-4.51a37.78,37.78,0,0,0,1.4-4.72,10.8,10.8,0,0,0,.11-1.5c0,.58.18.36.54-.64a8.67,8.67,0,0,1,1.41-2.57c.14,0,.28-.25.43-.75a10.79,10.79,0,0,0,.32-1.72,14,14,0,0,1,.33-1.82c.14-.57.28-.86.43-.86,1.15,0,1.73-.25,1.73-.75a3.7,3.7,0,0,0-.43-1.61,8.62,8.62,0,0,1-.65-1.61q-.23-.75,1.08-.75c.57-1.28,1-2.43,1.4-3.43s.69-2,1-3.11a23.83,23.83,0,0,1,1.19-3.32,31.08,31.08,0,0,1,2.27-4.08,8.5,8.5,0,0,0,.65-3.21q.21-2.58.21-4.08a14.76,14.76,0,0,1,.75-3.21,3.71,3.71,0,0,1,2.68-2.15h3.65l1.5-.64.86-.43a1.71,1.71,0,0,1,.64-.22.85.85,0,0,0,.22.65A.83.83,0,0,0,971.8,476.15Zm-62,17.59-2.57-5.58c-.72-1.43-1.26-2.14-1.61-2.14a1.36,1.36,0,0,0-1,.42l3.86,6.44c.14,1,.29,1.43.43,1.28A2.33,2.33,0,0,1,909.83,493.74Zm-3,32.38,3.86,1.71-2.79-4.72-1.5,1.29Zm5.36,88.35-.86,1.71-1.5,4.08a4.76,4.76,0,0,0,1.39-.75,4.4,4.4,0,0,0,.75-1.4C912.83,617.26,912.9,616,912.19,614.47Zm2.79-3.22,1.28-1.71a4.85,4.85,0,0,0,.75-2.15c-.07-.29-.46-.72-1.18-1.29l-3,6.44C913.69,613.11,914.4,612.68,915,611.25Zm6.64-58.11-.22-.65q-.67-1.92-1.78-4.5a3.73,3.73,0,0,0-3.57-2.57l3.12,6.22Q921.18,555.93,921.62,553.14Zm-.85-28.95-.46-2.15-3.62-3.64,1.59,5.79a3,3,0,0,0,1.35,1.07C920.09,525.4,920.46,525,920.77,524.19Zm5.57,51-1.28,3.87v1.28l-1,4.29a8.25,8.25,0,0,0,1.82-4.5A35.78,35.78,0,0,1,926.34,575.22ZM929.65,605c-.58-.29-1-.29-1.18,0l-1.61,2.15-2.58,3.64c.86.29,1.72-.14,2.58-1.28a7,7,0,0,0,1.93-1.83A11,11,0,0,0,929.65,605Zm17.71-72.91,1.93-5.79a2.76,2.76,0,0,0-2.58,1.93q-2.36,4.08-2.46,5c-.08.64.39.61,1.39-.11Zm-.86,28.31,2.36-4.08a7.64,7.64,0,0,0-1.29.43,3.66,3.66,0,0,0-1.07,1.5l-1.93,3.43Zm4.72-10.3,1.28-2.78v-2.58l-.85-1.5Zm11.15-56.82,2.57-3.65a2,2,0,0,0-1.28,0,8,8,0,0,0-1.51,1.29,9.54,9.54,0,0,0-1.71,1.71,9.13,9.13,0,0,0-.86,2.79c.57.29,1,.29,1.18,0Zm1.93,30.45c.28,0,.21.64-.22,1.93l-.85,2.14q-1.08,0-1.08-3C962.29,524.26,963,523.9,964.3,523.76Zm9.22-29.6,3-6.21c-.86-.57-1.57-.15-2.14,1.28l-1.29,1.5a4.88,4.88,0,0,0-.75,2.26C972.41,493.34,972.8,493.74,973.52,494.16Zm4.5-9.86,1.5-4.07a8.94,8.94,0,0,0-1.39.64,3,3,0,0,0-.75,1.29c-.86,1-.93,2.28-.22,3.86Z"/><path class="cls-2" d="M755.93,562.49l16.17,15.33a7.42,7.42,0,0,1,1.39,1.95.91.91,0,0,1-.28,1.12c-.37.37-1.3.55-2.78.55a23.66,23.66,0,0,1-6.83.14,30.38,30.38,0,0,0-7.67.14c-.37-.18-.51-.37-.41-.55a.61.61,0,0,0,0-.56c-.1-.19-.42-.23-1-.14s-1.67.32-3.34.7h-2.65c.28,0-.14.18-1.26.55a5.27,5.27,0,0,1-3.9-1.11,20.31,20.31,0,0,1-3.62-3.35q-1.68-1.95-3.07-3.9a23.91,23.91,0,0,0-2.23-2.79c-.37-.37-.41-.69-.14-1s.23-.6-.14-1a1.51,1.51,0,0,0-1.39-.42,1.48,1.48,0,0,1-1.39-.41L720,556.64q-.56-.55-.42-.84l.28-.56a1.7,1.7,0,0,0,0-1,7.23,7.23,0,0,0-1.53-2.37,2.35,2.35,0,0,0-.84-.28.79.79,0,0,1-.56-.28,3.3,3.3,0,0,1-1.95-1.67c-.93-.56-1.58-.93-2-1.12L711.9,548a3.41,3.41,0,0,1-1.12-1q-.56-.69-1.95-2.37a2,2,0,0,0-.84-1.53c-.55-.46-1.16-.93-1.81-1.39s-1.21-.88-1.67-1.26a1.52,1.52,0,0,1-.7-1.11c-.18-.56.19-.88,1.12-1s.74-.79-.56-2.09c-.56-.74-1-1.11-1.39-1.11a4.25,4.25,0,0,0-1.12.14l-1.11.27c-.38.1-.93-.23-1.67-1a12.22,12.22,0,0,1-2.23-2c-1.12-1.12-2.33-2.32-3.63-3.63s-2.51-2.55-3.62-3.76-1.86-2-2.23-2.37V538.8a106.7,106.7,0,0,0,.56,12.26,24.33,24.33,0,0,0-1.81,4.18c-.66,1.86-.8,3.26-.42,4.18.93.38,1.57,1.45,1.95,3.21a37.22,37.22,0,0,1,.7,5.85,35.17,35.17,0,0,1-.28,6.27,20.44,20.44,0,0,1-1,4.46,2.37,2.37,0,0,1-1.11,1,2.3,2.3,0,0,0-1.12,1,33,33,0,0,1-3.76-.14c-.65-.1-1.21-.19-1.67-.28a3.66,3.66,0,0,0-1.4,0c-.46.09-1.35.32-2.64.69,0,.93-.8,1.12-2.37.56a24,24,0,0,0-4-1.11c0-.56-.24-.84-.7-.84h-1.4a2.18,2.18,0,0,1-1.39-.56,2.78,2.78,0,0,1-.7-2.23v-12c.37-.37.19-1.12-.55-2.23s-.56-1.86.55-2.23V542.7c-.18-.74.19-1,1.12-.7s1.58.14,2-.41c1.3-.74,1.3-1.12,0-1.12a7.05,7.05,0,0,1-3.07-.83l.28-13.1q-.55-2.79,1.68-2.37a6,6,0,0,0,4.18-.7,4.54,4.54,0,0,0,1.81-.84c.46-.37,0-.55-1.26-.55l-5.57-.28c-1.49-1.49-2-2.55-1.67-3.21a5.34,5.34,0,0,0,.55-2.64V505.08a5,5,0,0,1-1-3.21,13.58,13.58,0,0,1,.7-3.2,30.57,30.57,0,0,1,1.25-3.21,7.73,7.73,0,0,0,.7-3.21,26,26,0,0,0-.7-6c-.47-1.95-.79-3.39-1-4.32a69.69,69.69,0,0,1-.41-9.61q.14-4.32.41-11,2-3.9,1-5.58a6.16,6.16,0,0,1-1-3.06v-27a18.85,18.85,0,0,1,0-6.55,7.49,7.49,0,0,1,2-3.48,6.33,6.33,0,0,1,2.92-1c1.58-.28,2.46-.6,2.65-1,0-.93-.79-1.26-2.37-1a5.79,5.79,0,0,1-3.48-.14,2.05,2.05,0,0,1-1.4-2.09c0-1,.46-1.34,1.4-1a23.78,23.78,0,0,0,7-1.26q2.52-1,6.69-2.65c0-.74.47-1.29,1.4-1.67l1.67-.56a43.42,43.42,0,0,0-7.8,2.51,11.67,11.67,0,0,1-5.3,1.12q-3.35,0-4.46-1.67a5.47,5.47,0,0,1-1.11-2.79,4.09,4.09,0,0,1,1-2.79,8.59,8.59,0,0,0,1.53-2.51,22.26,22.26,0,0,0-1.67-3.2,6.36,6.36,0,0,1-1.11-3.21,3.35,3.35,0,0,1,1.81-3.2,11.63,11.63,0,0,1,4.18-1.26,29.17,29.17,0,0,1,4.88-.14c1.67.1,3,.14,3.9.14h7.52a1.63,1.63,0,0,1,1.82,1.68,16.17,16.17,0,0,1-.28,4c-.28,1.58-.61,3.2-1,4.87a11.42,11.42,0,0,0-.28,4.18c-.37.38-.6,2.05-.69,5a31.47,31.47,0,0,0,1.53,10,10.74,10.74,0,0,0-1.81,3.9,14.46,14.46,0,0,1-2.37,4.74,5.85,5.85,0,0,0,2.51,1.67,1.92,1.92,0,0,1,1.39,1.67c0,2.6,0,5.39.14,8.36s.18,6,.28,9.2.14,6.27.14,9.34a54.65,54.65,0,0,1-.56,8.22,6.49,6.49,0,0,1-1.39,2.51l-1.12,1.11a56.23,56.23,0,0,1,1.95,10.17q.56,5.44.56,9.34v3.07c0,.74-.37,1.07-1.11,1l-2.37-.28a4.37,4.37,0,0,0-2.23.28c-.66.28-1,1.07-1,2.37a7,7,0,0,0,3.21.7,9.43,9.43,0,0,1,3.48.7c.74.37.88,1,.42,1.81a4.42,4.42,0,0,0-.7,1.81c.18-.56,1.44-1.86,3.76-3.9s4.88-4.32,7.67-6.83l8.08-7.25a58.92,58.92,0,0,0,5.3-5.15A3.39,3.39,0,0,1,714,474a6.5,6.5,0,0,0,2.09-.42,1,1,0,0,0,.14-.84c-.1-.18-.42-.74-1-1.67.37-.37,1-1,1.81-1.81a9.46,9.46,0,0,1,2.37-1.81c0-.18.79-.28,2.37-.28a8.73,8.73,0,0,0,2.93-.28l4.18-.28c.74,0,.93-.18.56-.55-2.42,0-4.18-.56-5.3-1.68-.56-.37-.56-.83,0-1.39a11.21,11.21,0,0,1,1.53-2.09c.47-.46.93-.88,1.4-1.26s1.06-.87,1.81-1.53l3.06-2.65,6.69-6.13a21.86,21.86,0,0,0,2.93-2.92c.84-1,2.37-1.54,4.6-1.54q3.62,0,6.69.14c2,.1,4.27.14,6.69.14a71.14,71.14,0,0,1,10.17.42c1.39.28,1.44,1.25.14,2.93a5.18,5.18,0,0,1-2.51,2.78A3.51,3.51,0,0,0,765,451c-.83.19-1.91.47-3.2.84a11.82,11.82,0,0,0,3.06-1.95q1.68-1.39,1.68-1.95c-.38-.37-1.12,0-2.23,1.11a19.8,19.8,0,0,0-2,1.12,6,6,0,0,1-2,.83,7.41,7.41,0,0,1-3.2.7c-.66-.09-1.07,0-1.26.14a.94.94,0,0,0-.14,1.25c.28.47,1.44.7,3.49.7s3.25-.23,3.62-.7,1.3-.69,2.79-.69l-3.62,2.51c-.94,0-1.45-.09-1.54-.28s-1.16-.28-3.2-.28q-7.53,0-6.69,4.18,2.22-.55,5.15-1.11c2-.38,3.67-.75,5.16-1.12a4.5,4.5,0,0,1-2.09,1.67,3.51,3.51,0,0,0-1.53.84,7.72,7.72,0,0,1-2.37.28,16,16,0,0,0-3.76.55,6.56,6.56,0,0,0,2.23.7,10.74,10.74,0,0,1,2.5.7,7.94,7.94,0,0,1-4.18,1.39h-4.46c-.37.19-.32.38.14.56a17.31,17.31,0,0,0,1.68.56,13.72,13.72,0,0,0,2.23.41,16.31,16.31,0,0,0,1.81.14c-1.12.94-2.37,1.91-3.77,2.93a12.4,12.4,0,0,0-3.48,4,13.84,13.84,0,0,1-5.85,3.07,20.31,20.31,0,0,0-6.13,2.51c2,.74,3.11,1.3,3.2,1.67a1.16,1.16,0,0,1-.42,1.11l-2.78.84c-.19,1.67-.38,2.56-.56,2.65a11.76,11.76,0,0,0-1.67,1.53,3.43,3.43,0,0,1-1.68.84,3.15,3.15,0,0,1-1-.14,10.05,10.05,0,0,0-1.12-.28,3,3,0,0,0-1.81.42c.93,1.49,1.21,2.46.84,2.92a3,3,0,0,1-1.67,1,9.39,9.39,0,0,0-1.95.7c-.56.27-.56.88,0,1.81l-10,10a29,29,0,0,0-4.32,3.9,52.87,52.87,0,0,1-4.32,4.18c-.37.19-.28.66.28,1.4a19.32,19.32,0,0,0,2.37,2.51l3.2,2.92c1.12,1,2,1.81,2.51,2.37q.29.29,1.53,2c.84,1.12,1,1.86.42,2.23l1.95.56c.93.93,1.26,1.21,1,.84s-.24-.38.14,0q3.9,4.45,6.13,6.54l2.51,2.37c1.48.94,2.09,1.63,1.81,2.09a2.55,2.55,0,0,1-1.81,1,16.92,16.92,0,0,1-4.46,0q0,.55.84.84l.83.55c1.67.19,3.07.33,4.18.42l3.07.28a3.53,3.53,0,0,1,1.67.42,43.45,43.45,0,0,0,5.44,3.76c1.76,1,2.55,1.72,2.37,2.09a4.37,4.37,0,0,0,.13,3.35,5.28,5.28,0,0,0,2,1.81c.83.46,1.71.93,2.64,1.39a3.9,3.9,0,0,1,1.95,2.37,3.68,3.68,0,0,0,1.54,1.25,30.09,30.09,0,0,1,2.78,1.82,18,18,0,0,1,2.79,2.5A6,6,0,0,1,755.93,562.49Zm-84.17-20.07,4.74-.28c3-.18,4.22-.46,3.76-.83s-1.9-.74-4.32-1.12h-2a5,5,0,0,0-2.23,1C671.2,541.63,671.2,542.05,671.76,542.42Zm13.66-59.36-1.67-12c-.38-1.48-.66-1.9-.84-1.25a24.42,24.42,0,0,0-.56,3.48,82.26,82.26,0,0,1,0,9.76Q684.3,486.12,685.42,483.06Zm32.89,9.19c1.67-1.85,1.11-2-1.67-.55a70.41,70.41,0,0,1-7.11,6.41q-2.65,2-4,3.2a6,6,0,0,0-1.81,2.51,14,14,0,0,0-.42,4q2.78-2.5,7-6.83T718.31,492.25Zm44.87,80.83c.56-.37-.19-1.39-2.23-3.06q-2.79-2.79-4.18-2.23-.84.56,2.23,3.06C760.86,572.71,762.25,573.46,763.18,573.08Z"/><ellipse class="cls-3" cx="674.94" cy="354.26" rx="40.8" ry="25.5"/></svg>