<svg id="Layer_1" data-name="Layer 1" xmlns="http://www.w3.org/2000/svg" viewBox="0 0 1500 1500"><defs><style>.cls-1{fill:#f2f2f3;}.cls-2{fill:#ddd;}.cls-3{fill:#bcbcbc;}.cls-4{fill:#25a2b3;}.cls-5{fill:#a8d2e2;}</style></defs><title>VINCO WHITE LOGO</title><path class="cls-1" d="M369.78,251.27a72.46,72.46,0,0,1,13.89-.24c6.55.29,13.09,1,19.64,1.24,4.24.14,8.41,1.25,12.67.77l2.54.27c4.68.74,9.34,1.75,14.06,2.13,3.41.28,6.7,1.67,10.19,1.05l2.7.38c5.82,1.15,11.6,2.51,17.46,3.38,2.63.39,5.17,1.62,7.92,1.07,15.11,2.85,30.07,6.39,44.86,10.49A598,598,0,0,1,573.84,291c14.85,5.81,29.51,12,43.84,19a532.24,532.24,0,0,1,76.64,45.5,484.74,484.74,0,0,1,49.48,39.82c24.5,22.87,47,47.58,66.57,74.86a563,563,0,0,1,32,49.44,577.57,577.57,0,0,1,27.77,55.82c7.3,16.77,13.72,33.85,19.62,51.12,4,11.57,7.29,23.36,10.6,35.15,4.05,14.44,7.3,29.06,10.69,43.64,1.45,6.25,2.28,12.64,3.44,19a15.77,15.77,0,0,0,1,3.3.86.86,0,0,0,1.44.2c1.15-1.55,2.23-3.17,3.23-4.83,11.82-19.7,25-38.46,38.69-56.89q15.84-21.33,33.09-41.51c9.86-11.53,19.86-23,30.5-33.78,6.82-6.94,13.38-14.13,20.29-21q29.47-29.13,61.57-55.35c15.55-12.65,31.59-24.63,47.94-36.19,11.75-8.31,23.86-16.07,36.11-23.6q16.65-10.23,33.83-19.52,23.08-12.44,47-23.16c12.25-5.45,24.63-10.6,37.18-15.31,15.47-5.81,31.14-11,47-15.76,14-4.19,28.17-7.62,42.38-10.83,11.94-2.69,23.94-5.22,36.1-6.85,5.78-.77,11.53-1.83,17.28-2.78a14.15,14.15,0,0,1,6.66,0c-9.31,3-18.36,5.72-27.33,8.72q-15.77,5.25-31.16,11.52c-13.5,5.51-26.75,11.55-39.87,17.89-12.43,6-24.55,12.61-36.54,19.44-11,6.25-21.72,12.91-32.31,19.82q-23.23,15.13-45.21,32c-15.25,11.77-30,24.11-44.18,37.2-10.41,9.63-20.66,19.43-30.45,29.73-13.55,14.25-26.59,28.93-39,44.19q-22.28,27.42-41.83,56.85c-13.26,19.93-25.39,40.51-36.66,61.61-8.52,16-16.4,32.21-23.79,48.72Q1014.57,777,1004,806.61c-5.58,15.55-10.78,31.23-15.48,47.08-3.72,12.48-7.38,25-10.45,37.65-3.49,14.35-6.91,28.73-10.06,43.16-2.48,11.39-4.86,22.83-6.63,34.35-2.37,15.38-5.35,30.68-6.81,46.2-.46,4.84-1.29,9.65-1.89,14.47-.73,6-1.49,12-2.09,18-.92,9.3-1.82,18.6-2.54,27.91-.84,10.86-1.52,21.74-2.18,32.62-.45,7.38-.67,14.77-1.14,22.15-.44,6.79,0,13.63-1,20.39a16.45,16.45,0,0,0,0,2.33c-.1,14.81-.24,29.62-.27,44.42,0,8-.22,16,.4,24,.45,5.84.19,11.68.74,17.49.12,1.28.51,2.62-.6,4.06-2-2-2.91-4.59-4.07-6.94-9.82-20-21.66-38.65-34.48-56.77A558.24,558.24,0,0,0,862.6,1126c-11-12.1-22.47-23.7-34.26-35-15.45-14.83-31.68-28.78-48.43-42.1-12-9.58-24.42-18.68-37-27.47q-24.68-17.18-50.53-32.49c-8.51-5.07-17.18-9.88-25.89-14.61-9.22-5-18.48-9.95-27.88-14.59q-15.93-7.86-32.16-15.11Q588.35,936.51,570,929c-9.18-3.74-18.52-7.08-27.84-10.44-10.24-3.7-20.48-7.38-30.82-10.77q-17.71-5.82-35.62-11.07-19.87-5.81-39.91-11c-9.4-2.46-18.93-4.45-28.41-6.63-3.22-.75-6.45-1.43-9.66-2.2-2.24-.54-2.81-1.22-3-3.7-.31-5.24-.63-10.48-.81-15.73-.63-18.48-1.16-37-1.81-55.45-.25-7.19-.75-14.37-1.09-21.55-.4-8.56-.81-17.11-1.13-25.67-.41-11.09-.39-22.2-1.16-33.26-.91-13-.71-26.08-1.63-39.09-1.18-16.5-1.11-33.06-2.09-49.56-.57-9.73-.55-19.46-1-29.18-.52-11.66-1.16-23.32-1.66-35-.59-14-1.09-28-1.64-42-.33-8.35-.72-16.71-1-25.07-.2-5.45-.23-10.9-.45-16.35-.3-7.58-.73-15.15-1.08-22.72-.39-8.36-.82-16.72-1.13-25.08-.42-11.09-.41-22.21-1.16-33.27-.92-13.41-.73-26.86-1.66-40.25-.9-13-1.2-26-1.6-39.07-.32-10.5-.86-21-1.31-31.5,0-.37-.07-.74-.11-1.11-.14-3.09.32-6.21-.39-9.28.72-6.47-.05-12.91-.55-19.35,0-.17-.21-.32-.32-.47Z"/><path class="cls-2" d="M861.58,1176.58c0,.77,0,1,0,1.16-.08.52.06,1.23-.74,1.27a1.29,1.29,0,0,1-1-.44,28.13,28.13,0,0,1-2-2.87A179.85,179.85,0,0,0,837.58,1148c-4.24-4.84-8.61-9.53-13.19-14a308.44,308.44,0,0,0-37.62-31.4,432.1,432.1,0,0,0-69-40.08q-24.87-11.58-50.7-20.76-20.61-7.31-41.67-13.25c-17.39-4.92-35-9.07-52.61-12.94q-15.1-3.32-30.32-5.94c-12.25-2.11-24.49-4.48-36.93-5.51-5.6-.47-11.16-1.53-16.75-2.26s-11.18-1.47-16.8-2c-9.68-.94-19.39-1.55-29-2.65-6.4-.72-12.83-.66-19.22-1.2-9.71-.82-19.47-.66-29.14-1.48-10.1-.85-20.21-.59-30.3-1.37-8.14-.63-16.36-.14-24.54-.15-1.76,0-3.51-.08-5.26,0a3.48,3.48,0,0,1-3.85-2.84c-.68-2.43-1.3-4.87-1.9-7.32q-3.82-15.59-7.64-31.17-5.16-21-10.36-41.89l-7.59-30.55q-6.47-26-12.92-52.08c-3.35-13.59-6.62-27.21-10-40.8-3.59-14.53-7.27-29-10.85-43.58-3.45-14-6.82-28-10.26-41.93-2.47-10-5.06-20-7.51-30-3.48-14.16-6.82-28.35-10.33-42.51-3.4-13.78-7-27.51-10.41-41.29-3.54-14.35-6.92-28.73-10.44-43.09-2.32-9.44-4.88-18.82-7.12-28.28-1.93-8.13-4.21-16.17-5.89-24.37-1.51-7.41-3.84-14.66-5.7-22-2.19-8.67-4.25-17.37-6.38-26.05-2.6-10.58-5.24-21.14-7.81-31.72-1.93-7.94-3.74-15.9-5.66-23.84-.5-2.07-1.34-4.07-1.78-6.15s-.45-3.58,2.64-4c7.14-1,14.22-2.28,21.36-3.19,12.54-1.58,25.09-3.08,37.66-4.38,5-.52,10.12-.34,15.18-.64,10.1-.6,20.21-1.32,30.33-.85,14.16.65,28.36.94,42.32,4.06,4.94,1.1,9.89,2.08,14.72,3.63.92.29,1.83.62,2.75.94a3.56,3.56,0,0,1,2.72,3.39c.18,3.1.52,6.2.6,9.31.19,6.43.18,12.86.38,19.28.22,7.19.64,14.38.89,21.56.48,13.82.64,27.65,1.45,41.44.56,9.33.58,18.66,1,28,.72,17.51,1,35,1.65,52.53.36,9.5.42,19,1.4,28.54.44,4.24.27,8.56.36,12.84.1,5.26-.14,10.55.35,15.77,1.09,11.65.34,23.36,1.18,35,.83,11.47.61,22.95,1.21,34.41.41,8,.28,16,1,23.9.92,9.73.46,19.46,1,29.17.3,5.43.61,10.87.76,16.3.28,9.54.32,19.09.67,28.63.41,11.08,1.1,22.14,1.56,33.21.31,7.59.4,15.19.63,22.78q.48,15.75,1,31.49c.26,7.19.59,14.38.91,21.57,0,1,.15,1.94.27,2.91a2.94,2.94,0,0,0,2.58,2.73c7.81,1.59,15.65,3.1,23.43,4.83,10.62,2.36,21.22,4.84,31.81,7.37q13.62,3.24,27.17,6.73c7.15,1.82,14.31,3.65,21.4,5.71,16.25,4.71,32.5,9.4,48.66,14.42,11.69,3.63,23.38,7.29,34.86,11.58,9.47,3.54,19.07,6.73,28.55,10.24q13.13,4.88,26.1,10.11,14.07,5.69,28,11.75c7.82,3.44,15.52,7.15,23.24,10.8,6,2.83,12,5.66,17.86,8.65a649.62,649.62,0,0,1,60.17,34.55,424.38,424.38,0,0,1,51.43,39.28,265.17,265.17,0,0,1,40,44.69,180.79,180.79,0,0,1,19.44,35.14,168.85,168.85,0,0,1,8.11,24.91C861.16,1174.07,861.39,1175.61,861.58,1176.58Z"/><path class="cls-3" d="M843.89,1176.12a5,5,0,0,1-3.14-1.36,99.55,99.55,0,0,0-11.56-7.85c-3.14-1.92-6.23-3.94-9.24-6.06a63.41,63.41,0,0,0-12-7.06c-2.68-1.11-5-3-7.5-4.34-4.27-2.29-8.6-4.46-12.92-6.63-6.93-3.48-14-6.77-21.11-9.8-8.58-3.64-17.36-6.81-25.95-10.42-2.54-1.07-5.2-1.55-7.77-2.44-7.88-2.72-15.76-5.46-23.75-7.84-7.8-2.33-15.71-4.31-23.61-6.28-9.22-2.29-18.48-4.4-27.73-6.59a52.53,52.53,0,0,0-8.58-1.4c-5.3-.36-10.24-2.25-15.46-2.81-4.61-.49-9.16-1.59-13.78-2a69.63,69.63,0,0,1-8.63-1.17c-4-.88-8.18-.7-12.1-1.44-6.54-1.24-13.24-.13-19.67-1.95a3.23,3.23,0,0,0-1.16-.12c-7.61.47-15.09-1.28-22.67-1.27-2.91,0-5.81.12-8.68-.82a15.2,15.2,0,0,0-4.64-.24H492c-2.14,0-4.28-.14-6.36.64a5.77,5.77,0,0,1-2.29.37c-8.77-.51-17.42,1.64-26.19,1.26a16.28,16.28,0,0,0-6.91.8,5,5,0,0,1-1.73.24c-5.63.09-11.23.6-16.84,1.11a157.93,157.93,0,0,0-17.87,2.19c-3.79.78-7.71.72-11.56,1.18-4.41.54-8.83,1.3-13.28,1.56a14.58,14.58,0,0,0-2.88.39,109,109,0,0,1-20.08,3.13,23.84,23.84,0,0,0-2.84.58c-7,1.33-14.06,2.8-21.14,3.89-2.33.36-4.56.91-6.83,1.43a73.42,73.42,0,0,1-9.65,2c-7,.65-13.57,3.29-20.49,4.26-.77.1-1.5.43-2.27.54-2.29.32-3.28-.17-4.2-2.21-3.26-7.24-6.37-14.55-9.74-21.73-2.13-4.55-4.06-9.19-6.09-13.77-3.07-6.92-6.18-13.81-9.26-20.71-2.45-5.49-4.9-11-7.47-16.42-2.31-4.9-4.29-10-6.48-15-3.11-7.08-6.33-14.11-9.27-21.28-2.71-6.61-5.7-13.15-8.84-19.54-3.34-6.78-5.95-13.88-9.47-20.6-2.41-4.59-4.1-9.63-6.3-14.4q-5.73-12.4-11.23-24.9c-3.77-8.53-7.4-17.12-11.14-25.66-1.71-3.9-3.54-7.74-5.32-11.61-4-8.62-7.75-17.33-11.57-26-1.93-4.4-3.56-9-6.15-13.12a12.77,12.77,0,0,1-1-2.09c-3.73-9.59-8.4-18.77-12.36-28.25-6.37-15.22-13.51-30.1-20-45.27q-6.28-14.66-13-29.16c-3.15-6.86-6.28-13.75-9.54-20.56-2.33-4.86-4.31-10-6.47-15-3.4-7.83-6.94-15.59-10.42-23.38-2.2-4.94-4.23-10-6.64-14.82-2.58-5.19-4.36-10.74-7.18-15.83a59.18,59.18,0,0,1-2.48-5.9c-2.5-5.88-5.14-11.72-7.86-17.48-2.31-4.89-3.9-10.1-6.79-14.78-2.1-3.41-3.3-7.4-4.75-11.19-1.73-4.54-4.31-8.66-6.07-13.21-2.72-7.06-5.89-14-9-20.85-3-6.68-5.83-13.52-9.33-20a47.73,47.73,0,0,1-2.86-7.62c-.57-1.73.08-3,1.84-3.75,3.58-1.51,7.23-2.83,10.78-4.41,9.58-4.28,19.49-7.7,29.41-11,6.23-2.1,12.31-4.71,18.78-6.17,4.14-.94,8.12-2.57,12.25-3.6,7.52-1.87,15-3.94,22.66-5.11,5.36-.82,10.66-2.32,16.07-2.54,7.39-.3,14.81-.23,22.21,0,4.92.13,9.43,2.26,13.92,4a6.77,6.77,0,0,1,3.84,4.86c2.07,8.08,4.38,16.1,6.5,24.17.83,3.19,1.28,6.48,2.12,9.66,2.33,8.79,4.86,17.53,7.15,26.34,2.19,8.44,4.06,17,6.26,25.4,3.28,12.57,6.76,25.08,10.08,37.63.89,3.37,1.24,6.91,2.36,10.19,2.88,8.46,4.16,17.31,6.83,25.83,2.37,7.58,3.72,15.47,5.92,23.1,2.51,8.77,4.65,17.64,7,26.45,2,7.66,3.94,15.4,5.87,23.1,2.15,8.62,4.13,17.32,6.68,25.86,2.39,8,4.17,16.14,6.24,24.21,2.71,10.52,5.48,21,8.18,31.55,1.83,7.12,3.28,14.36,5.49,21.35,2.4,7.6,3.59,15.49,6.13,23,.68,2,.89,4.16,1.43,6.22,2.6,9.93,5.26,19.85,7.87,29.78,2.81,10.68,5.71,21.35,8.36,32.08q5.49,22.29,11.67,44.41a68.87,68.87,0,0,1,1.67,7.37c1,6.14,3.19,12,4.78,18,.69,2.6.87,2.83,3.6,2.75,4.25-.12,8.55.48,12.76-.85a16,16,0,0,1,4.65-.23H396c2.14,0,4.28-.15,6.36.61a6,6,0,0,0,2.29.39c8.38-.48,16.63,1.64,25,1.26,3.29-.15,6.63-.29,9.83.91a2.62,2.62,0,0,0,1.15.13c7-.53,13.92,1.19,20.91,1.39a60.31,60.31,0,0,1,10.94,1.46,57.36,57.36,0,0,0,6.34.76c5.78.6,11.52,1.49,17.3,2,6,.51,11.8,2.23,17.81,2.84a141.69,141.69,0,0,1,22.28,4c2.65.7,5.35.73,8,1.37,12.06,2.88,24.31,4.91,36.28,8.24,6.91,1.91,14.05,3.07,20.87,5.26,5.54,1.79,11.21,3.09,16.73,4.93,7.36,2.45,14.9,4.41,22.16,7.12,9.26,3.47,18.76,6.28,27.73,10.56,4.17,2,8.62,3.48,13,5.09,8.57,3.18,16.75,7.25,25,11,9.13,4.18,18.05,8.92,26.83,13.87,5.89,3.32,12,6.26,17.67,10,6.48,4.27,13.26,8,19.77,12.27,9.61,6.25,18.71,13.16,28.07,19.74a80.31,80.31,0,0,1,9.54,7.65,64.36,64.36,0,0,0,8.05,6.71,56.3,56.3,0,0,1,6.61,5.71c6.24,5.85,12.94,11.21,18.72,17.56,1.17,1.27,2.71,2.31,2.58,4.35Z"/><path class="cls-4" d="M678.62,1023c-.09,0-.23-.08-.24-.13a1.8,1.8,0,0,1,.08-.39c.09,0,.25.08.25.13A1.83,1.83,0,0,1,678.62,1023Z"/><path class="cls-5" d="M275.56,292.34c0,.3.05.61.08.91a4.6,4.6,0,0,1-.37-.64C275.25,292.56,275.45,292.43,275.56,292.34Z"/><path class="cls-5" d="M663.62,1018.09l.44.39c-.09,0-.22,0-.27-.06a1.61,1.61,0,0,1-.16-.35Z"/></svg>