<svg id="Layer_1" data-name="Layer 1" xmlns="http://www.w3.org/2000/svg" xmlns:xlink="http://www.w3.org/1999/xlink" viewBox="0 0 1500 1500"><defs><style>.cls-1{fill:none;}.cls-2{clip-path:url(#clip-path);}.cls-3{fill:#f2f2f3;}.cls-4{fill:#ddd;}.cls-5{fill:#bcbcbc;}.cls-6{fill:#25a2b3;}.cls-7{fill:#a8d2e2;}</style><clipPath id="clip-path"><rect class="cls-1" y="45.71" width="1501.38" height="1311.43"/></clipPath></defs><title>VINCO WHITE FULL</title><g class="cls-2"><path class="cls-3" d="M275,258.69a59.49,59.49,0,0,1,11.4-.2c5.38.24,10.75.84,16.13,1,3.48.11,6.9,1,10.4.63l2.08.22c3.85.61,7.68,1.44,11.55,1.75,2.8.23,5.51,1.37,8.37.86l2.22.32c4.77.95,9.52,2.06,14.33,2.77,2.16.32,4.25,1.33,6.51.88,12.4,2.34,24.68,5.24,36.83,8.61a489.86,489.86,0,0,1,47.73,15.76c12.19,4.77,24.23,9.88,36,15.6a437.42,437.42,0,0,1,62.93,37.36A398.06,398.06,0,0,1,582.14,377a416.86,416.86,0,0,1,54.66,61.47A458.83,458.83,0,0,1,663,479a472.34,472.34,0,0,1,22.81,45.84c6,13.76,11.26,27.79,16.11,42,3.25,9.5,6,19.18,8.7,28.86,3.33,11.85,6,23.86,8.78,35.83,1.19,5.14,1.87,10.38,2.83,15.57a12.69,12.69,0,0,0,.83,2.71.71.71,0,0,0,1.18.16,45.51,45.51,0,0,0,2.65-4c9.71-16.18,20.53-31.58,31.78-46.71q13-17.52,27.17-34.09c8.09-9.46,16.3-18.84,25-27.74,5.59-5.69,11-11.6,16.66-17.21q24.2-23.92,50.55-45.45c12.77-10.39,25.94-20.22,39.37-29.72,9.65-6.82,19.58-13.19,29.65-19.38q13.67-8.38,27.77-16,19-10.21,38.62-19c10.06-4.49,20.23-8.71,30.53-12.58,12.7-4.77,25.57-9,38.57-12.94,11.48-3.44,23.13-6.26,34.8-8.89,9.8-2.21,19.66-4.29,29.64-5.63,4.75-.63,9.46-1.5,14.19-2.28a11.63,11.63,0,0,1,5.47,0c-7.65,2.43-15.08,4.7-22.44,7.16q-12.94,4.32-25.59,9.46c-11.08,4.52-22,9.49-32.73,14.69-10.21,4.93-20.16,10.36-30,16-9,5.13-17.83,10.61-26.53,16.27q-19.08,12.44-37.12,26.3C979.79,447.9,967.65,458,956,468.78c-8.55,7.91-17,16-25,24.41-11.12,11.7-21.83,23.76-32,36.29q-18.3,22.51-34.35,46.67c-10.88,16.37-20.84,33.27-30.1,50.59-7,13.1-13.47,26.45-19.54,40q-10.56,23.6-19.27,47.93-6.87,19.16-12.71,38.65c-3,10.25-6,20.52-8.58,30.91-2.86,11.79-5.67,23.59-8.25,35.44-2,9.36-4,18.75-5.45,28.21-1.95,12.63-4.39,25.19-5.59,37.94-.38,4-1.06,7.91-1.55,11.88-.6,4.91-1.23,9.83-1.72,14.76-.76,7.63-1.49,15.27-2.08,22.91-.69,8.92-1.25,17.86-1.8,26.79-.37,6.06-.54,12.13-.93,18.18-.36,5.58,0,11.19-.81,16.75a12.14,12.14,0,0,0,0,1.91c-.08,12.16-.19,24.32-.22,36.48,0,6.55-.18,13.14.33,19.66.37,4.79.16,9.59.61,14.36.1,1,.42,2.15-.5,3.34-1.62-1.68-2.39-3.77-3.34-5.71a344.43,344.43,0,0,0-28.3-46.6,458.73,458.73,0,0,0-35.14-43.64c-9-9.93-18.45-19.46-28.13-28.75-12.69-12.19-26-23.63-39.77-34.58-9.87-7.86-20-15.33-30.41-22.55q-20.25-14.1-41.48-26.68c-7-4.16-14.11-8.11-21.26-12-7.57-4.11-15.17-8.17-22.89-12q-13.08-6.47-26.41-12.41-14.85-6.63-29.91-12.79c-7.53-3.07-15.2-5.81-22.85-8.57-8.41-3-16.82-6.06-25.31-8.85Q376.72,793,362,788.66q-16.31-4.75-32.76-9.07c-7.73-2-15.55-3.64-23.33-5.44-2.65-.61-5.3-1.17-7.94-1.8-1.83-.44-2.3-1-2.42-3-.26-4.3-.53-8.61-.67-12.92-.52-15.17-.95-30.35-1.49-45.53-.2-5.9-.61-11.79-.89-17.69-.33-7-.67-14-.93-21.08-.33-9.1-.32-18.23-1-27.31-.74-10.69-.57-21.41-1.33-32.09-1-13.55-.91-27.15-1.72-40.7-.47-8-.45-16-.8-24-.43-9.57-.95-19.14-1.36-28.72-.49-11.49-.9-23-1.35-34.49-.27-6.86-.59-13.72-.84-20.58-.17-4.48-.19-9-.37-13.43-.26-6.22-.6-12.44-.89-18.66-.33-6.86-.68-13.73-.93-20.59-.34-9.11-.34-18.23-1-27.32-.75-11-.6-22.05-1.36-33.05-.74-10.68-1-21.38-1.31-32.08-.26-8.62-.71-17.24-1.08-25.86,0-.3-.06-.61-.08-.91-.12-2.54.25-5.1-.33-7.62.6-5.32,0-10.6-.45-15.89,0-.14-.17-.26-.26-.39C275.15,265.19,275.1,261.94,275,258.69Z"/><path class="cls-3" d="M1291.54,874.62a10,10,0,0,1-1.7-.3c-6.1-2.16-12.24-1.9-18.41-.41-1.24.3-2.51.52-3.77.7a.92.92,0,0,1-1.11-1.14c.38-2.2.9-4.37,1.32-6.57a20.63,20.63,0,0,0,0-8.57c-1.35-6-5.46-9.66-11.6-10.45-9.09-1.18-17.06,1.4-24.19,7a67,67,0,0,0-14.37,15.95A133.79,133.79,0,0,0,1203.36,900a250.35,250.35,0,0,0-7.74,26.63,210.51,210.51,0,0,0-4.8,32.19c-.94,11.81-.67,23.66,2.45,35.23,2.06,7.6,5.66,14.19,12.67,18.48,4.81,2.94,10.18,3.66,15.59,4.1a35.68,35.68,0,0,0,10.5-.7c2.81-.63,5.69-.59,8.52-1.29a95.8,95.8,0,0,0,33.55-15.84,152.18,152.18,0,0,0,18.16-15.58,7.65,7.65,0,0,0,2.39-6,190.07,190.07,0,0,1,1.78-28.22,216,216,0,0,1,5.71-28.64c4.07-14.52,9.58-28.39,17.53-41.27,11.53-18.69,26.8-33.3,46.75-42.66a102.48,102.48,0,0,1,29.25-8.66,138.94,138.94,0,0,1,22.5-.92,62.13,62.13,0,0,1,23.68,5.39,32.62,32.62,0,0,1,7.29,4.55c5.45,4.41,6.77,9.51,4.68,16.3a17.73,17.73,0,0,1-5.13,7.93,30.55,30.55,0,0,1-11.53,6.63c-2.26.73-2.83.59-3.78-1.5a22.47,22.47,0,0,0-4.8-7.12c-5.37-5.1-11.78-6.72-19-5.28-9,1.79-16.15,6.65-22.09,13.45a80,80,0,0,0-10.68,15.86c-6.8,13.12-11.34,27-14.88,41.36a265.07,265.07,0,0,0-5.93,32.5c-1.07,9.18-2.2,18.43-1.39,27.73.45,5.08,1.13,10.1,3.46,14.82a23,23,0,0,0,14.36,12.47,39.79,39.79,0,0,0,13.21,2,25.14,25.14,0,0,0,16.35-7.06,60.09,60.09,0,0,0,13.12-18.14,164.37,164.37,0,0,0,11.73-33.36c2.18-8.71,3.33-17.57,4.88-26.38.14-.78.25-1.58.32-2.37a1.84,1.84,0,0,0-1.06-2c-.58-.26-1.19-.47-1.78-.71-6.27-2.53-8.63-7.68-9.31-13.93-1-9.09,2.07-17,7.32-24.17a37.68,37.68,0,0,1,10.39-9.82,23.62,23.62,0,0,1,19.27-3.06c5.53,1.45,8,4.56,8.21,10.28,0,1,0,1.92.08,2.88a.86.86,0,0,0,1.38.63,50.8,50.8,0,0,0,5.66-4.4c5.07-4.68,9.33-10.06,13.69-15.35,5.5-6.67,4.7-5.34,8,.84a7.34,7.34,0,0,1,.51,6.77c-1.86,4.75-3.25,9.66-5.26,14.37-4.14,9.69-9.67,18.34-17.71,25.25a51.22,51.22,0,0,1-4.57,3.46,3.46,3.46,0,0,0-1.77,3.15c.13,5.3-.7,10.53-1.35,15.75-.78,6.18-1.88,12.33-3.17,18.42a180.18,180.18,0,0,1-10.52,33.3,139.38,139.38,0,0,1-24.88,39.54A98.84,98.84,0,0,1,1400,1048.3c-10.92,6-22.43,10-35.16,9.63-7.68-.2-15.37-.09-22.92-1.67-10.29-2.14-19.88-5.77-27.92-12.89a49.45,49.45,0,0,1-11-14.34,58.32,58.32,0,0,1-5.15-13.89c-.68-2.95-1.75-5.82-1.81-8.91,0-.93-.13-2.14-1.22-2.35s-1.65.83-2.26,1.56c-1.32,1.59-2.56,3.27-3.9,4.85a134.8,134.8,0,0,1-24.77,23.19,110.31,110.31,0,0,1-26.13,13.89,123.9,123.9,0,0,1-26.91,6.58A141.09,141.09,0,0,1,1185,1055c-10-.59-19.55-2.88-28.22-8.18a48.88,48.88,0,0,1-15.79-15.78,32.06,32.06,0,0,1-2.81-5c-1.77-4.3-2.41-3.34-5.09-.66a160.82,160.82,0,0,1-18,15.79,84.06,84.06,0,0,1-18.64,10.7,42.6,42.6,0,0,1-14.91,3.21,84.89,84.89,0,0,1-24.71-2.59,48.22,48.22,0,0,1-16.37-7.66c-7.64-5.7-12.2-13.38-14.65-22.42a41.49,41.49,0,0,1-1.58-9.92c-.22-10.41,0-20.74,2.49-31,2.21-9.16,3.72-18.48,5.65-27.7,1.54-7.34,3.32-14.64,4.87-22,1.92-9.07,3.69-18.16,5.58-27.23a68.76,68.76,0,0,0,1.82-12.3,34.75,34.75,0,0,0-3.08-16.32c-2.3-4.77-5.72-8.41-10.85-10.25a16.12,16.12,0,0,0-6.58-1.1c-3.63.3-7.29.38-10.91,1.31a57.25,57.25,0,0,0-14.39,6.37,6.67,6.67,0,0,0-3.33,4.92c-1.94,9.7-4.06,19.37-6.07,29-1.59,7.66-3.09,15.33-4.67,23-1,4.69-2,9.37-3,14.06-1.64,7.81-3.22,15.64-4.87,23.44-1.4,6.57-2.89,13.11-4.28,19.67-2.06,9.69-4.05,19.39-6.1,29.08-1.62,7.65-3.29,15.3-4.92,23-1,4.84-2,9.69-3.1,14.52-.47,2.1-.74,2.22-2.94,2.33-.32,0-.64,0-1,0H897.48a19,19,0,0,1-2.39-.12,1.45,1.45,0,0,1-1.42-1.59,44.12,44.12,0,0,1,.74-4.72c1.41-6.72,2.88-13.43,4.28-20.15a1.52,1.52,0,0,0-.33-1.29,1.47,1.47,0,0,0-1.31.11c-1.31.91-2.59,1.88-3.81,2.9a171.06,171.06,0,0,1-19.37,14.07,85.37,85.37,0,0,1-14.93,7.55,43.6,43.6,0,0,1-15,3,83.12,83.12,0,0,1-23.26-2.65c-9.42-2.6-17.82-7-23.94-15a43.42,43.42,0,0,1-8.61-21c-1.6-11.72-.35-23.25,2.2-34.73,2-9.19,3.82-18.45,5.75-27.67,1.44-6.87,2.94-13.73,4.42-20.6.64-3,1.33-5.91,2-8.87q3.15-15,6.29-30c1.55-7.51,3-15,4.6-22.54s3.32-15,4.94-22.46c1-4.53,1.85-9.08,2.76-13.62.1-.47.18-.95.29-1.41.88-3.82.88-3.86,4.69-3.87q13.92,0,27.84,0c9.28,0,18.56,0,27.83,0a13.88,13.88,0,0,1,5,.37c.52,1.36-.17,2.68-.42,4s-.47,2.83-.76,4.24c-2.51,12-5,24.07-7.57,36.1-1.54,7.18-3.27,14.32-4.81,21.5s-2.94,14.4-4.43,21.59c-1,5-2.13,10-3.18,15-2.85,13.43-5.63,26.88-8.55,40.3-1.29,5.93-2.54,11.87-3.38,17.88a28.33,28.33,0,0,0,.43,11.41,11.56,11.56,0,0,0,6.89,8.09c6.61,2.73,13.43,3.83,20.58,1.71,6.71-2,12.51-5.6,18.14-9.53,5.1-3.56,5.11-3.63,6.48-9.87,2-9.19,4-18.42,5.92-27.63q2.28-10.77,4.55-21.56c2.12-10.16,4.2-20.33,6.34-30.48,1.93-9.23,3.94-18.44,5.88-27.66,1.54-7.34,3-14.7,4.54-22,1.6-7.49,3.34-15,5-22.45.64-3,1.17-6,1.7-8.94a2.17,2.17,0,0,1,2.26-2q1.2-.06,2.4-.06h57.11c1.11,0,2.21.14,3.14.2.92,1.1.28,2,.09,2.85-1.27,5.94-2.6,11.86-3.9,17.78a1,1,0,0,0,.52,1.18,1.12,1.12,0,0,0,.91-.06c.81-.5,1.58-1.08,2.37-1.62a145.53,145.53,0,0,1,26.3-14.65c10-4.13,20.38-6.44,31.3-5.67a41.33,41.33,0,0,1,17.58,5.82,60.67,60.67,0,0,1,23.68,24.49,54.06,54.06,0,0,1,6.62,25.23,79.4,79.4,0,0,1-2.13,17.54c-1.61,7.65-3.08,15.33-4.7,23-1.56,7.34-3.28,14.65-4.85,22-1.45,6.72-2.78,13.46-4.2,20.18-1.14,5.47-2.36,10.92-3.48,16.38a65.36,65.36,0,0,0-1.63,10.41c0,.64-.15,1.27-.13,1.91.3,7.37,2.94,12.94,12,15.1,6.18,1.47,12.27,1.87,18.45-.07a33,33,0,0,0,9.73-5,3.77,3.77,0,0,0,1.8-3.65c-.15-1.43-.2-2.88-.45-4.29a73.17,73.17,0,0,1-.9-13.39c0-6.39-.07-12.8.22-19.18a152.73,152.73,0,0,1,2.07-19.53c.92-5.35,1.68-10.72,2.85-16a177.38,177.38,0,0,1,16.59-45.76,118.83,118.83,0,0,1,21-28.44,94,94,0,0,1,28.72-19.57,102.48,102.48,0,0,1,41.44-8.56c1.6,0,3.21.07,4.8,0,7.76-.4,15.35.94,22.75,2.9s14,5.33,18.8,11.65a22.11,22.11,0,0,1,4.47,10.45c.85,6.52.89,13.09-1.36,19.44A4.67,4.67,0,0,1,1291.54,874.62Z"/><path class="cls-4" d="M678.85,1018.45c0,.64,0,.8,0,1-.07.43,0,1-.6,1a1.08,1.08,0,0,1-.79-.36,23.49,23.49,0,0,1-1.62-2.36A148.34,148.34,0,0,0,659.15,995c-3.48-4-7.07-7.83-10.83-11.53a254.43,254.43,0,0,0-30.89-25.78,356.22,356.22,0,0,0-56.68-32.92q-20.43-9.5-41.64-17-16.92-6-34.21-10.88c-14.28-4-28.7-7.45-43.19-10.63-8.27-1.81-16.59-3.44-24.9-4.87-10.06-1.73-20.11-3.68-30.32-4.53-4.61-.38-9.17-1.26-13.76-1.85s-9.18-1.21-13.79-1.66c-7.95-.77-15.92-1.27-23.86-2.17-5.25-.6-10.53-.54-15.77-1-8-.67-16-.55-23.93-1.21-8.29-.7-16.6-.49-24.88-1.13-6.68-.52-13.44-.12-20.16-.13-1.43,0-2.88-.06-4.31,0a2.87,2.87,0,0,1-3.16-2.33c-.56-2-1.07-4-1.56-6-2.1-8.53-4.17-17.06-6.27-25.59q-4.24-17.21-8.52-34.4-3.11-12.54-6.22-25.08-5.31-21.37-10.61-42.76c-2.76-11.16-5.44-22.34-8.19-33.5-2.95-11.93-6-23.85-8.91-35.79-2.83-11.46-5.59-22.95-8.42-34.42-2-8.21-4.16-16.4-6.17-24.61-2.85-11.63-5.6-23.28-8.48-34.9-2.8-11.32-5.75-22.59-8.55-33.91-2.91-11.78-5.68-23.59-8.57-35.38-1.91-7.75-4-15.45-5.85-23.22-1.58-6.67-3.45-13.28-4.83-20-1.25-6.09-3.16-12-4.68-18.07-1.8-7.12-3.49-14.27-5.24-21.4-2.14-8.68-4.31-17.35-6.42-26-1.58-6.52-3.07-13-4.64-19.57-.41-1.7-1.1-3.34-1.46-5.05s-.37-2.94,2.17-3.27c5.85-.78,11.67-1.88,17.53-2.62,10.29-1.3,20.6-2.53,30.92-3.6,4.13-.42,8.31-.28,12.47-.52a235.15,235.15,0,0,1,24.9-.7c11.63.54,23.29.77,34.75,3.33,4.06.91,8.12,1.71,12.08,3,.76.24,1.51.52,2.27.77a2.94,2.94,0,0,1,2.23,2.79c.15,2.55.42,5.09.5,7.65.14,5.27.14,10.55.3,15.83.19,5.9.53,11.8.73,17.7.4,11.34.53,22.7,1.2,34,.45,7.67.47,15.33.79,23,.6,14.37.83,28.76,1.36,43.12.29,7.81.34,15.64,1.15,23.44.36,3.49.22,7,.29,10.55.08,4.31-.11,8.66.29,12.94.9,9.57.28,19.19,1,28.74s.5,18.85,1,28.26c.34,6.54.23,13.12.84,19.62.76,8,.38,16,.82,23.95.25,4.46.5,8.92.63,13.39.22,7.83.26,15.67.55,23.5.33,9.1.9,18.18,1.27,27.27.26,6.23.33,12.47.52,18.7q.39,12.93.84,25.86c.21,5.91.49,11.81.74,17.71,0,.8.13,1.6.23,2.39a2.42,2.42,0,0,0,2.12,2.25c6.41,1.3,12.84,2.54,19.23,4,8.73,1.93,17.43,4,26.13,6q11.18,2.67,22.3,5.53c5.88,1.49,11.75,3,17.57,4.69,13.34,3.87,26.69,7.72,40,11.84,9.6,3,19.2,6,28.62,9.5,7.78,2.91,15.66,5.53,23.45,8.42q10.77,4,21.43,8.29c7.69,3.12,15.36,6.31,23,9.65,6.42,2.82,12.74,5.87,19.09,8.87,4.9,2.32,9.82,4.64,14.66,7.1a536.25,536.25,0,0,1,49.41,28.37,348.69,348.69,0,0,1,42.22,32.25,218,218,0,0,1,32.82,36.7,149,149,0,0,1,16,28.85,139.19,139.19,0,0,1,6.65,20.46C678.5,1016.4,678.7,1017.66,678.85,1018.45Z"/><path class="cls-5" d="M664.32,1018.07a4.06,4.06,0,0,1-2.57-1.11,82.63,82.63,0,0,0-9.5-6.45q-3.87-2.35-7.58-5a52.17,52.17,0,0,0-9.86-5.8c-2.19-.91-4-2.44-6.15-3.56-3.51-1.88-7.06-3.66-10.61-5.44-5.69-2.86-11.47-5.57-17.34-8.06-7-3-14.25-5.58-21.3-8.55-2.09-.88-4.27-1.27-6.38-2-6.47-2.24-12.94-4.48-19.5-6.44-6.41-1.91-12.9-3.54-19.39-5.15-7.57-1.89-15.18-3.62-22.77-5.42a44.44,44.44,0,0,0-7.05-1.15c-4.35-.29-8.4-1.84-12.69-2.3-3.78-.41-7.52-1.31-11.31-1.68a58.59,58.59,0,0,1-7.09-1c-3.27-.73-6.71-.58-9.93-1.19-5.37-1-10.88-.11-16.15-1.6a2.77,2.77,0,0,0-.95-.1c-6.25.38-12.4-1-18.62-1a22.37,22.37,0,0,1-7.13-.68,12.65,12.65,0,0,0-3.81-.19H375.36a14.59,14.59,0,0,0-5.21.53,4.67,4.67,0,0,1-1.88.3c-7.21-.42-14.31,1.35-21.51,1a13.56,13.56,0,0,0-5.68.65,3.71,3.71,0,0,1-1.41.2c-4.63.07-9.22.49-13.83.92a129.56,129.56,0,0,0-14.68,1.79c-3.1.64-6.33.59-9.49,1-3.62.44-7.25,1.06-10.9,1.27a12.53,12.53,0,0,0-2.37.33,90,90,0,0,1-16.48,2.56,18.89,18.89,0,0,0-2.33.48c-5.79,1.09-11.55,2.3-17.37,3.19-1.9.3-3.74.75-5.6,1.18a62.29,62.29,0,0,1-7.93,1.62c-5.75.54-11.14,2.71-16.82,3.5-.63.09-1.23.36-1.86.44-1.88.26-2.7-.13-3.45-1.81-2.68-5.94-5.23-11.95-8-17.84-1.75-3.74-3.33-7.55-5-11.31-2.52-5.68-5.07-11.34-7.6-17-2-4.5-4-9-6.13-13.48-1.9-4-3.53-8.2-5.32-12.29-2.56-5.81-5.2-11.59-7.62-17.47-2.22-5.42-4.68-10.79-7.26-16-2.74-5.57-4.88-11.4-7.77-16.92-2-3.76-3.37-7.91-5.18-11.82Q152,819,147.46,808.77c-3.09-7-6.07-14.06-9.15-21.07-1.4-3.2-2.9-6.36-4.36-9.53-3.26-7.08-6.36-14.23-9.5-21.36-1.59-3.61-2.92-7.39-5-10.77a9.87,9.87,0,0,1-.86-1.72c-3.07-7.87-6.9-15.41-10.15-23.19C103.16,708.63,97.29,696.41,92,684q-5.16-12-10.64-24c-2.59-5.62-5.16-11.28-7.83-16.88-1.92-4-3.54-8.19-5.32-12.28-2.79-6.43-5.7-12.8-8.55-19.2-1.81-4.06-3.48-8.19-5.45-12.16-2.12-4.27-3.59-8.82-5.9-13a48.2,48.2,0,0,1-2-4.85c-2-4.83-4.22-9.63-6.45-14.35-1.9-4-3.2-8.3-5.57-12.13-1.73-2.8-2.72-6.08-3.91-9.2-1.42-3.72-3.54-7.11-5-10.84-2.24-5.8-4.84-11.47-7.41-17.12-2.5-5.49-4.79-11.1-7.66-16.44A39.13,39.13,0,0,1,7.9,495.3a2.27,2.27,0,0,1,1.51-3.07c2.94-1.24,5.94-2.33,8.85-3.63,7.87-3.51,16-6.32,24.15-9.07,5.12-1.72,10.11-3.87,15.42-5.07,3.4-.77,6.67-2.11,10.06-2.95,6.18-1.54,12.34-3.24,18.61-4.2,4.4-.67,8.75-1.9,13.19-2.08,6.07-.25,12.16-.19,18.24,0,4,.11,7.74,1.86,11.43,3.32a5.57,5.57,0,0,1,3.15,4c1.7,6.64,3.6,13.22,5.34,19.85.68,2.61,1.05,5.31,1.74,7.93,1.91,7.22,4,14.4,5.87,21.63,1.8,6.93,3.33,13.93,5.14,20.85,2.69,10.32,5.55,20.59,8.28,30.9.73,2.76,1,5.67,1.93,8.37,2.37,6.94,3.42,14.21,5.61,21.21,2,6.22,3.06,12.69,4.86,19,2.07,7.2,3.82,14.48,5.72,21.72,1.65,6.29,3.24,12.65,4.81,19,1.77,7.09,3.4,14.23,5.5,21.24,1.95,6.55,3.41,13.25,5.12,19.88,2.23,8.64,4.49,17.27,6.71,25.9,1.51,5.85,2.69,11.79,4.51,17.54,2,6.23,2.95,12.71,5,18.9.56,1.65.74,3.42,1.18,5.11q3.21,12.24,6.46,24.45c2.31,8.78,4.69,17.53,6.86,26.34,3,12.21,6.18,24.37,9.59,36.47a56.89,56.89,0,0,1,1.37,6c.83,5,2.62,9.82,3.92,14.74.57,2.14.72,2.32,3,2.26,3.49-.11,7,.39,10.48-.7a13,13,0,0,1,3.81-.19h41.28a14.85,14.85,0,0,1,5.22.5,4.87,4.87,0,0,0,1.88.32c6.89-.39,13.66,1.34,20.55,1,2.7-.12,5.44-.24,8.07.75a2.13,2.13,0,0,0,.94.1c5.78-.44,11.43,1,17.18,1.14a49.69,49.69,0,0,1,9,1.2,46.07,46.07,0,0,0,5.2.62c4.74.49,9.46,1.23,14.21,1.63,4.93.42,9.68,1.83,14.62,2.33a116.37,116.37,0,0,1,18.3,3.25c2.17.58,4.39.6,6.58,1.13,9.9,2.37,20,4,29.79,6.76,5.68,1.58,11.54,2.52,17.13,4.33,4.55,1.46,9.21,2.53,13.74,4,6,2,12.23,3.62,18.19,5.85,7.61,2.84,15.41,5.16,22.78,8.67,3.42,1.63,7.07,2.85,10.64,4.18,7,2.61,13.75,5.95,20.54,9,7.5,3.42,14.82,7.32,22,11.39,4.83,2.72,9.88,5.13,14.51,8.17,5.32,3.51,10.88,6.6,16.23,10.08,7.89,5.13,15.37,10.81,23.05,16.21a65.26,65.26,0,0,1,7.83,6.28,53.49,53.49,0,0,0,6.61,5.51,46.78,46.78,0,0,1,5.43,4.68c5.12,4.81,10.62,9.21,15.37,14.42,1,1,2.22,1.9,2.12,3.58Z"/><path class="cls-3" d="M866.53,806.93c-11,.45-19.61-3.53-26.63-10.92a34,34,0,0,1-9.52-23.34,34.76,34.76,0,0,1,6.85-22.43c6.88-9.21,16-14.33,27.74-14.5,6-.09,11.74.82,17.1,3.67C894.33,746,901.18,756,901.74,770a34.23,34.23,0,0,1-1,10.92,34.89,34.89,0,0,1-19.46,22.93A28.52,28.52,0,0,1,866.53,806.93Z"/><path class="cls-3" d="M801.73,1086.89c-1,.52-.59,1.56-.6,2.4-.06,3.84,0,7.68,0,11.52,0,2.75-1.39,3.75-3.92,2.88a1.83,1.83,0,0,1-1-.92,3.5,3.5,0,0,1-.15-1.42q0-13.44,0-26.87c0-2.09.48-2.47,2.57-2.53q1,0,1.92,0a2.11,2.11,0,0,1,2.09,1.63c.51,1.68,1.09,3.34,1.57,5,1.45,5.06,2.86,10.14,4.33,15.19a1.4,1.4,0,0,0,1,.81c.28,0,.75-.51.86-.88,1.88-6.27,3.85-12.51,5.5-18.84.7-2.71,1.25-3,3.94-3l1,0a1.67,1.67,0,0,1,1.9,1.66c0,.32,0,.64,0,1q0,13.43,0,26.87c0,.78.12,1.64-.65,2.18a4.38,4.38,0,0,1-3.68-.2,1.91,1.91,0,0,1-.77-1.66l0-5.28c0-1,.06-1.92,0-2.87-.13-1.73.43-3.53-.55-5.16-2.06,1-1.8,3.09-2.36,4.79-1,3-1.91,6.09-2.88,9.13a2.11,2.11,0,0,1-1.73,1.46,2.18,2.18,0,0,1-2.49-1,14.2,14.2,0,0,1-1-2.66c-1.32-4.1-2.61-8.21-3.92-12.31C802.52,1087.46,802.52,1086.88,801.73,1086.89Z"/><path class="cls-3" d="M961.73,1102.9a21,21,0,0,1-3.23,1c-3.49.49-6.48-1-7.73-4.27a19.74,19.74,0,0,1,.23-15.4c1.36-3.14,5-5.89,9.47-3.45a2.14,2.14,0,0,0,2.58-.15,4.91,4.91,0,0,1,1.75-.68,2,2,0,0,1,2.37,1.78c.07.79.06,1.59.06,2.39,0,5.91,0,11.82,0,17.73a24.37,24.37,0,0,1-.48,4.75c-.9,4.19-3.84,6.52-8.17,6.63-2.09,0-4.18,0-6-1.22a1.72,1.72,0,0,1-.75-2.06,1.43,1.43,0,0,1,1.8-1.12c.94.19,1.86.48,2.81.62,3.23.45,4.75-.58,5.61-3.75a3.83,3.83,0,0,0,.1-1.43A6.77,6.77,0,0,0,961.73,1102.9Zm.75-10.82c-.11-1.61-.09-3.54-.4-5.41a3.78,3.78,0,0,0-3.31-3,3.45,3.45,0,0,0-3.39,2.17,7.52,7.52,0,0,0-.84,2.21,25.18,25.18,0,0,0,0,8.08,7.2,7.2,0,0,0,.84,2.2,3.22,3.22,0,0,0,3.57,1.77,3.42,3.42,0,0,0,3.27-3C962.41,1095.57,962.38,1094,962.48,1092.08Z"/><path class="cls-3" d="M1023.12,1088c0-4.47,0-8.94,0-13.41,0-2.18.44-2.62,2.46-2.65,4.15-.06,8.3,0,12.45,0,1.7,0,2.32.56,2.31,1.74,0,1.45-.68,2.07-2.52,2.14-1.6.07-3.19,0-4.79,0-1,0-1.92,0-2.87.08-1.37.12-2,.73-2.11,2.09-.08,1.91,0,3.83,0,5.74a1.76,1.76,0,0,0,1.85,1.79c2.23.09,4.47.07,6.7.14a1.75,1.75,0,0,1,1.56.91c.6,1,.11,2.58-1,2.64-2.23.12-4.47.07-6.7.15-1.75.07-2.3.62-2.46,2.24,0,.16,0,.32,0,.48,0,8.88-1.16,7.91,7.29,8,1.12,0,2.24,0,3.35.05s1.62.87,1.71,1.91a1.57,1.57,0,0,1-1.73,1.8q-6.95.08-13.88,0c-1.16,0-1.61-.84-1.62-1.95q0-4.54,0-9.09V1088Z"/><path class="cls-3" d="M1334.64,1103.93c-5.15,0-9-2.64-10.19-7a1.7,1.7,0,0,1,1.54-2.39c1.93-.26,2.55,0,3.44,2.26,1,2.51,2.84,3.29,5.26,3.29,2.24,0,3.49-.81,4.16-2.55.83-2.17.49-4.35-1.26-5.65a18.48,18.48,0,0,0-4.6-2.45,18.28,18.28,0,0,1-4.29-2.07,8.38,8.38,0,0,1-3.45-9.25,9,9,0,0,1,7.78-6.15,9.74,9.74,0,0,1,9.52,4.3,9,9,0,0,1,1.07,2.12c.48,1.31.11,2.68-.69,3a3,3,0,0,1-3.76-1c-.3-.56-.43-1.21-.73-1.77a4.68,4.68,0,0,0-6.07-2.22c-2.79,1.12-3.22,5.44-.78,7.69a12.34,12.34,0,0,0,3.33,1.84,47,47,0,0,1,5.14,2.52c3.58,2.24,4.68,4.92,3.64,10-.6,2.93-4.06,5.31-7.62,5.6C1335.6,1104,1335.12,1103.93,1334.64,1103.93Z"/><path class="cls-3" d="M1069.87,1087.2c0,4.79,0,9.58,0,14.37,0,2-1.36,3.08-3.09,2s-2.68-.69-4.29-.08a6.86,6.86,0,0,1-9-4.15,19.88,19.88,0,0,1,.44-15.38,6.77,6.77,0,0,1,4.11-3.81,6.47,6.47,0,0,1,5.52.61c.87.49,1.55,0,1.58-1,.09-2.55.1-5.1.18-7.65,0-1,.68-1.33,1.59-1.39,2.32-.16,2.93.29,3,2.55C1069.9,1078,1069.87,1082.58,1069.87,1087.2Zm-4.64,4.79h0c0-1.27,0-2.55,0-3.82a4.64,4.64,0,0,0-2.25-4,3,3,0,0,0-3.9.41,5.15,5.15,0,0,0-1.07,1.57,16.38,16.38,0,0,0-.07,11.66,3.62,3.62,0,0,0,3.78,2.3,3.68,3.68,0,0,0,3.42-3.39C1065.35,1095.18,1065.23,1093.58,1065.23,1092Z"/><path class="cls-3" d="M1163.06,1095.05c0,2.24-.13,4.48,0,6.71.14,1.72-.78,2-2.28,2.23-1.66.26-2.38-1.76-3.92-1.31-1.21.35-2.23,1.16-3.58,1.27-3.83.31-6.2-1.17-7.29-4.73a6.77,6.77,0,0,1,3.78-8.36,14.68,14.68,0,0,1,5.53-1.38c2,0,2.49-.62,2.47-2.09,0-2.06-.9-3.26-2.56-3.47a3.15,3.15,0,0,0-3,1.08c-.49.63-.82,1.38-1.33,2a2.65,2.65,0,0,1-3.07.36,2.15,2.15,0,0,1-.59-2.61,6.41,6.41,0,0,1,1.4-2.45,8.76,8.76,0,0,1,8.89-2.15c3.28.92,5.21,3.84,5.36,7.71.09,2.4,0,4.8,0,7.2Zm-7.66-2.19c-3.26.06-4.94,1.72-4.68,4.63a2.86,2.86,0,0,0,3.27,2.67c2.38-.28,3.76-1.93,3.85-4.62C1157.9,1093.59,1157.21,1092.83,1155.4,1092.86Z"/><path class="cls-3" d="M885.38,1103c-4,1.24-4.4,1.14-6-1.56-1.41-2.31-2.78-4.64-4.21-6.94a1.13,1.13,0,0,0-1.25-.47,1,1,0,0,0-.85,1c-.08,2.39-.07,4.78-.14,7.17,0,1.19-.53,1.56-1.87,1.59-1.67,0-2.24-.34-2.32-1.64,0-.79,0-1.59,0-2.39v-24.39c0-1,0-1.92.05-2.87.09-1.33.67-1.69,2.31-1.65,1.1,0,1.83.41,1.84,1.63,0,4,0,8,0,12,0,1.1.15,2.21.28,3.3.07.54,1.17.81,1.55.39a10.94,10.94,0,0,0,1.17-1.47,45.83,45.83,0,0,0,2.72-4.49c1-2.16,2.75-2.44,4.77-2,.61.13,1.19.62.73,1.38-1.33,2.17-2.61,4.39-4.11,6.44s-1.58,3.64-.21,5.66c1.52,2.23,2.84,4.59,4.23,6.91C884.52,1101.34,884.93,1102.18,885.38,1103Z"/><path class="cls-3" d="M854.44,1095.53c0,2.24,0,4.48,0,6.71,0,1.15-.57,1.67-1.79,1.68a2.44,2.44,0,0,0-.47,0c-1.62.42-2.42-1.77-3.93-1.31-1.19.37-2.18,1.23-3.54,1.33-3.79.28-6.07-1-7.12-4.23-1.19-3.64-.08-6.9,3.18-8.59a14,14,0,0,1,5.93-1.64c1.83-.08,2.25-.55,2.3-1.76.1-2.16-.62-3.41-2.18-3.73a2.93,2.93,0,0,0-3.36,1.22,14.7,14.7,0,0,1-1.35,2,2.74,2.74,0,0,1-3.12.13,2.13,2.13,0,0,1-.52-2.63,8.39,8.39,0,0,1,10.86-4.29,7.29,7.29,0,0,1,4.91,7c0,2.72,0,5.44,0,8.15Zm-7.73-2.67c-3.1.07-4.93,1.93-4.62,4.67a2.76,2.76,0,0,0,3.28,2.59c2.39-.34,3.7-1.92,3.85-4.63A2.2,2.2,0,0,0,846.71,1092.86Z"/><path class="cls-3" d="M1383.41,1082.31a21.88,21.88,0,0,0,2-1.19c2.53-1.81,5-1.87,7.41.17l1.46,1.2c1.31.13,2-.93,2.86-1.5,3.11-2,6.32-1.42,8.34,1.54a7.84,7.84,0,0,1,1.63,4.42c0,5.1,0,10.21,0,15.31,0,1.22-.86,1.58-1.91,1.64-1.57.1-2.52-.37-2.66-1.38a18.79,18.79,0,0,1-.11-2.38c0-3,0-6.06,0-9.09a18.94,18.94,0,0,0-.7-5.19,2.55,2.55,0,0,0-2-1.87,2.77,2.77,0,0,0-3,1,6,6,0,0,0-1.39,4c.06,3,0,6.06,0,9.09,0,1.28,0,2.55,0,3.83a2.47,2.47,0,0,1-3.84,1.78,1.79,1.79,0,0,1-.67-1.67c0-3.35,0-6.7,0-10a19.51,19.51,0,0,0-.58-5.21c-.36-1.3-.92-2.42-2.37-2.71a3.38,3.38,0,0,0-3.7,1.56c-.35.53-.65,1.09-1,1.64a1.25,1.25,0,0,1-.49-1.64A8.18,8.18,0,0,0,1383.41,1082.31Z"/><path class="cls-3" d="M918.65,1092c0-3.2.1-6.4,0-9.6-.11-2.52,1.9-3.16,3.88-2a3.34,3.34,0,0,1,.66.69,1.2,1.2,0,0,0,1.69.16,2.86,2.86,0,0,0,.42-.24,5.33,5.33,0,0,1,5.86-.75,6.38,6.38,0,0,1,3.89,5.12,25.33,25.33,0,0,1,.49,3.32c.06,4.32,0,8.64,0,13,0,.82-.12,1.61-1,2a3.78,3.78,0,0,1-3.25-.11,1.73,1.73,0,0,1-.7-1.68c0-3.67,0-7.35,0-11a25.73,25.73,0,0,0-.19-3.83c-.31-2-1.47-3-3.08-3.1a3.42,3.42,0,0,0-3.78,2.92,22.15,22.15,0,0,0-.23,3.82c0,3.68,0,7.36,0,11a2.45,2.45,0,0,1-3.76,2,1.64,1.64,0,0,1-.81-1.6V1092Z"/><path class="cls-3" d="M1259.06,1081.84c.75-.45,1.4-.91,2.11-1.25a6,6,0,0,1,8.56,3.4,15.63,15.63,0,0,1,.88,4.68c.13,4.3.1,8.6.05,12.9a2.67,2.67,0,0,1-4.16,2,1.83,1.83,0,0,1-.69-1.67c0-3.67,0-7.33,0-11a22.88,22.88,0,0,0-.21-3.8c-.34-2-1.51-3.09-3-3.16a3.75,3.75,0,0,0-4,3.28,23,23,0,0,0-.15,3.81c0,3.66,0,7.33,0,11a1.64,1.64,0,0,1-1.24,1.8,3.43,3.43,0,0,1-2.75-.27c-.63-.41-.59-1.09-.59-1.71,0-3.67,0-7.33,0-11,0-2.86,0-5.73,0-8.6,0-2.09,1.68-3,3.6-2A9.63,9.63,0,0,1,1259.06,1081.84Z"/><path class="cls-3" d="M1482.18,1079.85c3.26-.14,5.41,1.49,6.88,4.25a11.46,11.46,0,0,1,1.22,6c-.09,2.26-.46,2.65-2.9,2.71s-5.1.06-7.65.12a1.34,1.34,0,0,0-1.38,1.08,4.79,4.79,0,0,0,4.87,6.06,10.13,10.13,0,0,0,4.13-1.08,1.27,1.27,0,0,1,1.66.46,1.85,1.85,0,0,1,0,2.21,2.35,2.35,0,0,1-.63.7c-3.67,2.54-11.05,2.76-14-3.35a15.11,15.11,0,0,1,.94-15.48A7.35,7.35,0,0,1,1482.18,1079.85Zm0,10a18.78,18.78,0,0,0,2.49-.38,1.19,1.19,0,0,0,.9-1.44,10.88,10.88,0,0,0-.62-2.27,3.1,3.1,0,0,0-5.06-1.13,4.51,4.51,0,0,0-1.54,3.8,1.26,1.26,0,0,0,1.18,1.24C1480.33,1089.74,1481.12,1089.74,1482.2,1089.8Z"/><path class="cls-3" d="M1239.54,1091.28a19.92,19.92,0,0,1-.67,6.4,9,9,0,0,1-7.64,6.26c-4,.31-7.29-1.45-8.86-5.13a16.53,16.53,0,0,1,.14-13.89c1.61-3.4,4.44-5.38,8.42-5.06a8.61,8.61,0,0,1,7.6,5.62A13.59,13.59,0,0,1,1239.54,1091.28Zm-13.7.55c.09,2,.08,4.19,1.24,6.23a3.69,3.69,0,0,0,3.44,2.09,3.47,3.47,0,0,0,3.3-2.31,13.57,13.57,0,0,0,1.19-6.95,18.51,18.51,0,0,0-1.11-4.6,3.92,3.92,0,0,0-3.65-2.64c-1.59,0-2.54,1.12-3.28,2.41C1226,1087.78,1225.93,1089.69,1225.84,1091.83Z"/><path class="cls-3" d="M1120.65,1092a13.59,13.59,0,0,0,.52,5.19c.5,1.4,1.17,2.62,2.88,2.81a3.23,3.23,0,0,0,3.67-2.27c.83-1.9,1.52-2.1,3.33-1.85a1.57,1.57,0,0,1,1.4,2c-.92,2.9-2.72,5.18-5.72,5.87-3.69.84-7.34-.16-9.33-4a16,16,0,0,1,.17-16,7.65,7.65,0,0,1,8.58-3.82,7.89,7.89,0,0,1,6.2,6c.4,1.39,0,2.53-1,2.82a2.65,2.65,0,0,1-3.32-1.1,11,11,0,0,1-.64-1.8,2.7,2.7,0,0,0-2.91-2,3,3,0,0,0-3,2,21,21,0,0,0-.88,3.68A14.65,14.65,0,0,0,1120.65,1092Z"/><path class="cls-3" d="M1428.92,1103.38l-1.31-.71c-.13-.28-.2-.64-.42-.82a5.9,5.9,0,0,0-1.14-.61,7.62,7.62,0,0,0-.56,1.15,3.17,3.17,0,0,0,0,.92l0,3.12c-1,.83-.75,2-.85,3.09-.19,2.21-.21,2.21-2.94,2.66-.08-1.41-.24-2.83-.24-4.24q0-11.62,0-23.24c0-1.56-.34-3.18.55-4.63l2.92.5-.06,0,.64,1.19c.4,1,.8,1.9,1.21,2.85-1.91,4.26-.92,8.71-.81,13.09a2.2,2.2,0,0,0,1.33,1.86c1,.44,2.08.71,3.12,1a1.56,1.56,0,0,0,2-.9c2.75-5.1,2.41-10.21,0-15.31a1.42,1.42,0,0,0-1.72-1l-.16-.08c-.56-1.26-2.38-.57-2.92-1.87l1.21-1.18,4.35-.08c.9,1.05,2.55,1.28,3,2.77l.23.37a2.28,2.28,0,0,1,.88,1.86c-.15,1.19-.46,2.43,1,3.12a12.16,12.16,0,0,1,.16,7.52c-1.61.68-1.28,2-1.06,3.25a2.32,2.32,0,0,1-1,1.74l-.22.36c-.43,1.37-1.63,1.77-2.78,2.24Z"/><path class="cls-3" d="M1185.42,1103.94c-3.31,0-5.09-1.29-5.55-4.59a68,68,0,0,1-.39-7.14c-.06-1.59-.06-3.18,0-4.77a4.13,4.13,0,0,0-1.87-4c-1.76-1.23-1.64-2.38.42-3.51,1.7-1,1.3-2.32,1.49-3.67.24-1.8,1.06-2.42,2.89-2.29a1.88,1.88,0,0,1,1.92,1.74,12.16,12.16,0,0,1,.09,1.91,1.93,1.93,0,0,0,1.89,2.25c1.06.12,1.82.65,1.76,1.83a2,2,0,0,1-1.63,2c-1.56.28-2,1.26-2,2.71,0,3,0,6,0,9.07,0,2.16,0,4.16,2.76,4.82.78.18.95,1.2.83,2a1.73,1.73,0,0,1-1.62,1.48C1186.06,1103.91,1185.74,1103.91,1185.42,1103.94Z"/><path class="cls-3" d="M1454.45,1087.23c0-4.79,0-9.57,0-14.36,0-1.64.46-2,2-2.09,2.17-.09,3,.4,3,2.08.08,2.07,0,4.14,0,6.22v20.1c0,.79,0,1.59,0,2.39-.1,1.63-.69,2.22-2.37,2.33-2,.13-2.7-.35-2.68-2.32,0-4.78,0-9.57,0-14.35Z"/><path class="cls-3" d="M1090.56,1099.7c5.34.56,6.34-.26,6.39-5.38,0-4,.07-8,0-12,0-2.36,1.4-2.85,3.54-2.3a1.53,1.53,0,0,1,1.18,1.35,11.33,11.33,0,0,1,.12,1.42c0,6.21,0,12.43,0,18.64,0,2.2-1.49,3.06-3.54,2.07-1-.47-1.63-1.57-2.92-1.2-.15-1-.69-1-1.64-.93C1091.5,1101.69,1091.49,1101.59,1090.56,1099.7Z"/><path class="cls-3" d="M1201.1,1091.86c0-3.35,0-6.69,0-10,0-1.38.71-1.92,2.14-2,1.74,0,2.65.55,2.83,1.88a6,6,0,0,1,.05,1q0,9.32,0,18.63c0,1,0,2-1.16,2.35a3.91,3.91,0,0,1-3.23-.12c-.63-.34-.65-1-.65-1.67v-10Z"/><path class="cls-3" d="M1362.9,1091.62c0,3.36,0,6.71,0,10.06,0,.82-.13,1.63-1,2a3.45,3.45,0,0,1-3.23-.14c-.72-.47-.58-1.41-.58-2.2q0-8.62,0-17.25c0-.79,0-1.59.05-2.39.11-1.3.76-1.79,2.3-1.8s2.39.49,2.41,1.7c.07,3.35,0,6.7,0,10Z"/><path class="cls-3" d="M899.31,1091.5c0-3,0-6,0-9.06,0-1.92.53-2.43,2.11-2.41s2.3.54,2.32,2.26c0,4,0,7.94,0,11.91,0,2.7,0,5.4-.1,8.09a1.35,1.35,0,0,1-1.16,1.32c-.92.17-2,.38-2.68-.36a2.74,2.74,0,0,1-.5-1.75c-.05-3.33,0-6.67,0-10Z"/><path class="cls-3" d="M1090.56,1099.7c.93,1.89.94,2,3.12,1.72,1-.12,1.49-.11,1.64.93a3,3,0,0,1-2.23,1.17l-3.27-.06a2.45,2.45,0,0,1-2.31-1.52,1.14,1.14,0,0,0-.88-1.23h0a1.58,1.58,0,0,0-1.06-2.08c-.88-1.85-.72-3.8-.54-5.75a3.17,3.17,0,0,0,.75-2.64c0-2.37,0-4.75,0-7.12,0-2.17.08-2.17,3-2.51a3.17,3.17,0,0,1,.58,2.21q0,7-.08,14.07c-.64,1.29-.64,1.29.84,1.89C1090.25,1099.09,1090.41,1099.39,1090.56,1099.7Z"/><path class="cls-3" d="M1383.41,1082.31a8.18,8.18,0,0,1-.63,3.22,1.25,1.25,0,0,0,.49,1.64l0,15.39a6.53,6.53,0,0,1-3.45.91,6.32,6.32,0,0,1-.55-1.75q-.06-9.71,0-19.4a7.45,7.45,0,0,1,.46-1.8l3.46,1A1.22,1.22,0,0,1,1383.41,1082.31Z"/><path class="cls-3" d="M1088.76,1080.62c-2.88.34-2.91.34-3,2.51,0,2.37,0,4.75,0,7.12a3.17,3.17,0,0,1-.75,2.64c-1.11-3.69-.31-7.45-.45-11.18a1.65,1.65,0,0,1,1.76-1.79C1087.19,1079.88,1088.25,1079.4,1088.76,1080.62Z"/><path class="cls-3" d="M1203.67,1074.85c-2,0-2.59-.57-2.56-2.16,0-1.11.47-1.81,1.63-1.88a9.1,9.1,0,0,1,1.88.06c1.15.18,1.48,1,1.46,2.06a1.62,1.62,0,0,1-1.24,1.75A9.34,9.34,0,0,1,1203.67,1074.85Z"/><path class="cls-3" d="M1360.38,1074.84c-1.8,0-2.33-.51-2.26-2.22.05-1.29.46-1.75,1.68-1.83a9.75,9.75,0,0,1,1.43,0c1.19.1,1.6.86,1.63,1.94s-.47,1.89-1.52,2C1361,1074.83,1360.7,1074.83,1360.38,1074.84Z"/><path class="cls-3" d="M901.46,1074.85c-1.8,0-2.37-.55-2.3-2.22.05-1.24.5-1.75,1.69-1.84a9.73,9.73,0,0,1,1.43,0c1.17.11,1.62.83,1.63,1.93s-.44,1.88-1.5,2C902.09,1074.83,901.77,1074.83,901.46,1074.85Z"/><path class="cls-3" d="M1421.69,1112.18c2.73-.45,2.75-.45,2.94-2.66.1-1.09-.18-2.26.85-3.09.62,1.35.35,2.77.33,4.16,0,2.7-1,3.14-4,2C1421.77,1112.57,1421.75,1112.33,1421.69,1112.18Z"/><path class="cls-3" d="M1426.71,1084.58c-.41-.95-.81-1.9-1.21-2.85l2-.35c.54,1.3,2.36.61,2.92,1.87Z"/><path class="cls-3" d="M1383.16,1081.48l-3.46-1C1381.72,1079.45,1382.51,1079.67,1383.16,1081.48Z"/><path class="cls-3" d="M1437.28,1099c-.22-1.27-.55-2.57,1.06-3.25A2.53,2.53,0,0,1,1437.28,1099Z"/><path class="cls-3" d="M1438.18,1088.24c-1.44-.69-1.13-1.93-1-3.12A2.34,2.34,0,0,1,1438.18,1088.24Z"/><path class="cls-3" d="M1428.92,1103.38l4.39,0C1431.61,1104.15,1430.85,1104.15,1428.92,1103.38Z"/><path class="cls-3" d="M1433,1080.12l-4.35.08A3.37,3.37,0,0,1,1433,1080.12Z"/><path class="cls-3" d="M1425.51,1103.31a3.17,3.17,0,0,1,0-.92,7.62,7.62,0,0,1,.56-1.15,5.9,5.9,0,0,1,1.14.61c.22.18.29.54.42.82Z"/><path class="cls-3" d="M1379.79,1103.47a6.53,6.53,0,0,0,3.45-.91.81.81,0,0,1-.44,1.11C1381.79,1104,1380.74,1104.29,1379.79,1103.47Z"/><path class="cls-3" d="M1089.82,1103.46l3.27.06C1092.19,1104.12,1091.79,1104.12,1089.82,1103.46Z"/><path class="cls-3" d="M1090.1,1098.79c-1.48-.6-1.48-.6-.84-1.89A1.64,1.64,0,0,1,1090.1,1098.79Z"/><path class="cls-3" d="M1085.57,1098.64a1.58,1.58,0,0,1,1.06,2.08C1085.73,1100.3,1085.13,1099.73,1085.57,1098.64Z"/><path class="cls-3" d="M1424.92,1080.57l-2.92-.5c1-.91,1.94-.51,2.9,0A.39.39,0,0,1,1424.92,1080.57Z"/><path class="cls-6" d="M679.31,1023c-.09,0-.23-.08-.24-.13a1.8,1.8,0,0,1,.08-.39c.09,0,.25.08.25.13A1.83,1.83,0,0,1,679.31,1023Z"/><path class="cls-7" d="M276.25,292.34c0,.3.05.61.08.91a4.6,4.6,0,0,1-.37-.64C275.94,292.56,276.14,292.43,276.25,292.34Z"/><path class="cls-7" d="M664.31,1018.09l.44.39c-.09,0-.22,0-.27-.06a1.61,1.61,0,0,1-.16-.35Z"/><path class="cls-3" d="M1424.92,1080.57a.39.39,0,0,0,0-.46l.14.25-.18.18Z"/><path class="cls-3" d="M1086.63,1100.71a1.14,1.14,0,0,1,.88,1.23A1.14,1.14,0,0,1,1086.63,1100.71Z"/><polygon class="cls-3" points="1436.32 1083.26 1436.09 1082.89 1436.46 1082.96 1436.32 1083.26"/><polygon class="cls-3" points="1436.09 1101.11 1436.31 1100.75 1436.44 1101.04 1436.09 1101.11"/><path class="cls-3" d="M1432.28,1084.37c-.71-.12-1.44-.21-1.72-1A1.42,1.42,0,0,1,1432.28,1084.37Z"/><path class="cls-3" d="M1430.35,1100.58c.41-.83,1.18-.86,2-.9A1.56,1.56,0,0,1,1430.35,1100.58Z"/></g></svg>